<svg width="21" height="22" viewBox="0 0 21 22" fill="none" xmlns="http://www.w3.org/2000/svg">
<path d="M16.9748 10.0011C17.5881 15.3768 20 17.002 20 17.002H1C1 17.002 4.16667 14.8688 4.16667 7.40082C4.16667 5.7036 4.83378 4.07539 6.02128 2.87524C7.20983 1.67509 8.82167 1 10.5 1C10.8557 1 11.2093 1.03 11.5556 1.09001" stroke="white" stroke-width="1.5" stroke-linecap="round" stroke-linejoin="round"/>
<path d="M16.2018 7.00077C17.0417 7.00077 17.8471 6.68466 18.441 6.12197C19.0349 5.55929 19.3685 4.79613 19.3685 4.00038C19.3685 3.20463 19.0349 2.44147 18.441 1.87879C17.8471 1.31611 17.0417 1 16.2018 1C15.362 1 14.5565 1.31611 13.9627 1.87879C13.3688 2.44147 13.0352 3.20463 13.0352 4.00038C13.0352 4.79613 13.3688 5.55929 13.9627 6.12197C14.5565 6.68466 15.362 7.00077 16.2018 7.00077Z" fill="#E5BB44"/>
<path d="M16.2018 7.00077C17.0417 7.00077 17.8471 6.68466 18.441 6.12197C19.0349 5.55929 19.3685 4.79613 19.3685 4.00038C19.3685 3.20463 19.0349 2.44147 18.441 1.87879C17.8471 1.31611 17.0417 1 16.2018 1C15.362 1 14.5565 1.31611 13.9627 1.87879C13.3688 2.44147 13.0352 3.20463 13.0352 4.00038C13.0352 4.79613 13.3688 5.55929 13.9627 6.12197C14.5565 6.68466 15.362 7.00077 16.2018 7.00077Z" fill="url(#paint0_radial_339_3612)" fill-opacity="0.7"/>
<path d="M12.328 20.0024C12.1426 20.3058 11.8763 20.5577 11.5558 20.7328C11.2353 20.9079 10.8719 21 10.5019 21C10.1319 21 9.76846 20.9079 9.44795 20.7328C9.12743 20.5577 8.86114 20.3058 8.67578 20.0024" stroke="white" stroke-width="1.5" stroke-linecap="round" stroke-linejoin="round"/>
<defs>
<radialGradient id="paint0_radial_339_3612" cx="0" cy="0" r="1" gradientUnits="userSpaceOnUse" gradientTransform="translate(15.3174 2.00013) rotate(58.3916) scale(4.65886 4.55833)">
<stop stop-color="white"/>
<stop offset="0.719012" stop-color="white" stop-opacity="0"/>
<stop offset="1" stop-color="white" stop-opacity="0"/>
</radialGradient>
</defs>
</svg>
