<svg width="488" height="487" viewBox="0 0 488 487" fill="none" xmlns="http://www.w3.org/2000/svg">
<path d="M237.336 322.224C237.336 322.224 239.082 323.898 240.858 325.869C242.663 327.841 247.728 330.595 249.853 331.81C251.978 333.026 261.729 339.885 263.738 346.636C265.776 353.387 258.818 354.278 251.687 353.09C244.555 351.929 237.918 345.826 235.997 343.638C234.047 341.451 227.322 336.455 218.59 332.242C209.857 328.057 215.126 322.413 215.126 322.413L237.307 322.224H237.336Z" fill="#E5BB44"/>
<path d="M237.336 322.224C237.336 322.224 239.082 323.898 240.858 325.869C242.663 327.841 247.728 330.595 249.853 331.81C251.978 333.026 261.729 339.885 263.738 346.636C265.776 353.387 258.818 354.278 251.687 353.09C244.555 351.929 237.918 345.826 235.997 343.638C234.047 341.451 227.322 336.455 218.59 332.242C209.857 328.057 215.126 322.413 215.126 322.413L237.307 322.224H237.336Z" fill="url(#paint0_radial_480_4035)" fill-opacity="0.7"/>
<path d="M171.841 336.86C171.841 336.86 170.414 339.885 170.007 343.801C169.599 347.689 169.017 356.142 168.784 358.626C168.58 361.111 168.493 367.16 173.18 372.939C177.866 378.745 180.282 381.013 186.541 378.745C192.77 376.476 192.625 366.755 191.518 361.759C190.412 356.763 189.393 345.583 189.51 344.422C189.626 343.26 189.015 340.668 189.015 340.668L171.87 336.86H171.841Z" fill="url(#paint1_linear_480_4035)"/>
<path d="M258.848 207.697C258.848 207.697 257.538 252.228 246.36 275.857C246.36 275.857 238.355 296.678 237.278 321.441C237.278 321.441 239.141 325.708 236.492 329.164C233.872 332.621 217.455 335.808 214.748 324.412C212.041 313.015 213.089 291.736 216.058 282.851C219.027 273.967 215.01 249.473 215.01 249.473C215.01 249.473 210.527 252.12 204.647 269.727C198.767 287.307 194.43 294.031 192.421 298.892C190.733 302.97 189.161 324.493 189.423 339.939C189.51 345.07 184.358 348.959 178.973 347.717C176.382 347.122 173.966 345.988 172.656 343.99C168.814 338.103 167.533 307.588 168.494 297.866C169.454 288.144 173.85 256.981 173.238 247.34C172.627 237.699 170.473 229.868 172.86 220.254C175.247 210.613 245.4 189.226 245.4 189.226L258.848 207.724V207.697Z" fill="url(#paint2_linear_480_4035)"/>
<path opacity="0.6" d="M173.238 247.285C172.627 237.645 170.473 229.813 172.86 220.2C173.762 216.581 184.212 211.288 196.962 206.103C218.445 204.294 245.662 202.16 247.554 202.43C249.242 202.674 253.696 204.24 257.364 205.59L258.848 207.642C258.848 207.642 258.761 210.343 258.47 214.772C253.463 216.149 243.828 214.718 243.828 214.718C242.46 217.85 234.105 228.949 223.684 233.729C213.263 238.509 182.815 236.889 181.069 238.698C179.322 240.507 178.973 264.893 179.177 267.998C179.38 271.104 176.295 290.601 173.471 307.857C170.677 324.843 174.927 345.448 175.072 346.123C174.083 345.529 173.238 344.827 172.627 343.882C168.785 337.994 167.504 307.479 168.464 297.757C169.425 288.036 173.821 256.872 173.209 247.231L173.238 247.285Z" fill="#020230"/>
<path d="M235.356 62.0597C235.356 62.0597 250.929 65.3543 256.169 66.4885C257.042 66.6775 257.741 67.2447 258.061 68.0008C259.575 71.5384 263.359 82.5833 260.506 98.6782C256.984 118.473 258.119 131.786 258.119 131.786L265.309 166.541C265.309 166.541 274.362 199.649 273.576 200.567C272.79 201.485 252.734 215.636 246.476 213.638C240.217 211.639 242.255 208.345 242.255 208.345C242.255 208.345 237.19 232.352 214.688 232.109C192.216 231.866 173.848 231.947 170.035 223.521C166.222 215.096 171.083 179.639 175.042 165.623C179.001 151.581 188.432 123.631 188.432 123.631L155.51 89.8206L183.658 69.8911C183.658 69.8911 190.382 58.3061 193.148 56.8208C195.913 55.3355 197.339 56.6048 197.339 56.6048L235.356 62.0327V62.0597Z" fill="url(#paint3_radial_480_4035)"/>
<path d="M193.731 56.5511C193.731 56.5511 187.997 63.0052 196.264 71.7277C201.358 77.1017 210.119 88.6598 217.571 100.65C222.229 108.157 226.537 112.154 228.982 118.581C228.982 118.581 229.331 110.939 229.652 99.1106C229.972 87.9576 230.117 76.3726 229.593 73.456C228.487 67.434 200.106 53.6346 193.731 56.5511Z" fill="#F0F6FF"/>
<path d="M215.242 75.9671C215.242 75.9671 218.182 77.6684 219.201 77.5334C220.219 77.3984 223.48 74.4549 223.48 74.4549C223.48 74.4549 231.63 74.3198 232.533 71.0793C233.435 67.8387 234.017 64.5711 234.832 62.8698C235.647 61.1955 239.17 53.0941 239.199 49.7995C239.199 46.5049 239.082 40.6448 240.625 37.5393C242.139 34.4337 244.205 3.35127 211.865 4.24243C179.525 5.10658 189.568 36.2701 189.568 36.2701C189.568 36.2701 187.21 37.2152 188.636 41.2119C190.063 45.2357 190.383 45.6407 191.11 47.6391C191.838 49.6374 192.188 50.9067 194.254 52.527L194.778 56.2266C194.778 56.2266 193.235 61.8706 197.253 67.3526C201.27 72.8346 215.213 75.9671 215.213 75.9671H215.242Z" fill="#FCD1C5"/>
<path d="M257.043 66.8662C257.043 66.8662 260.478 67.3523 271.685 93.4659C277.943 108.049 287.578 123.117 289.616 133.946C291.654 144.775 290.518 156.36 288.219 157.17C286.006 157.953 245.778 171.915 233.203 176.317C232.504 176.56 231.747 176.155 231.631 175.479L228.167 157.467L253.113 148.529C253.113 148.529 257.858 143.155 262.341 141.129C262.341 141.129 257.334 132.569 257.654 130.246C257.974 127.924 257.218 103.755 260.128 93.925C263.039 84.0953 257.072 66.8932 257.072 66.8932L257.043 66.8662Z" fill="url(#paint4_radial_480_4035)"/>
<path d="M242.43 135.864C242.43 135.864 245.865 133.73 246.709 133.406C247.553 133.109 252.152 131.651 253.026 131.273C253.666 131.003 256.344 131.219 257.683 131.327C258.178 131.381 258.585 131.624 258.818 132.029C259.866 133.865 262.835 139.185 262.515 141.211C262.515 141.211 254.219 146.072 253.288 148.259L251.948 148.529C251.948 148.529 246.389 137.457 242.401 135.864H242.43Z" fill="#FCD1C5"/>
<path opacity="0.6" d="M175.042 165.677C176.003 162.301 177.254 158.116 178.652 153.714L229.185 173.805C229.185 173.805 214.048 191.061 187.559 189.954C180.311 189.657 175.013 187.227 171.142 185.147C172.306 177.478 173.732 170.376 175.071 165.677H175.042Z" fill="#020230"/>
<path d="M155.481 89.8473C155.481 89.8473 168.813 91.5486 179.583 107.373C190.353 123.198 198.184 141.534 198.184 141.534L198.562 143.587C199.523 148.961 205.723 152.066 211.079 149.825C222.461 145.126 239.286 137.997 242.43 135.863C242.43 135.863 252.501 141.021 255.238 153.228C257.421 162.949 256.868 162.976 256.868 162.976C256.868 162.976 212.011 182.393 194.662 182.204C177.342 182.015 155.335 129.166 152.919 118.229C150.503 107.292 147.825 92.8989 155.452 89.8203L155.481 89.8473Z" fill="url(#paint5_radial_480_4035)"/>
<path d="M211.487 149.663C211.487 149.663 209.945 148.313 207.936 146.747C205.927 145.18 202.696 138.645 202.143 138.078C201.59 137.511 194.837 132.677 191.548 132.596C188.287 132.515 190.703 135.891 191.46 136.377C192.217 136.863 195.39 138.321 195.39 138.321C195.39 138.321 198.679 140.887 199.029 141.238C199.407 141.616 189.918 140.644 188.404 141.481C186.89 142.318 187.239 144.586 188.317 145.207C189.364 145.828 190.179 145.801 190.179 145.801C190.179 145.801 189.102 148.448 191.955 149.69C194.808 150.932 195.448 150.23 195.448 150.23C195.448 150.23 195.681 154.794 200.397 153.903L211.458 149.663H211.487Z" fill="#FCD1C5"/>
<path d="M241.354 21.6605C241.354 21.6605 245.574 34.1367 234.455 30.5721C223.335 27.0345 213.292 21.0934 209.799 23.3348C207.15 25.0631 207.267 30.329 207.471 32.7595C207.529 33.5966 207.296 34.4068 206.801 35.0819L203.512 39.5377C203.133 40.0507 202.93 40.6179 202.871 41.239L202.638 44.3175C202.58 45.1006 201.911 45.7218 201.067 45.7488L200.31 45.8028C199.466 45.8568 198.709 45.2897 198.563 44.5336L197.719 39.9967C197.719 39.9967 195.099 33.8937 189.569 36.2971C189.569 36.2971 185.872 31.6793 187.094 21.8225C188.317 11.9658 193.091 1.73096 213.933 0.0836644C234.775 -1.56363 241.354 21.6605 241.354 21.6605Z" fill="#AA8383"/>
<path d="M209.508 86.958L212.622 84.7166C212.622 84.7166 215.504 86.931 216.639 89.3075C217.775 91.6569 216.639 99.1642 216.639 99.1642L217.6 100.676L218.764 98.7051L219.754 89.8476C219.754 89.8476 218.706 83.2854 218.59 83.1233C218.473 82.9613 212.564 83.7175 212.564 83.7175C212.564 83.7175 210.526 85.1757 209.508 86.9851V86.958Z" fill="#C4CCD6"/>
<path d="M224.499 78.1276C224.499 78.1276 227.846 78.3437 229.331 79.4779C229.331 79.4779 225.838 79.6398 225.285 79.6939C224.732 79.7479 224.499 78.1006 224.499 78.1006V78.1276Z" fill="#C4CCD6"/>
<path d="M212.536 83.6637L218.125 78.8029C218.125 78.8029 226.886 77.0746 226.159 79.343C225.431 81.6384 226.013 86.7693 225.46 88.8216C225.46 88.9297 225.373 89.0107 225.344 89.0917C225.635 90.1719 226.479 93.2775 227.41 94.7087C228.546 96.464 229.71 98.4353 229.71 98.4353L229.564 123.334C229.564 123.334 219.696 104.457 217.542 100.65C217.542 100.65 217.863 91.5491 218.794 89.8478C217.426 85.7701 212.506 83.6908 212.506 83.6908L212.536 83.6637Z" fill="#E5BB44"/>
<path d="M212.536 83.6637L218.125 78.8029C218.125 78.8029 226.886 77.0746 226.159 79.343C225.431 81.6384 226.013 86.7693 225.46 88.8216C225.46 88.9297 225.373 89.0107 225.344 89.0917C225.635 90.1719 226.479 93.2775 227.41 94.7087C228.546 96.464 229.71 98.4353 229.71 98.4353L229.564 123.334C229.564 123.334 219.696 104.457 217.542 100.65C217.542 100.65 217.863 91.5491 218.794 89.8478C217.426 85.7701 212.506 83.6908 212.506 83.6908L212.536 83.6637Z" fill="url(#paint6_radial_480_4035)" fill-opacity="0.7"/>
<path d="M198.737 51.9332C205.228 69.2973 223.451 74.4282 223.451 74.4282C223.451 74.4282 220.19 77.3717 219.172 77.5068C218.153 77.6418 215.213 75.9405 215.213 75.9405C215.213 75.9405 201.299 72.808 197.253 67.326C193.235 61.844 194.778 56.2 194.778 56.2L194.254 52.5004C197.136 53.3915 198.737 51.9062 198.737 51.9062V51.9332Z" fill="#E2B1A6"/>
<path opacity="0.6" d="M183.921 72.2676C183.921 72.2676 186.482 80.4501 186.803 80.7741C187.123 81.0712 193.236 80.423 193.236 80.423L190.267 85.635C190.267 85.635 220.977 116.177 227.352 132.623C227.352 132.623 212.826 111.803 187.239 86.9042L190.849 81.8273L184.561 82.9615L183.892 72.2676H183.921Z" fill="#020230"/>
<path opacity="0.6" d="M234.338 65.0299L235.968 66.7582L234.047 68.4055L239.723 73.1583C239.723 73.1583 241.47 106.563 234.513 128.707C234.513 128.707 243.915 108.4 241.79 72.2402L235.648 68.3785L237.656 66.5422L234.309 65.0029L234.338 65.0299Z" fill="#020230"/>
<path opacity="0.6" d="M215.009 249.445C215.009 249.445 214.922 249.499 214.806 249.607L222.752 241.749C219.084 246.556 223.305 268.538 223.742 273.588C224.179 278.638 219.492 289.034 217.745 301.214C215.999 313.393 219.579 330.757 219.609 330.811C217.338 329.596 215.533 327.543 214.776 324.384C212.069 312.988 213.117 291.708 216.086 282.823C219.055 273.939 215.038 249.445 215.038 249.445H215.009Z" fill="#020230"/>
<path d="M200.309 45.8026C199.465 45.8566 198.708 45.2895 198.563 44.5334L197.719 39.9966C197.719 39.9966 195.099 33.8935 189.568 36.2969C189.568 36.2969 186.075 31.9221 187.035 22.6055C193.177 31.166 206.83 35.1087 206.83 35.1087L203.54 39.5645C203.162 40.0776 202.958 40.6447 202.9 41.2658L202.667 44.3443C202.609 45.1275 201.939 45.7486 201.095 45.7756L200.338 45.8296L200.309 45.8026Z" fill="#936D6D"/>
<path d="M197.893 430.107C197.893 434.023 201.299 437.183 205.519 437.183C209.74 437.183 213.146 434.023 213.146 430.107C213.146 426.192 209.74 423.032 205.519 423.032C201.299 423.032 197.893 426.192 197.893 430.107Z" fill="#1D1D1E"/>
<path d="M122.879 351.146C122.879 355.061 126.285 358.221 130.506 358.221C134.726 358.221 138.132 355.061 138.132 351.146C138.132 347.23 134.726 344.07 130.506 344.07C126.285 344.07 122.879 347.23 122.879 351.146Z" fill="#1D1D1E"/>
<path d="M106.49 405.102C106.49 409.017 109.896 412.177 114.117 412.177C118.337 412.177 121.743 409.017 121.743 405.102C121.743 401.186 118.337 398.026 114.117 398.026C109.896 398.026 106.49 401.186 106.49 405.102Z" fill="#1D1D1E"/>
<path d="M271.073 391.788C271.073 395.704 274.479 398.863 278.7 398.863C282.92 398.863 286.326 395.704 286.326 391.788C286.326 387.872 282.92 384.713 278.7 384.713C274.479 384.713 271.073 387.872 271.073 391.788Z" fill="#1D1D1E"/>
<path d="M223.975 344.043C223.975 347.959 227.381 351.118 231.601 351.118C235.822 351.118 239.228 347.959 239.228 344.043C239.228 340.127 235.822 336.968 231.601 336.968C227.381 336.968 223.975 340.127 223.975 344.043Z" fill="#1D1D1E"/>
<path d="M124.567 343.584L127.129 345.582C129.312 344.691 132.689 344.907 134.988 346.122L194.633 370.211L186.279 374.694L126.634 350.605C125.237 349.849 124.567 348.877 124.626 347.986V343.611L124.567 343.584Z" fill="#16110D"/>
<path d="M225.954 338.21C227.439 336.643 230.99 336.022 233.901 336.832C234.251 336.913 234.571 337.048 234.862 337.156C235.007 336.94 235.182 336.724 235.386 336.535C235.91 336.049 237.132 335.374 237.132 335.374V339.776C237.132 340.235 236.929 340.694 236.521 341.126L198.039 373.721L187.531 370.858L226.013 338.264L225.954 338.21Z" fill="url(#paint7_linear_480_4035)"/>
<path d="M108.616 397.647L110.042 398.106L110.857 399.673C111.148 399.538 111.498 399.429 111.847 399.321L187.385 370.858L192.741 376.502L117.203 404.992C114.292 405.776 110.741 405.154 109.256 403.615C108.82 403.156 108.616 402.643 108.645 402.157V397.701L108.616 397.647Z" fill="#16110D"/>
<path d="M197.952 373.721L210.352 423.031L211.284 422.599V427.163C211.109 428.621 209.101 429.864 206.335 430.08C203.104 430.35 200.077 429.189 199.582 427.46L186.308 374.747L197.981 373.748L197.952 373.721Z" fill="#16110D"/>
<path d="M111.818 394.92L181.883 368.509L126.605 346.176C124.131 344.853 123.869 342.855 125.994 341.694L126.576 341.397C128.73 340.235 132.456 340.397 134.959 341.721L190.238 364.054L225.954 333.808C227.439 332.242 230.99 331.621 233.901 332.431C236.812 333.214 237.947 335.131 236.492 336.671L200.804 366.916L278.467 380.797C281.698 381.067 283.881 382.687 283.387 384.415C282.863 386.143 279.864 387.305 276.633 387.035L198.97 373.154L211.283 422.033C211.807 423.761 209.595 425.382 206.364 425.652C203.133 425.922 200.106 424.76 199.611 423.032L187.298 374.153L117.232 400.564C114.321 401.347 110.77 400.726 109.285 399.187C107.801 397.648 108.965 395.73 111.876 394.947L111.818 394.92ZM189.393 368.563L190.703 369.941L193.556 369.698L193.993 368.185L191.431 367.483L189.393 368.563Z" fill="url(#paint8_radial_480_4035)"/>
<path d="M191.809 372.641C195.186 372.641 197.922 370.103 197.922 366.97V301.349H185.696V366.97C185.696 370.103 188.432 372.641 191.809 372.641Z" fill="#1D1D1E"/>
<path d="M224.295 223.385H224.324C224.47 221.9 225.517 220.523 227.497 219.442L228.778 218.767C233.522 216.229 241.819 216.553 247.291 219.469L285.919 240.155C288.83 241.721 290.343 243.693 290.431 245.583V251.821C290.431 253.441 289.383 254.981 287.229 256.142L285.948 256.817C281.203 259.356 272.907 259.031 267.435 256.115L228.807 235.429C225.983 233.917 224.47 232.027 224.295 230.19V223.385Z" fill="url(#paint9_radial_480_4035)"/>
<path d="M285.977 250.769L287.258 250.094C292.003 247.555 291.42 243.126 285.919 240.183L247.291 219.497C241.819 216.554 233.522 216.257 228.778 218.795L227.497 219.47C222.752 222.009 223.334 226.437 228.836 229.381L267.464 250.067C272.936 253.01 281.232 253.307 285.977 250.769Z" fill="#4A4745"/>
<path d="M204.209 279.636L285.103 322.925C289.12 325.058 292.352 322.79 292.352 317.848C292.352 312.879 289.091 307.127 285.103 304.994L192.449 255.413V258.816C192.449 266.863 197.718 276.207 204.209 279.69V279.636Z" fill="#A6A6A6"/>
<path d="M198.242 94.7079C201.066 93.3036 204.675 93.4926 208.634 95.599L211.05 96.8953C219.986 101.675 227.235 114.529 227.235 125.601V273.993L205.752 262.489V267.214L231.514 286.712L290.081 323.141L207.79 366.295L160.458 332.512L133.503 311.178L116.707 137.51L198.242 94.7349V94.7079Z" fill="url(#paint10_linear_480_4035)"/>
<path d="M258.527 339.667C258.527 339.667 260.71 334.294 256.402 330.27C252.094 326.246 229.331 317.389 227.672 316.416C226.012 315.444 217.833 309.881 217.833 309.881L215.329 304.696C215.329 304.696 261.525 308.882 262.137 309.53C262.748 310.205 283.765 327.677 283.153 328.433C282.542 329.19 268.686 332.322 268.686 332.322L266.008 335.725L258.527 339.64V339.667Z" fill="#2D2D2D"/>
<path d="M126.692 138.564L129.108 139.86C138.045 144.64 145.293 157.494 145.293 168.566V316.957L203.162 347.905C207.179 350.038 210.41 355.817 210.41 360.759C210.41 365.728 207.149 367.996 203.162 365.836L122.267 322.547C115.776 319.064 110.507 309.72 110.507 301.673V149.879C110.507 138.807 117.755 133.73 126.692 138.51V138.564Z" fill="url(#paint11_radial_480_4035)"/>
<path d="M280.417 371.804C280.417 371.804 292.322 378.906 296.368 383.065C300.385 387.251 308.39 395.811 305.101 399.889C301.812 403.967 290.721 406.235 278.816 396.054C266.91 385.874 270.287 385.253 260.127 380.23C249.968 375.18 247.174 369.698 248.397 366.538C249.619 363.406 254.626 357.843 257.362 359.031C260.098 360.219 280.417 371.777 280.417 371.777V371.804Z" fill="url(#paint12_linear_480_4035)"/>
<path d="M222.461 401.591C222.461 401.591 226.74 410.313 228.952 413.23C231.164 416.119 241.847 432.835 236.258 436.67C230.669 440.504 220.103 439.451 211.72 431.026C203.365 422.6 201.502 412.338 199.435 408.99C197.369 405.614 192.245 396.622 194.662 391.464C197.107 386.279 197.631 385.388 197.631 385.388L222.432 401.618L222.461 401.591Z" fill="url(#paint13_linear_480_4035)"/>
<path d="M265.746 277.234C265.746 277.234 301.142 309.64 306.964 325.924C306.964 325.924 309.409 334.727 302.569 341.613C295.728 348.5 281.203 371.049 281.203 371.049C281.203 371.049 270.345 383.228 256.344 373.479C256.344 373.479 249.998 364.081 253.898 357.843C257.799 351.605 268.162 331.676 268.162 331.676C268.162 331.676 245.457 317.174 234.25 313.529C223.043 309.856 217.075 307.047 217.075 307.047C217.075 307.047 219.113 316.85 227.322 326.437C235.531 335.996 249.241 351.389 244.671 362.083C240.101 372.777 237.452 376.099 233.144 382.256C228.835 388.413 224.789 401.267 221.122 402.59C217.454 403.913 200.541 405.48 197.776 395.245C195.04 385.01 203.54 365.135 207.382 358.41C207.382 358.41 161.594 309.397 157.227 303.996C152.861 298.622 251.57 268.917 265.746 277.234Z" fill="url(#paint14_radial_480_4035)"/>
<path d="M253.899 357.87C257.8 351.632 268.162 331.702 268.162 331.702C268.162 331.702 245.457 317.201 234.25 313.555C223.043 309.909 217.076 307.074 217.076 307.074C214.922 304.319 207.965 293.787 204.85 285.443C230.67 278.422 258.702 273.129 265.775 277.261C263.272 283.013 250.115 282.959 250.115 282.959C250.115 282.959 245.195 294.058 241.935 295.489C238.675 296.92 230.874 295.354 230.874 295.354C230.874 295.354 232.125 297.19 237.714 300.917C243.303 304.643 278.118 331.135 278.118 331.135C278.118 331.135 276.138 332.188 266.852 347.743C257.567 363.298 256.373 373.56 256.373 373.56C256.373 373.56 250.027 364.162 253.928 357.924L253.899 357.87Z" fill="#160A5B"/>
<path opacity="0.6" d="M175.595 294.436C196.059 292.626 219.899 292.464 214.543 302.429C205.432 319.334 187.122 320.09 187.122 320.09C187.239 326.301 215.329 356.331 215.329 356.331L208.78 368.132C202.23 379.933 203.045 401.456 203.045 401.456C200.513 400.186 198.504 398.215 197.718 395.218C194.982 384.983 203.482 365.107 207.324 358.383C207.324 358.383 161.536 309.369 157.169 303.968C155.888 302.375 163.631 298.648 175.566 294.409L175.595 294.436Z" fill="#020230"/>
<path d="M301.55 190.845L296.106 186.929C296.106 186.929 266.735 171.807 256.984 166.919C251.686 164.272 246.213 159.52 242.284 155.739C238.47 152.039 233.173 149.987 227.642 149.96L176.206 149.717C176.206 149.717 170.21 158.628 168.201 160.384C166.716 161.68 152.773 172.536 142.76 181.447C137.229 186.389 133.183 192.6 131.087 199.46C125.352 218.201 125.44 255.954 124.567 282.958C124.567 282.958 128.118 284.255 136.909 285.983C145.671 287.711 144.594 286.604 144.594 286.604C144.594 286.604 157.722 313.987 175.507 316.633C193.322 319.28 217.308 311.556 221.587 285.632C221.587 285.632 256.285 280.798 265.716 277.233C266.59 276.909 266.881 275.91 266.328 275.208C262.136 270.05 246.475 250.013 244.991 236.942C243.273 221.847 243.797 199.946 245.078 193.951C245.078 193.951 271.247 203.105 279.601 204.726C279.601 204.726 311.476 237.212 324.779 246.043C324.779 246.043 320.209 239.4 329.378 234.89L301.579 190.845H301.55Z" fill="url(#paint15_radial_480_4035)"/>
<path opacity="0.6" d="M136.88 285.957C135.541 285.687 134.348 285.444 133.241 285.201L135.104 281.825L183.396 277.072L211.603 278.423L221.296 286.983C220.743 289.765 219.987 292.33 218.997 294.679C218.939 294.679 207.004 296.273 201.473 295.192C195.913 294.085 152.948 299.945 152.861 299.972C148 293.491 144.972 287.442 144.594 286.686C144.623 286.902 144.099 287.415 136.88 285.984V285.957Z" fill="#020230"/>
<path d="M202.055 270.293C202.113 270.131 202.259 270.023 202.434 269.996C204.762 269.942 219.841 269.537 225.546 267.701C231.746 265.729 238.296 266.081 238.616 266.405C238.936 266.729 249.241 270.779 249.852 272.454C250.405 273.912 251.395 278.989 250.027 280.852C248.659 282.715 248.018 283.985 248.018 283.985L246.941 284.093C246.941 284.093 245.544 286.631 244.758 287.522C244.409 287.927 244.147 288.359 243.914 288.819C243.274 290.115 242.109 292.275 241.644 292.329C240.974 292.383 237.772 292.977 236.957 292.788C236.287 292.626 235.705 290.763 235.967 289.926C236.055 289.71 235.909 289.494 235.676 289.467C234.221 289.251 230.233 288.765 224.702 289.251C217.978 289.818 208.488 285.74 207.644 285.362C207.586 285.362 207.557 285.335 207.499 285.335L198.038 284.552C197.776 284.552 197.601 284.282 197.66 284.039L201.997 270.32L202.055 270.293Z" fill="#FCD1C5"/>
<path d="M213.466 177.775C213.466 177.775 221.53 205.32 213.001 233.621C213.001 233.621 182 179.99 178.652 171.294C175.304 162.599 174.082 156.415 177.197 153.282C180.311 150.15 208.343 166.298 208.343 166.298L213.466 177.775Z" fill="#F0F6FF"/>
<path d="M205.489 220.956C205.489 220.956 199.58 204.186 200.628 198.785C201.676 193.384 203.132 189.495 203.132 189.495L197.805 184.931L195.447 189.441C195.447 189.441 183.716 181.475 182.959 179.989C182.959 179.989 192.39 185.984 195.359 186.903C195.359 186.903 196.757 184.742 198.62 184.013C200.483 183.284 205.082 189.144 205.082 189.144L205.955 199.325L210.583 223.035L208.983 226.546L205.519 220.929L205.489 220.956Z" fill="#C4CCD6"/>
<path d="M198.591 184.04C198.591 184.04 203.831 175.453 210.672 178.099C210.672 178.099 211.749 188.658 210.846 189.63C212.389 191.494 216.173 196.597 216.872 202.214C218.764 217.958 213.03 233.621 213.03 233.621L208.43 225.601C208.43 225.601 207.266 215.96 204.239 205.563C201.997 197.894 203.132 191.791 203.889 189.144C201.939 187.686 198.621 184.04 198.621 184.04H198.591Z" fill="#E5BB44"/>
<path d="M198.591 184.04C198.591 184.04 203.831 175.453 210.672 178.099C210.672 178.099 211.749 188.658 210.846 189.63C212.389 191.494 216.173 196.597 216.872 202.214C218.764 217.958 213.03 233.621 213.03 233.621L208.43 225.601C208.43 225.601 207.266 215.96 204.239 205.563C201.997 197.894 203.132 191.791 203.889 189.144C201.939 187.686 198.621 184.04 198.621 184.04H198.591Z" fill="url(#paint16_radial_480_4035)" fill-opacity="0.7"/>
<path d="M227.933 133.839C227.933 133.839 229.359 140.536 228.836 141.805C228.312 143.074 226.507 143.938 226.943 146.531C227.38 149.15 225.75 156.955 224.935 159.547C224.935 159.547 225.546 162.329 224.702 163.193C223.858 164.057 222.781 164.03 221.995 165.326C221.209 166.622 220.947 173.401 217.978 175.642C215.038 177.91 211.195 178.369 209.216 177.883C207.237 177.397 205.199 175.993 205.199 175.993L200.745 177.721C200.745 177.721 177.691 171.672 178.419 156.631V155.037C178.419 155.037 176.789 152.904 176.323 151.527C175.857 150.149 172.044 143.884 173.965 141.211C173.965 141.211 165.028 108.508 192.566 106.537C220.103 104.565 224.265 122.47 227.904 133.839H227.933Z" fill="#FCD1C5"/>
<path d="M178.419 156.657V156.468C179.583 155.82 180.689 155.442 181.592 155.577C184.735 156.09 184.008 150.041 184.008 150.041C184.008 150.041 184.59 151.148 186.191 158.899C187.792 166.649 205.17 176.02 205.17 176.02L200.716 177.748C200.716 177.748 177.662 171.699 178.39 156.657H178.419Z" fill="#E2B1A6"/>
<path d="M227.817 119.661C230.524 124.954 231.805 131.327 226.157 135.621C226.157 135.621 221.413 136.809 212.418 132.947C206.363 130.328 200.309 131.489 196.99 132.515C195.447 133.001 194.458 134.351 194.516 135.837L194.661 140.481C194.691 141.697 193.934 142.804 192.74 143.263L188.549 144.91L187.733 149.447C187.501 150.77 186.016 151.58 184.619 151.121L183.571 150.77C183.571 150.77 182.96 140.697 173.994 141.21C173.994 141.21 166.746 126.655 174.169 113.369C181.591 100.055 201.968 101 206.305 102.513C212.01 104.511 211.225 104.214 214.485 106.077C220.219 109.372 224.964 113.99 227.817 119.634V119.661Z" fill="#AA8383"/>
<path opacity="0.6" d="M154.52 222.225C154.52 222.225 158.682 250.742 160.4 258.816L173.877 265.405L149.95 264.055L154.52 222.225Z" fill="#020230"/>
<path d="M173.965 141.237C173.965 141.237 171.52 136.322 170.937 129.571C182.057 137.754 194.516 135.836 194.516 135.836L194.661 140.481C194.69 141.696 193.934 142.804 192.74 143.263L188.548 144.91L187.733 149.447C187.5 150.77 186.016 151.58 184.619 151.121L183.571 150.77C183.571 150.77 182.959 140.697 173.994 141.21L173.965 141.237Z" fill="#936D6D"/>
<path opacity="0.6" d="M167.997 166.271C167.997 166.271 175.129 189.009 176.614 193.383L182.348 192.816L181.3 199.999L212.214 237.806L177.894 201.269L179.262 194.869L174.052 195.382L167.997 166.297V166.271Z" fill="#020230"/>
<path d="M198.359 289.791C198.359 289.791 125.877 287.604 124.014 286.388C122.151 285.173 121.831 267.863 122.006 257.844C122.122 250.796 122.035 223.278 128.497 203.97C123.403 220.308 126.081 278.125 128.381 281.068C130.68 284.012 199.64 285.713 199.64 285.713C198.883 288.117 198.33 289.791 198.33 289.791H198.359Z" fill="#263649"/>
<path d="M340.789 235.997C340.789 235.997 341.051 237.698 344.224 239.346C347.368 240.993 355.431 244.693 356.741 245.773C358.051 246.826 363.873 251.579 364.047 252.2C364.222 252.821 365.968 258.195 365.939 258.519C365.939 258.843 365.357 261.328 365.357 261.328L367.162 269.267C367.162 269.267 369.432 272.346 366.958 273.183C364.484 274.02 363.087 271.643 363.028 271.265C363.028 271.265 359.303 269.618 356.537 267.647C353.801 265.675 342.798 257.466 340.935 257.952C339.072 258.438 340.789 261.409 341.692 261.895C342.594 262.408 348.416 267.701 345.971 271.373C343.525 275.046 341.924 269.294 340.323 268.133C338.722 266.972 335.229 262.354 333.075 261.787C330.95 261.22 327.05 253.82 326.555 250.499C326.06 247.204 323.498 245.071 322.596 243.991C321.694 242.91 324.575 234.701 324.575 234.701L335.462 231.568L339.275 233.864L340.789 235.997Z" fill="#FCD1C5"/>
<mask id="mask0_480_4035" style="mask-type:luminance" maskUnits="userSpaceOnUse" x="113" y="276" width="67" height="36">
<path d="M175.159 309.775L176.439 309.099C181.184 306.561 180.602 302.132 175.1 299.189L136.473 278.503C131 275.559 122.704 275.262 117.959 277.801L116.678 278.476C111.934 281.014 112.516 285.443 118.018 288.387L156.645 309.072C162.118 312.016 170.414 312.313 175.159 309.775Z" fill="white"/>
</mask>
<g mask="url(#mask0_480_4035)">
<path d="M133.852 192.654C136.122 189.306 137.17 191.79 140.227 194.545C144.36 198.271 149.542 204.023 152.22 211.315C157.081 224.574 155.334 257.709 153.704 262.435C153.704 262.435 199.085 269.321 202.229 269.213C205.373 269.078 198.329 289.818 198.329 289.818C198.329 289.818 125.847 287.63 123.984 286.415C122.121 285.2 121.801 267.89 121.975 257.871C122.121 249.283 121.975 210.073 133.823 192.681L133.852 192.654Z" fill="#334659"/>
<path d="M198.358 289.791C198.358 289.791 125.876 287.604 124.013 286.388C122.15 285.173 121.83 267.863 122.005 257.844C122.121 250.796 122.034 223.278 128.496 203.97C123.402 220.308 126.08 278.125 128.38 281.068C130.679 284.012 199.639 285.713 199.639 285.713C198.882 288.117 198.329 289.791 198.329 289.791H198.358Z" fill="#263649"/>
</g>
<path d="M113.506 282.419H113.535C113.68 280.934 114.728 279.557 116.708 278.477L117.989 277.801C122.733 275.263 131.03 275.587 136.502 278.504L175.13 299.189C178.041 300.756 179.554 302.727 179.642 304.617V310.855C179.642 312.476 178.594 314.015 176.44 315.176L175.159 315.851C170.414 318.39 162.118 318.066 156.645 315.149L118.018 294.463C115.194 292.951 113.68 291.061 113.506 289.225V282.419Z" fill="url(#paint17_radial_480_4035)"/>
<path d="M175.159 309.775L176.439 309.099C181.184 306.561 180.602 302.132 175.1 299.189L136.473 278.503C131 275.559 122.704 275.262 117.959 277.801L116.678 278.476C111.934 281.014 112.516 285.443 118.018 288.387L156.645 309.072C162.118 312.016 170.414 312.313 175.159 309.775Z" fill="url(#paint18_radial_480_4035)"/>
<path d="M244.992 486.197C246.564 486.197 248.019 485.846 249.3 485.144C252.356 483.523 254.016 480.256 254.016 475.962V379.366H249.504V475.962C249.504 478.662 248.601 480.688 247.029 481.525C245.457 482.362 243.129 482.065 240.596 480.715L153.88 434.267C147.826 431.026 142.732 422.817 142.732 416.335V319.739H138.22V416.335C138.22 424.383 144.1 433.862 151.639 437.885L238.355 484.333C240.655 485.549 242.896 486.17 244.963 486.17L244.992 486.197Z" fill="#16110D"/>
<path d="M244.992 486.197C246.564 486.197 248.019 485.846 249.3 485.144C252.356 483.523 254.016 480.256 254.016 475.962V379.366H249.504V475.962C249.504 478.662 248.601 480.688 247.029 481.525C245.457 482.362 243.129 482.065 240.596 480.715L153.88 434.267C147.826 431.026 142.732 422.817 142.732 416.335V319.739H138.22V416.335C138.22 424.383 144.1 433.862 151.639 437.885L238.355 484.333C240.655 485.549 242.896 486.17 244.963 486.17L244.992 486.197Z" fill="url(#paint19_radial_480_4035)" fill-opacity="0.7"/>
<path d="M466.511 371.831C468.083 371.831 469.538 371.48 470.848 370.778C473.905 369.158 475.564 365.89 475.564 361.597V265.001H471.052V361.597C471.052 364.297 470.15 366.323 468.578 367.16C467.006 367.997 464.677 367.7 462.145 366.35L375.429 319.901C369.374 316.661 364.28 308.451 364.28 301.97V205.374H359.768V301.97C359.768 310.018 365.648 319.496 373.187 323.52L459.903 369.968C462.203 371.183 464.444 371.805 466.54 371.805L466.511 371.831Z" fill="#16110D"/>
<path d="M466.511 371.831C468.083 371.831 469.538 371.48 470.848 370.778C473.905 369.158 475.564 365.89 475.564 361.597V265.001H471.052V361.597C471.052 364.297 470.15 366.323 468.578 367.16C467.006 367.997 464.677 367.7 462.145 366.35L375.429 319.901C369.374 316.661 364.28 308.451 364.28 301.97V205.374H359.768V301.97C359.768 310.018 365.648 319.496 373.187 323.52L459.903 369.968C462.203 371.183 464.444 371.805 466.54 371.805L466.511 371.831Z" fill="url(#paint20_radial_480_4035)" fill-opacity="0.7"/>
<path d="M472.147 299.613L474.373 303.254L252.872 419.798L250.646 416.157L472.147 299.613Z" fill="#16110D"/>
<path d="M472.147 299.613L474.373 303.254L252.872 419.798L250.646 416.157L472.147 299.613Z" fill="url(#paint21_radial_480_4035)" fill-opacity="0.7"/>
<path opacity="0.5" d="M251.163 400.645L487.47 274.047L360.584 206.103L124.247 332.674L251.163 400.645Z" fill="url(#paint22_linear_480_4035)"/>
<path d="M487.47 263.568V274.046L251.163 400.645L124.247 332.674V322.169L251.163 390.14L487.47 263.568Z" fill="#16110D"/>
<path d="M251.163 390.14L487.47 263.569L360.584 195.598L124.247 322.169L251.163 390.14Z" fill="url(#paint23_radial_480_4035)"/>
<path opacity="0.4" d="M237.307 291.546C237.307 291.546 228.225 294.544 221.297 293.49C214.369 292.437 180.951 291.816 180.951 291.816L186.191 289.008L197.893 281.446L226.915 283.256L238.122 286.982L237.307 291.573V291.546Z" fill="#020230"/>
<path d="M202.056 270.293C202.114 270.131 202.259 270.023 202.434 269.996C204.763 269.942 219.841 269.537 225.547 267.701C231.747 265.729 238.296 266.081 238.617 266.405C238.937 266.729 249.241 270.779 249.853 272.454C250.406 273.912 251.396 278.989 250.027 280.852C248.659 282.715 248.019 283.985 248.019 283.985L246.942 284.093C246.942 284.093 245.545 286.631 244.759 287.522C244.409 287.927 244.147 288.359 243.915 288.819C243.274 290.115 242.11 292.275 241.644 292.329C240.975 292.383 237.772 292.977 236.957 292.788C236.288 292.626 235.706 290.763 235.968 289.926C236.055 289.71 235.909 289.494 235.677 289.467C234.221 289.251 230.233 288.765 224.703 289.251C217.978 289.818 208.489 285.74 207.645 285.362C207.586 285.362 207.557 285.335 207.499 285.335L198.039 284.552C197.777 284.552 197.602 284.282 197.66 284.039L201.997 270.32L202.056 270.293Z" fill="#FCD1C5"/>
<path d="M133.853 192.654C136.123 189.306 137.171 191.79 140.228 194.545C144.361 198.271 149.543 204.023 152.221 211.315C157.082 224.574 155.335 257.709 153.705 262.435C153.705 262.435 199.086 269.321 202.23 269.213C205.374 269.078 198.33 289.818 198.33 289.818C198.33 289.818 125.848 287.63 123.985 286.415C122.122 285.2 121.802 267.89 121.976 257.871C122.122 249.283 121.976 210.073 133.824 192.681L133.853 192.654Z" fill="url(#paint24_radial_480_4035)"/>
<path opacity="0.6" d="M198.359 289.791C198.359 289.791 125.878 287.604 124.015 286.388C122.152 285.173 121.832 267.863 122.006 257.844C122.123 250.796 122.035 223.278 128.498 203.97C123.404 220.308 126.082 278.125 128.381 281.068C130.681 284.012 199.64 285.713 199.64 285.713C198.883 288.117 198.33 289.791 198.33 289.791H198.359Z" fill="#020230"/>
<path opacity="0.3" d="M328.301 255.36C328.301 255.36 302.394 236.565 298.668 234.755C294.972 232.946 293.4 231.569 293.4 231.569L302.074 226.924L316.745 232.514L335.229 249.5L363.669 268.214V272.562C363.669 272.562 340.207 263.218 337.558 261.625C334.909 260.032 328.272 255.387 328.272 255.387L328.301 255.36Z" fill="#180D5B"/>
<path opacity="0.63" d="M343.759 272.399C343.759 272.399 338.228 267.835 334.677 266.296C331.125 264.757 325.449 260.706 324.751 257.601C324.052 254.495 318.172 247.636 318.172 247.636L327.603 252.686L341.285 260.004L364.048 272.264C364.048 272.264 362.651 273.749 359.769 272.831C356.887 271.913 351.473 268.726 348.969 268.429C346.437 268.132 342.274 267.43 342.274 267.43L343.759 272.399Z" fill="#2D2D2D"/>
<path opacity="0.6" d="M392.7 287.547L297.775 338.397C296.727 338.964 295.156 339.018 294.253 338.532L237.607 308.206C236.705 307.72 236.821 306.883 237.869 306.316L332.794 255.466C333.842 254.899 335.413 254.845 336.316 255.331L392.962 285.657C393.864 286.143 393.748 286.98 392.7 287.547Z" fill="#020230"/>
<path d="M242.459 180.529C242.459 180.529 242.867 165.46 240.102 153.902C240.858 154.442 241.586 155.037 242.256 155.685C246.185 159.465 251.658 164.218 256.956 166.865C266.736 171.752 296.078 186.875 296.078 186.875L301.522 190.791C318.754 203.321 337.966 230.569 340.761 235.97C339.422 234.296 335.958 231.568 329.321 234.836C320.152 239.345 324.518 246.124 324.518 246.124C311.215 237.293 279.544 204.671 279.544 204.671C271.714 203.159 248.252 195.031 245.312 194.004C243.449 189.468 242.343 184.904 242.43 180.502L242.459 180.529Z" fill="url(#paint25_radial_480_4035)"/>
<path d="M340.789 235.997C340.789 235.997 341.051 237.698 344.224 239.346C347.368 240.993 355.431 244.693 356.741 245.773C358.051 246.826 363.873 251.579 364.047 252.2C364.222 252.821 365.968 258.195 365.939 258.519C365.939 258.843 365.357 261.328 365.357 261.328L367.162 269.267C367.162 269.267 369.432 272.346 366.958 273.183C364.484 274.02 363.087 271.643 363.028 271.265C363.028 271.265 359.303 269.618 356.537 267.647C353.801 265.675 342.798 257.466 340.935 257.952C339.072 258.438 340.789 261.409 341.692 261.895C342.594 262.408 348.416 267.701 345.971 271.373C343.525 275.046 341.924 269.294 340.323 268.133C338.722 266.972 335.229 262.354 333.075 261.787C330.95 261.22 327.05 253.82 326.555 250.499C326.06 247.204 323.498 245.071 322.596 243.991C321.694 242.91 324.575 234.701 324.575 234.701L335.462 231.568L339.275 233.864L340.789 235.997Z" fill="#FCD1C5"/>
<path opacity="0.5" d="M417.55 269.43L387.917 282.122L372.722 261.031L410.273 254.712L417.55 269.43Z" fill="#000028"/>
<path d="M403.315 231.19H434.636L431.726 262.651C431.726 264.406 430.474 266.135 428 267.485C423.022 270.158 414.959 270.158 409.981 267.485C407.478 266.162 406.255 264.406 406.255 262.651L403.344 231.19H403.315Z" fill="url(#paint26_radial_480_4035)"/>
<path opacity="0.4" d="M403.315 231.19H434.636L434.171 236.375C433.443 237.239 432.482 238.05 431.26 238.806C425.263 242.478 415.395 243.208 408.671 240.534L409.719 263.542C409.777 264.541 410.127 265.514 410.825 266.297C411.844 267.404 413.794 268.7 417.549 269.456C414.784 269.294 412.106 268.646 409.981 267.512C407.478 266.189 406.255 264.433 406.255 262.678L403.926 237.456L403.344 231.217L403.315 231.19Z" fill="#06033E"/>
<path opacity="0.4" d="M407.886 237.132C413.999 240.4 423.925 240.4 430.038 237.132C436.151 233.864 436.151 228.544 430.038 225.277C423.925 222.009 413.999 222.009 407.886 225.277C401.773 228.544 401.773 233.864 407.886 237.132Z" fill="#06033E"/>
<path opacity="0.4" d="M409.428 233.351C414.697 236.16 423.226 236.16 428.495 233.351C433.763 230.543 433.763 225.952 428.495 223.143C423.226 220.335 414.697 220.335 409.428 223.143C404.159 225.952 404.159 230.543 409.428 233.351Z" fill="#06033E"/>
<path d="M402.384 230.787C402.384 230.787 402.384 230.76 402.384 230.733L402.675 227.924C402.82 225.818 404.392 223.711 407.42 222.091C413.765 218.688 424.099 218.688 430.445 222.091C433.56 223.765 435.131 225.926 435.219 228.113L435.51 230.624C435.51 230.679 435.51 230.76 435.51 230.814V230.868C435.684 233.244 434.054 235.674 430.649 237.511C424.157 240.994 413.649 240.994 407.158 237.511C403.723 235.674 402.122 233.244 402.325 230.841L402.384 230.787Z" fill="#2C2723"/>
<path d="M402.384 230.787C402.384 230.787 402.384 230.76 402.384 230.733L402.675 227.924C402.82 225.818 404.392 223.711 407.42 222.091C413.765 218.688 424.099 218.688 430.445 222.091C433.56 223.765 435.131 225.926 435.219 228.113L435.51 230.624C435.51 230.679 435.51 230.76 435.51 230.814V230.868C435.684 233.244 434.054 235.674 430.649 237.511C424.157 240.994 413.649 240.994 407.158 237.511C403.723 235.674 402.122 233.244 402.325 230.841L402.384 230.787Z" fill="url(#paint27_radial_480_4035)" fill-opacity="0.7"/>
<path d="M409.428 233.351C414.697 236.16 423.226 236.16 428.495 233.351C433.763 230.543 433.763 225.952 428.495 223.143C423.226 220.335 414.697 220.335 409.428 223.143C404.159 225.952 404.159 230.543 409.428 233.351Z" fill="url(#paint28_linear_480_4035)"/>
<path d="M410.068 233.351C415.337 236.16 423.866 236.16 429.135 233.351C434.404 230.543 434.404 225.952 429.135 223.143C423.866 220.335 415.337 220.335 410.068 223.143C404.8 225.952 404.8 230.543 410.068 233.351Z" fill="url(#paint29_linear_480_4035)"/>
<path opacity="0.4" d="M426.894 224.196C421.625 221.388 413.096 221.388 407.827 224.196C407.769 224.223 407.711 224.277 407.653 224.304C408.147 223.872 408.759 223.494 409.428 223.116C414.697 220.308 423.226 220.308 428.495 223.116C433.705 225.898 433.763 230.38 428.669 233.216C432.046 230.407 431.464 226.627 426.894 224.196Z" fill="#06033E"/>
<path d="M428.495 224.386C423.226 221.577 414.697 221.577 409.428 224.386C407.1 225.628 405.79 227.221 405.528 228.868C405.207 226.816 406.488 224.71 409.428 223.143C414.697 220.335 423.226 220.335 428.495 223.143C431.435 224.71 432.716 226.816 432.395 228.868C432.133 227.221 430.824 225.628 428.495 224.386Z" fill="#16110D"/>
<path d="M428.495 224.386C423.226 221.577 414.697 221.577 409.428 224.386C407.1 225.628 405.79 227.221 405.528 228.868C405.207 226.816 406.488 224.71 409.428 223.143C414.697 220.335 423.226 220.335 428.495 223.143C431.435 224.71 432.716 226.816 432.395 228.868C432.133 227.221 430.824 225.628 428.495 224.386Z" fill="url(#paint30_radial_480_4035)" fill-opacity="0.7"/>
<path d="M407.361 222.144C413.707 218.688 424.07 218.58 430.474 221.955C436.878 225.331 436.936 230.867 430.59 234.323C424.245 237.807 413.882 237.888 407.478 234.512C401.074 231.137 401.015 225.601 407.361 222.144ZM409.428 233.351C411.175 234.296 413.329 234.917 415.57 235.214L415.803 234.458C415.89 234.161 416.21 233.945 416.531 233.945H421.363C421.712 233.945 422.003 234.161 422.09 234.458L422.323 235.214C424.565 234.89 426.69 234.269 428.465 233.351C433.734 230.543 433.734 225.952 428.465 223.143C423.197 220.335 414.668 220.335 409.399 223.143C404.13 225.952 404.13 230.543 409.399 233.351H409.428Z" fill="#16110D"/>
<path d="M407.361 222.144C413.707 218.688 424.07 218.58 430.474 221.955C436.878 225.331 436.936 230.867 430.59 234.323C424.245 237.807 413.882 237.888 407.478 234.512C401.074 231.137 401.015 225.601 407.361 222.144ZM409.428 233.351C411.175 234.296 413.329 234.917 415.57 235.214L415.803 234.458C415.89 234.161 416.21 233.945 416.531 233.945H421.363C421.712 233.945 422.003 234.161 422.09 234.458L422.323 235.214C424.565 234.89 426.69 234.269 428.465 233.351C433.734 230.543 433.734 225.952 428.465 223.143C423.197 220.335 414.668 220.335 409.399 223.143C404.13 225.952 404.13 230.543 409.399 233.351H409.428Z" fill="url(#paint31_radial_480_4035)" fill-opacity="0.7"/>
<path d="M409.429 222.576C414.697 219.768 423.226 219.768 428.495 222.576C431.261 224.061 432.57 226.006 432.425 227.95C432.308 226.195 430.999 224.439 428.495 223.116C423.226 220.308 414.697 220.308 409.429 223.116C406.925 224.466 405.615 226.195 405.499 227.95C405.353 226.006 406.663 224.061 409.429 222.576Z" fill="white"/>
<path d="M407.478 233.972C413.882 237.348 424.245 237.267 430.591 233.783C433.618 232.136 435.19 230.003 435.306 227.869C435.423 230.192 433.851 232.514 430.591 234.296C424.245 237.78 413.882 237.861 407.478 234.485C404.13 232.73 402.5 230.354 402.646 228.004C402.762 230.165 404.363 232.325 407.478 233.945V233.972Z" fill="white"/>
<path d="M417.52 234.89H420.402C420.611 234.89 420.781 235.047 420.781 235.241V235.268C420.781 235.462 420.611 235.619 420.402 235.619H417.52C417.311 235.619 417.142 235.462 417.142 235.268V235.241C417.142 235.047 417.311 234.89 417.52 234.89Z" fill="#0C0A78"/>
<path d="M417.52 234.89H420.402C420.606 234.89 420.781 235.052 420.781 235.241V235.295C420.781 235.295 420.781 235.349 420.781 235.376C420.751 235.241 420.606 235.133 420.431 235.133H417.549C417.375 235.133 417.258 235.241 417.2 235.376C417.2 235.349 417.2 235.322 417.2 235.295V235.241C417.2 235.052 417.375 234.89 417.579 234.89H417.52Z" fill="#E5BB44"/>
<path d="M417.52 234.89H420.402C420.606 234.89 420.781 235.052 420.781 235.241V235.295C420.781 235.295 420.781 235.349 420.781 235.376C420.751 235.241 420.606 235.133 420.431 235.133H417.549C417.375 235.133 417.258 235.241 417.2 235.376C417.2 235.349 417.2 235.322 417.2 235.295V235.241C417.2 235.052 417.375 234.89 417.579 234.89H417.52Z" fill="url(#paint32_radial_480_4035)" fill-opacity="0.7"/>
<path opacity="0.5" d="M417.928 235.376C417.928 235.376 409.166 232.649 412.718 223.332C416.269 213.989 423.168 211.153 420.373 203.673C420.373 203.673 424.74 209.722 420.664 217.904C416.589 226.087 415.687 225.142 415.745 229.057C415.803 233.702 419.849 235.376 419.849 235.376H417.928Z" fill="white"/>
<path opacity="0.5" d="M417.142 204.969C417.142 204.969 418.045 199.379 412.397 193.762C412.397 193.762 417.404 204.105 415.745 209.208C415.745 209.208 417.055 205.968 417.113 204.969H417.142Z" fill="white"/>
<path d="M30.0493 438.02C30.0493 438.02 27.4586 442.881 28.1572 446.041C28.8559 449.2 37.0937 460.083 39.5098 466.132C41.9258 472.208 54.268 481.174 61.196 481.174C68.1239 481.174 74.4989 478.5 71.1804 471.344C67.862 464.215 65.0675 461.541 62.3021 458.247C59.5659 454.979 54.2098 445.582 53.4239 441.693C52.6379 437.831 30.0493 437.993 30.0493 437.993V438.02Z" fill="url(#paint33_linear_480_4035)"/>
<path d="M63.9912 408.612C63.9912 408.612 62.8559 414.985 63.8747 417.253C64.8935 419.521 67.0767 421.601 73.2187 423.248C79.3898 424.895 85.0661 425.462 95.2543 431.106C105.472 436.75 119.386 439.127 123.577 432.943C127.769 426.786 113.244 417.523 107.946 415.12C102.619 412.689 94.3519 411.474 89.8982 407.747C85.4445 404.048 84.6877 404.912 84.6877 404.912L63.9912 408.612Z" fill="url(#paint34_linear_480_4035)"/>
<path d="M26.789 297.11C26.789 297.11 31.8249 339.129 30.3112 353.874C28.7976 368.727 18.6094 396.055 21.9569 414.473C25.3336 433.079 29.2633 440.64 29.2633 440.64C29.2633 440.64 42.9445 453.603 53.3947 442.018C53.3947 442.018 48.9993 434.537 49.6105 415.175C49.9016 405.318 50.1345 399.674 50.251 396.488C50.3383 394.084 51.0951 391.762 52.3759 389.736C55.607 384.659 62.2148 373.561 67.076 360.733C67.076 360.733 64.7182 387.981 64.8928 400.268C64.8928 402.186 64.7182 404.076 64.3397 405.939C64.0195 407.506 63.7867 409.531 64.1651 411.151C64.8928 414.338 77.0604 426.274 87.0157 416.687C87.0157 416.687 90.8581 414.284 90.043 406.776C89.4899 401.834 90.858 390.925 92.0224 382.175C92.9539 375.316 95.1953 368.754 98.5719 362.786C101.337 357.898 103.928 347.879 105.558 343.288C108.848 334.107 120.986 290.116 121.219 280.124C121.423 270.159 108.12 263.003 108.12 263.003C108.12 263.003 77.5843 276.856 78.1956 278.369C78.8069 279.881 39.9463 295.004 39.9463 295.004L26.8181 297.164L26.789 297.11Z" fill="url(#paint35_linear_480_4035)"/>
<path opacity="0.6" d="M108.091 262.948C108.091 262.948 77.5555 276.802 78.1668 278.314C78.7781 279.826 39.9174 294.949 39.9174 294.949L26.7893 297.109C26.7893 297.109 31.8251 339.129 30.3115 353.873C28.7978 368.699 18.6096 396.055 21.9572 414.472C25.3338 433.078 29.2635 440.64 29.2635 440.64C29.2635 440.64 31.4758 442.746 34.8233 444.501C33.0186 439.073 27.1094 419.927 27.2841 403.211C27.4879 383.687 36.6573 352.226 37.1521 342.072C37.4141 336.563 41.8678 332.189 47.3985 331.972C56.2767 331.621 69.2885 330.271 78.1958 325.599C75.3722 336.509 67.0762 360.706 67.0762 360.706C67.0762 360.706 64.5728 389.844 64.9221 401.429C64.9512 402.59 64.8348 403.778 64.5728 404.912C64.1653 406.56 63.7287 409.152 64.1653 411.151C64.4273 412.312 66.1738 414.58 68.7937 416.605C69.0848 404.615 71.5882 374.316 72.5488 367.349C73.5967 359.571 82.4749 328.381 82.4749 328.381C87.1032 325.005 89.4028 317.012 90.3052 312.988C94.264 305.103 94.8462 297.649 102.211 297.514C102.822 297.514 111.962 307.965 118.017 299.702C119.851 290.898 121.161 283.445 121.248 280.123C121.452 270.159 108.149 263.002 108.149 263.002L108.091 262.948Z" fill="#020230"/>
<path d="M119.676 281.527L118.017 286.874C118.017 286.874 115.368 287.225 111.788 283.445C108.207 279.664 111.613 276.072 111.613 276.072L118.425 277.477L119.676 281.554V281.527Z" fill="#E2B1A6"/>
<path d="M96.0107 136.376C96.0107 136.376 97.9027 136.268 102.211 138.402C106.519 140.535 111.962 146.179 115.019 159.654C118.104 173.238 130.971 208.506 131.989 215.041C132.95 221.279 130.592 263.164 126.371 280.933C126.051 282.31 124.567 283.12 123.169 282.661C119.531 281.5 112.836 279.178 109.022 276.45C103.637 272.588 104.598 242.343 104.598 242.343L108.266 203.51L102.327 171.726C102.327 171.726 93.8275 146.638 95.0792 144.991C96.3018 143.371 96.0397 136.322 96.0397 136.322L96.0107 136.376Z" fill="url(#paint36_radial_480_4035)"/>
<path d="M2.51262 175.048C2.51262 175.048 -3.39645 185.553 4.40478 199.515C12.2642 213.584 31.2142 242.398 31.2142 242.398C31.2142 242.398 25.0722 282.608 25.9455 292.465C26.7896 302.376 34.7364 313.853 36.7449 317.552C38.7825 321.252 55.2583 330.569 74.3539 321.684C93.3621 312.854 95.0213 300.755 96.9134 287.658C98.8055 274.642 98.1942 275.317 98.1942 275.317C98.1942 275.317 107.043 301.215 112.399 296.381C114.67 294.301 114.845 287.928 114.233 281.231C112.923 266.945 112.458 252.714 113.127 238.617C113.127 238.104 113.156 237.645 113.156 237.294C113.156 232.784 114.059 191.521 112.749 180.422C111.468 169.404 113.273 151.824 106.985 144.641C101.775 138.646 95.9528 136.35 95.9528 136.35L87.0745 135.945C87.0745 135.945 35.4059 132.003 30.9231 138.133C26.4112 144.29 24.8685 148.205 24.8685 148.205C24.8685 148.205 9.26598 163.355 2.48357 175.021L2.51262 175.048Z" fill="url(#paint37_radial_480_4035)"/>
<path d="M43.4682 131.273C43.4682 131.273 41.3142 132.353 40.4409 134.622C39.5677 136.89 37.0351 143.101 35.6379 144.829C35.6379 144.829 58.5176 164.894 67.0466 175.183C75.6337 185.526 78.3118 193.978 78.3118 193.978L90.1592 181.07L86.4914 177.289L84.4829 168.81L80.9898 159.196L78.4864 149.69L50.1342 134.757L43.4973 131.246L43.4682 131.273Z" fill="#F0F6FF"/>
<path d="M66.1454 158.575C66.1454 158.575 61.5462 161.438 59.9452 165.407C59.9452 165.407 64.2825 162.518 65.7088 162.275C65.7088 162.275 69.0273 165.245 69.6386 166.434C70.2498 167.622 69.6386 178.451 69.6386 178.451L71.2395 180.665L73.1025 180.854C73.1025 180.854 73.3063 173.077 73.5392 172.699C73.772 172.294 74.0922 166.109 73.9758 165.623C73.8593 165.137 67.7755 159.817 67.7755 159.817L65.6505 158.494L66.1163 158.548L66.1454 158.575Z" fill="#C4CCD6"/>
<path d="M78.1375 156.198C78.1375 156.198 75.1684 154.956 73.3346 155.334C71.4716 155.739 66.3775 158.089 65.5915 159.007C64.8347 159.925 65.7953 161.14 68.6771 163.193C71.5589 165.245 71.9082 166.541 71.9082 166.541C71.9082 166.541 70.2199 175.345 71.2096 180.665C71.2096 180.665 77.2934 190.684 78.5742 195.517C79.855 200.351 85.2983 179.963 85.2983 179.963C85.2983 179.963 83.4354 173.427 82.5621 171.78C81.6888 170.133 78.3413 161.329 79.2146 159.79C80.0878 158.251 78.1375 156.198 78.1375 156.198Z" fill="#E5BB44"/>
<path d="M78.1375 156.198C78.1375 156.198 75.1684 154.956 73.3346 155.334C71.4716 155.739 66.3775 158.089 65.5915 159.007C64.8347 159.925 65.7953 161.14 68.6771 163.193C71.5589 165.245 71.9082 166.541 71.9082 166.541C71.9082 166.541 70.2199 175.345 71.2096 180.665C71.2096 180.665 77.2934 190.684 78.5742 195.517C79.855 200.351 85.2983 179.963 85.2983 179.963C85.2983 179.963 83.4354 173.427 82.5621 171.78C81.6888 170.133 78.3413 161.329 79.2146 159.79C80.0878 158.251 78.1375 156.198 78.1375 156.198Z" fill="url(#paint38_radial_480_4035)" fill-opacity="0.7"/>
<path opacity="0.6" d="M26.5859 149.528L30.4865 157.063L37.3562 156.712L36.5411 163.328C36.5411 163.328 64.777 180.773 75.5474 198.947L74.8778 200.891C74.8778 200.891 62.2445 181.502 34.9402 165.488L34.0087 164.975L35.4059 158.575L29.3221 159.628L26.6441 149.528H26.5859Z" fill="#020230"/>
<path d="M73.1602 151.553C73.1602 151.553 71.9086 154.848 68.2699 155.091C64.6313 155.361 44.9827 148.286 42.0718 137.619C42.0718 137.619 43.2652 132.488 43.3816 131.57C43.3816 131.57 41.9844 130.516 41.7224 128.923C41.4604 127.33 39.8594 123.738 39.3937 122.604C38.928 121.47 37.9091 119.228 38.4913 117.608C38.4913 117.608 32.6113 87.8489 50.2223 82.745C67.775 77.6411 80.6122 82.583 86.3758 99.4609C86.3758 99.4609 87.773 104.025 88.9083 107.373C89.6069 109.507 89.665 111.775 89.0246 113.936C88.6462 115.124 88.3552 116.42 88.4425 117.284C88.6463 119.363 89.7233 124.035 88.7918 129.841C88.7918 129.841 90.189 133.001 87.8894 134.162C85.5607 135.323 86.0555 144.721 86.0555 144.721L79.506 150.932C79.506 150.932 78.1088 152.309 73.1602 151.553Z" fill="#FCD1C5"/>
<path d="M38.3462 119.283C38.3462 119.283 25.742 92.7641 46.031 82.0162C61.9537 73.5908 80.9619 78.3706 86.7255 97.49C86.7255 97.49 88.9378 101.73 81.8061 104.079C74.6743 106.429 65.505 109.048 61.3424 108.967C57.1798 108.886 55.084 111.046 54.9966 116.15C54.9675 119.013 54.5891 120.174 54.2398 120.633C53.9196 121.092 53.8031 121.659 53.8322 122.199V123.172C53.8904 123.793 53.4247 124.468 52.7843 124.657C51.7655 124.954 50.6594 124.657 50.6303 124.468C50.1936 121.308 48.3306 118.5 45.507 116.798C42.4215 114.935 38.812 113.99 38.3462 119.337V119.283Z" fill="#AA8383"/>
<path opacity="0.6" d="M82.5623 171.78C81.689 170.133 78.3415 161.329 79.2148 159.79C80.0881 158.251 78.1378 156.198 78.1378 156.198C78.1378 156.198 75.1687 154.956 73.3348 155.334C73.1601 155.361 72.9272 155.442 72.6653 155.523C72.6653 155.577 72.6653 155.631 72.6653 155.631C72.6653 155.631 75.1395 159.682 75.6635 160.681C76.2166 161.68 78.4871 171.996 79.7388 174.319C80.9905 176.641 83.3192 184.688 83.3192 184.688L84.0469 184.31C84.7746 181.853 85.2695 179.963 85.2695 179.963C85.2695 179.963 83.4065 173.427 82.5333 171.78H82.5623Z" fill="#E7AA39"/>
<path d="M80.6997 145.288C80.6997 145.288 77.6142 149.582 77.3522 151.688C78.9532 151.472 79.4771 150.932 79.4771 150.932L82.0679 148.475C81.3401 146.8 80.6706 145.288 80.6706 145.288H80.6997Z" fill="#E2B1A6"/>
<path d="M101.425 184.851C101.425 184.851 104.977 179.774 104.802 175.48C104.627 171.186 103.434 166.136 103.434 166.136C103.434 166.136 106.054 166.217 105.908 162.626C105.763 159.061 104.657 155.685 103.347 154.767C102.037 153.876 100.669 154.092 100.669 154.092C100.669 154.092 99.708 151.176 96.9135 151.608C96.9135 151.608 96.7971 149.744 94.4392 148.259C92.0814 146.774 90.5677 149.015 90.5677 149.015C90.5677 149.015 89.6071 145.883 88.6756 145.37C87.7441 144.83 86.0267 144.695 86.0267 144.695C86.0267 144.695 81.4857 144.127 80.6997 145.262C79.8847 146.369 77.6724 158.467 77.847 159.088C78.0217 159.709 79.0987 165.893 79.7682 167.865C80.4377 169.836 85.6483 174.886 86.4634 177.289C87.2784 179.693 95.5744 187.47 95.6618 187.47C95.7491 187.47 101.396 184.851 101.396 184.851H101.425Z" fill="#FCD1C5"/>
<path opacity="0.6" d="M98.2229 275.316C98.2229 275.316 97.99 233.351 90.4799 214.771L94.3806 220.767C94.3806 220.767 100.639 245.368 99.2999 278.26L98.2229 275.316Z" fill="#020230"/>
<path opacity="0.6" d="M97.0293 209.533C97.0293 209.533 63.3211 237.591 63.1756 237.942C63.03 238.293 13.923 209.776 13.923 209.776L12.4093 212.962C20.9674 226.789 31.2138 242.398 31.2138 242.398C31.2138 242.398 30.486 247.259 29.5545 254.01C29.5545 254.01 53.8315 278.044 68.9682 274.965C82.0091 272.319 95.9524 232.109 99.4746 221.307C100.028 219.579 99.9986 217.715 99.3873 215.987L97.0585 209.506L97.0293 209.533Z" fill="#020230"/>
<path d="M103.433 180.638C98.572 177.964 89.8393 177.208 89.8393 177.208L100.027 185.498C100.813 185.12 101.396 184.85 101.396 184.85C101.396 184.85 102.618 183.095 103.608 180.746C103.55 180.692 103.491 180.665 103.404 180.611L103.433 180.638Z" fill="#E2B1A6"/>
<path d="M41.1986 192.249C36.0754 186.2 29.0309 181.447 22.1612 177.316C15.9901 173.616 9.2659 170.781 5.62727 173.13C-2.29041 178.207 -0.602058 187.524 3.09479 196.894C6.82076 206.292 40.8202 259.221 64.6023 258.033C64.6023 258.033 81.7766 241.533 89.6651 228.598C96.2729 217.769 107.102 199.028 110.304 193.438C110.857 192.492 110.624 191.304 109.78 190.575C105.151 186.659 90.8586 175.074 86.6087 177.019C86.6087 177.019 76.9154 199.757 67.1929 210.937L59.5955 217.661C59.5955 217.661 53.2206 206.886 48.243 200.648C46.4382 198.406 43.7311 195.166 41.2277 192.195L41.1986 192.249Z" fill="url(#paint39_radial_480_4035)"/>
<path d="M68.2699 155.118C71.9085 154.848 73.1602 151.581 73.1602 151.581C73.1602 151.581 52.9294 144.073 50.8044 132.65C50.8044 132.65 50.6298 144.722 55.9858 151.068C61.3419 153.768 66.5815 155.253 68.2699 155.145V155.118Z" fill="#E2B1A6"/>
<path d="M50.6299 124.414C50.659 124.63 51.7942 124.9 52.7839 124.63C53.4243 124.441 53.9192 123.765 53.8901 123.144V122.172C53.8318 121.632 53.9483 121.065 54.2685 120.606C54.5887 120.147 54.967 118.986 55.0253 116.123C55.0544 113.828 55.5201 112.153 56.3643 110.992C56.3643 110.992 44.9827 111.775 35.7551 111.613C36.1044 112.856 36.3082 114.044 36.6866 115.151C37.4725 117.5 38.404 119.283 38.404 119.283C38.8698 113.936 42.4793 114.881 45.5648 116.744C48.3884 118.445 50.2514 121.254 50.688 124.414H50.6299Z" fill="#936D6D"/>
<path d="M67.0472 360.706C67.0472 360.706 67.0472 360.814 67.0472 361.003C67.0767 360.895 67.0767 360.787 67.0472 360.706Z" fill="#1E262D"/>
<path opacity="0.6" d="M49.3782 445.258C50.7464 444.502 52.0854 443.449 53.3662 442.018C53.3662 442.018 48.9707 434.537 49.582 415.175C49.8731 405.345 50.106 399.701 50.2224 396.515C50.3389 394.084 51.0666 391.762 52.3474 389.709C55.433 384.876 61.5459 374.614 66.3197 362.597C66.3197 362.516 66.3779 362.435 66.3779 362.354C62.9431 367.917 47.4861 385.092 45.4485 398.216C43.4691 411.097 47.8646 437.184 49.3782 445.258Z" fill="#020230"/>
<path d="M66.3772 362.326C66.3772 362.326 66.4354 362.218 66.4645 362.164C66.6683 361.678 66.8429 361.192 67.0176 360.706C66.9594 360.355 66.6974 360.976 66.3481 362.326H66.3772Z" fill="#1E262D"/>
<path opacity="0.6" d="M103.55 228.274C103.812 230.165 102.764 231.866 101.221 232.028C99.6786 232.19 98.2232 230.786 97.9903 228.896C97.7575 227.005 98.7762 225.304 100.319 225.142C101.862 224.98 103.288 226.357 103.55 228.274Z" fill="#020230"/>
<path opacity="0.6" d="M105.5 251.228C105.529 253.172 104.307 254.766 102.764 254.766C101.192 254.766 99.9111 253.226 99.882 251.282C99.8528 249.338 101.075 247.771 102.618 247.744C104.161 247.717 105.471 249.284 105.5 251.228Z" fill="#020230"/>
<path opacity="0.6" d="M107.567 188.739C107.567 188.739 76.6826 250.634 62.6229 253.092C48.5341 255.549 10.634 210.046 10.634 210.046C10.634 210.046 10.6341 210.1 10.6923 210.208C22.8308 228.922 46.6711 258.925 64.6023 258.034C64.6023 258.034 81.7766 241.534 89.6651 228.598C96.2729 217.769 107.102 199.028 110.304 193.438C110.857 192.493 110.624 191.305 109.78 190.576C109.197 190.063 108.441 189.441 107.567 188.739Z" fill="#020230"/>
<path opacity="0.6" d="M59.5952 217.688C59.5952 217.688 55.6946 223.44 54.2392 227.14L58.8966 216.5L59.5952 217.688Z" fill="#020230"/>
<path opacity="0.5" d="M175.886 334.862L160.371 341.505L131.99 326.301L168.638 320.117L175.886 334.862Z" fill="#000028"/>
<path d="M161.681 296.624H193.002L190.092 328.085C190.092 329.84 188.84 331.568 186.366 332.918C181.388 335.592 173.325 335.592 168.347 332.918C165.844 331.595 164.621 329.84 164.621 328.085L161.71 296.624H161.681Z" fill="url(#paint40_radial_480_4035)"/>
<path opacity="0.4" d="M161.681 296.624H193.002L192.537 301.809C191.809 302.673 190.848 303.483 189.626 304.239C183.629 307.912 173.761 308.641 167.037 305.968L168.085 328.976C168.143 329.975 168.493 330.947 169.191 331.73C170.21 332.837 172.16 334.134 175.915 334.89C173.15 334.728 170.472 334.08 168.347 332.945C165.844 331.622 164.621 329.867 164.621 328.112L162.292 302.889L161.71 296.651L161.681 296.624Z" fill="#06033E"/>
<path opacity="0.4" d="M166.252 302.538C172.364 305.806 182.291 305.806 188.404 302.538C194.517 299.271 194.517 293.951 188.404 290.683C182.291 287.416 172.364 287.416 166.252 290.683C160.139 293.951 160.139 299.271 166.252 302.538Z" fill="#06033E"/>
<path opacity="0.4" d="M167.794 298.758C173.063 301.566 181.592 301.566 186.86 298.758C192.129 295.949 192.129 291.358 186.86 288.55C181.592 285.741 173.063 285.741 167.794 288.55C162.525 291.358 162.525 295.949 167.794 298.758Z" fill="#06033E"/>
<path d="M160.749 296.219V296.192L161.04 293.357C161.186 291.25 162.758 289.144 165.785 287.524C172.131 284.121 182.465 284.121 188.81 287.524C191.925 289.198 193.497 291.358 193.584 293.546L193.876 296.057C193.876 296.111 193.876 296.192 193.876 296.246V296.3C194.05 298.677 192.42 301.107 189.014 302.943C182.523 306.427 172.015 306.427 165.523 302.943C162.088 301.107 160.487 298.677 160.691 296.273L160.749 296.219Z" fill="#1D1B19"/>
<path d="M160.749 296.219V296.192L161.04 293.357C161.186 291.25 162.758 289.144 165.785 287.524C172.131 284.121 182.465 284.121 188.81 287.524C191.925 289.198 193.497 291.358 193.584 293.546L193.876 296.057C193.876 296.111 193.876 296.192 193.876 296.246V296.3C194.05 298.677 192.42 301.107 189.014 302.943C182.523 306.427 172.015 306.427 165.523 302.943C162.088 301.107 160.487 298.677 160.691 296.273L160.749 296.219Z" fill="url(#paint41_radial_480_4035)" fill-opacity="0.7"/>
<path d="M167.794 298.758C173.063 301.566 181.592 301.566 186.86 298.758C192.129 295.949 192.129 291.358 186.86 288.55C181.592 285.741 173.063 285.741 167.794 288.55C162.525 291.358 162.525 295.949 167.794 298.758Z" fill="url(#paint42_linear_480_4035)"/>
<path d="M168.434 298.758C173.703 301.566 182.232 301.566 187.501 298.758C192.769 295.949 192.769 291.358 187.501 288.55C182.232 285.741 173.703 285.741 168.434 288.55C163.165 291.358 163.165 295.949 168.434 298.758Z" fill="url(#paint43_linear_480_4035)"/>
<path opacity="0.4" d="M185.259 289.63C179.991 286.821 171.462 286.821 166.193 289.63C166.135 289.657 166.077 289.711 166.018 289.738C166.513 289.306 167.125 288.928 167.794 288.55C173.063 285.741 181.592 285.741 186.86 288.55C192.071 291.331 192.129 295.814 187.035 298.649C190.412 295.841 189.83 292.06 185.259 289.63Z" fill="#16110D"/>
<path d="M186.861 289.792C181.592 286.983 173.063 286.983 167.794 289.792C165.465 291.034 164.155 292.627 163.893 294.275C163.573 292.222 164.854 290.116 167.794 288.55C173.063 285.741 181.592 285.741 186.861 288.55C189.801 290.116 191.081 292.222 190.761 294.275C190.499 292.627 189.189 291.034 186.861 289.792Z" fill="#16110D"/>
<path d="M186.861 289.792C181.592 286.983 173.063 286.983 167.794 289.792C165.465 291.034 164.155 292.627 163.893 294.275C163.573 292.222 164.854 290.116 167.794 288.55C173.063 285.741 181.592 285.741 186.861 288.55C189.801 290.116 191.081 292.222 190.761 294.275C190.499 292.627 189.189 291.034 186.861 289.792Z" fill="url(#paint44_radial_480_4035)" fill-opacity="0.7"/>
<path d="M165.727 287.55C172.073 284.094 182.436 283.986 188.84 287.361C195.244 290.737 195.302 296.273 188.957 299.73C182.611 303.213 172.248 303.294 165.844 299.919C159.44 296.543 159.382 291.007 165.727 287.55ZM167.794 298.757C169.541 299.703 171.695 300.324 173.936 300.621L174.169 299.865C174.256 299.567 174.577 299.351 174.897 299.351H179.729C180.078 299.351 180.369 299.567 180.457 299.865L180.69 300.621C182.931 300.297 185.056 299.676 186.832 298.757C192.1 295.949 192.1 291.358 186.832 288.55C181.563 285.741 173.034 285.741 167.765 288.55C162.496 291.358 162.496 295.949 167.765 298.757H167.794Z" fill="#16110D"/>
<path d="M165.727 287.55C172.073 284.094 182.436 283.986 188.84 287.361C195.244 290.737 195.302 296.273 188.957 299.73C182.611 303.213 172.248 303.294 165.844 299.919C159.44 296.543 159.382 291.007 165.727 287.55ZM167.794 298.757C169.541 299.703 171.695 300.324 173.936 300.621L174.169 299.865C174.256 299.567 174.577 299.351 174.897 299.351H179.729C180.078 299.351 180.369 299.567 180.457 299.865L180.69 300.621C182.931 300.297 185.056 299.676 186.832 298.757C192.1 295.949 192.1 291.358 186.832 288.55C181.563 285.741 173.034 285.741 167.765 288.55C162.496 291.358 162.496 295.949 167.765 298.757H167.794Z" fill="url(#paint45_radial_480_4035)" fill-opacity="0.7"/>
<path d="M167.794 288.01C173.063 285.201 181.592 285.201 186.861 288.01C189.626 289.495 190.936 291.439 190.79 293.384C190.674 291.628 189.364 289.873 186.861 288.55C181.592 285.741 173.063 285.741 167.794 288.55C165.291 289.9 163.981 291.628 163.864 293.384C163.719 291.439 165.029 289.495 167.794 288.01Z" fill="white"/>
<path d="M165.844 299.406C172.248 302.781 182.611 302.7 188.957 299.217C191.984 297.569 193.556 295.436 193.673 293.303C193.789 295.598 192.217 297.948 188.957 299.73C182.611 303.214 172.248 303.294 165.844 299.919C162.497 298.164 160.867 295.787 161.012 293.438C161.129 295.598 162.73 297.759 165.844 299.379V299.406Z" fill="white"/>
<path d="M175.886 300.296H178.768C178.977 300.296 179.146 300.453 179.146 300.647V300.674C179.146 300.868 178.977 301.025 178.768 301.025H175.886C175.677 301.025 175.508 300.868 175.508 300.674V300.647C175.508 300.453 175.677 300.296 175.886 300.296Z" fill="#16110D"/>
<path d="M175.886 300.296H178.768C178.972 300.296 179.146 300.458 179.146 300.647V300.701C179.146 300.701 179.146 300.755 179.146 300.782C179.117 300.647 178.972 300.539 178.797 300.539H175.915C175.741 300.539 175.624 300.647 175.566 300.782C175.566 300.755 175.566 300.728 175.566 300.701V300.647C175.566 300.458 175.741 300.296 175.944 300.296H175.886Z" fill="#E5BB44"/>
<path d="M175.886 300.296H178.768C178.972 300.296 179.146 300.458 179.146 300.647V300.701C179.146 300.701 179.146 300.755 179.146 300.782C179.117 300.647 178.972 300.539 178.797 300.539H175.915C175.741 300.539 175.624 300.647 175.566 300.782C175.566 300.755 175.566 300.728 175.566 300.701V300.647C175.566 300.458 175.741 300.296 175.944 300.296H175.886Z" fill="url(#paint46_radial_480_4035)" fill-opacity="0.7"/>
<defs>
<radialGradient id="paint0_radial_480_4035" cx="0" cy="0" r="1" gradientUnits="userSpaceOnUse" gradientTransform="translate(245.883 327.442) rotate(133.269) scale(28.4322 31.105)">
<stop stop-color="white"/>
<stop offset="0.719012" stop-color="white" stop-opacity="0"/>
<stop offset="1" stop-color="white" stop-opacity="0"/>
</radialGradient>
<linearGradient id="paint1_linear_480_4035" x1="203.366" y1="346.987" x2="270.876" y2="311.911" gradientUnits="userSpaceOnUse">
<stop stop-color="#16110D"/>
<stop offset="1" stop-color="#16110D"/>
</linearGradient>
<linearGradient id="paint2_linear_480_4035" x1="142.47" y1="287.55" x2="287.42" y2="242.669" gradientUnits="userSpaceOnUse">
<stop stop-color="#16110D"/>
<stop offset="1" stop-color="#16110D"/>
</linearGradient>
<radialGradient id="paint3_radial_480_4035" cx="0" cy="0" r="1" gradientUnits="userSpaceOnUse" gradientTransform="translate(271.946 55.1195) rotate(180) scale(304.044 282.065)">
<stop stop-color="#16110D"/>
<stop offset="0.47" stop-color="#5B5B5B"/>
<stop offset="0.59" stop-color="#373639"/>
<stop offset="0.73" stop-color="#3B3A3E"/>
<stop offset="1" stop-color="#3E3D40"/>
</radialGradient>
<radialGradient id="paint4_radial_480_4035" cx="0" cy="0" r="1" gradientUnits="userSpaceOnUse" gradientTransform="translate(285.715 82.556) rotate(180) scale(314.232 291.517)">
<stop stop-color="#504E4C"/>
<stop offset="0.47" stop-color="#303030"/>
<stop offset="0.59" stop-color="#060606"/>
<stop offset="0.73" stop-color="#242425"/>
<stop offset="1" stop-color="#121212"/>
</radialGradient>
<radialGradient id="paint5_radial_480_4035" cx="0" cy="0" r="1" gradientUnits="userSpaceOnUse" gradientTransform="translate(274.653 80.0716) rotate(180) scale(205.044 190.222)">
<stop/>
<stop offset="0.47" stop-color="#403E41"/>
<stop offset="0.59" stop-color="#3C3B3D"/>
<stop offset="0.73" stop-color="#383739"/>
<stop offset="1" stop-color="#39383E"/>
</radialGradient>
<radialGradient id="paint6_radial_480_4035" cx="0" cy="0" r="1" gradientUnits="userSpaceOnUse" gradientTransform="translate(223.511 85.6997) rotate(102.523) scale(30.5882 14.1929)">
<stop stop-color="white"/>
<stop offset="0.719012" stop-color="white" stop-opacity="0"/>
<stop offset="1" stop-color="white" stop-opacity="0"/>
</radialGradient>
<linearGradient id="paint7_linear_480_4035" x1="211.807" y1="356.06" x2="244.936" y2="321.572" gradientUnits="userSpaceOnUse">
<stop stop-color="#5761D7"/>
<stop offset="0.18" stop-color="#5B65D8"/>
<stop offset="0.39" stop-color="#6A72DE"/>
<stop offset="0.61" stop-color="#8188E8"/>
<stop offset="0.85" stop-color="#A2A6F5"/>
<stop offset="1" stop-color="#BCBEFF"/>
</linearGradient>
<radialGradient id="paint8_radial_480_4035" cx="0" cy="0" r="1" gradientUnits="userSpaceOnUse" gradientTransform="translate(304 277) rotate(160.698) scale(236.568 219.467)">
<stop stop-color="#16110D"/>
<stop offset="0.4" stop-color="#23201D"/>
<stop offset="0.55" stop-color="#3D3C3F"/>
<stop offset="0.73" stop-color="#403E44"/>
<stop offset="1" stop-color="#525157"/>
</radialGradient>
<radialGradient id="paint9_radial_480_4035" cx="0" cy="0" r="1" gradientUnits="userSpaceOnUse" gradientTransform="translate(303.966 204.698) rotate(180) scale(51.0282 47.3394)">
<stop/>
<stop offset="0.55" stop-color="#292829"/>
<stop offset="0.73" stop-color="#1E1E1E"/>
<stop offset="1" stop-color="#6A6970"/>
</radialGradient>
<linearGradient id="paint10_linear_480_4035" x1="577.912" y1="84.5811" x2="10.2847" y2="84.5811" gradientUnits="userSpaceOnUse">
<stop stop-color="#D8D8D8"/>
<stop offset="1" stop-color="#232323"/>
</linearGradient>
<radialGradient id="paint11_radial_480_4035" cx="0" cy="0" r="1" gradientUnits="userSpaceOnUse" gradientTransform="translate(389.954 141.102) rotate(180) scale(517.792 480.361)">
<stop stop-color="#16110D"/>
<stop offset="0.28" stop-color="#2A292B"/>
<stop offset="0.33" stop-color="#49474A"/>
<stop offset="0.4" stop-color="#3F3F41"/>
<stop offset="0.54" stop-color="#393939"/>
</radialGradient>
<linearGradient id="paint12_linear_480_4035" x1="261.67" y1="386.306" x2="315.098" y2="365.753" gradientUnits="userSpaceOnUse">
<stop/>
<stop offset="1" stop-color="#19171D"/>
</linearGradient>
<linearGradient id="paint13_linear_480_4035" x1="206.451" y1="415.444" x2="245.57" y2="396.944" gradientUnits="userSpaceOnUse">
<stop stop-color="#19181A"/>
<stop offset="1" stop-color="#030109"/>
</linearGradient>
<radialGradient id="paint14_radial_480_4035" cx="0" cy="0" r="1" gradientUnits="userSpaceOnUse" gradientTransform="translate(376.913 340.02) rotate(180) scale(158.761 147.284)">
<stop stop-color="#16110D"/>
<stop offset="0.47" stop-color="#1D1D1E"/>
<stop offset="0.59" stop-color="#1E1C20"/>
<stop offset="0.73" stop-color="#151415"/>
<stop offset="0.89" stop-color="#1C1C1D"/>
<stop offset="0.915" stop-color="#2D2C2F"/>
<stop offset="1" stop-color="#393939"/>
</radialGradient>
<radialGradient id="paint15_radial_480_4035" cx="0" cy="0" r="1" gradientUnits="userSpaceOnUse" gradientTransform="translate(230.5 230.5) rotate(-156.498) scale(204.331 189.56)">
<stop stop-color="#16110D"/>
<stop offset="0.47" stop-color="#29272B"/>
<stop offset="0.59" stop-color="#3C3C3D"/>
<stop offset="0.73" stop-color="#4D4C50"/>
<stop offset="1" stop-color="#1B1A1C"/>
</radialGradient>
<radialGradient id="paint16_radial_480_4035" cx="0" cy="0" r="1" gradientUnits="userSpaceOnUse" gradientTransform="translate(210.529 186.931) rotate(100.992) scale(37.7383 15.4833)">
<stop stop-color="white"/>
<stop offset="0.719012" stop-color="white" stop-opacity="0"/>
<stop offset="1" stop-color="white" stop-opacity="0"/>
</radialGradient>
<radialGradient id="paint17_radial_480_4035" cx="0" cy="0" r="1" gradientUnits="userSpaceOnUse" gradientTransform="translate(167.445 267.891) rotate(180) scale(83.2228 77.2067)">
<stop stop-color="#7B7B7B"/>
<stop offset="0.28" stop-color="#838086"/>
<stop offset="0.33" stop-color="#6A6A6A"/>
<stop offset="0.4" stop-color="#87838C"/>
<stop offset="0.54" stop-color="#7C7C7D"/>
</radialGradient>
<radialGradient id="paint18_radial_480_4035" cx="0" cy="0" r="1" gradientUnits="userSpaceOnUse" gradientTransform="translate(179.903 263.569) rotate(180) scale(54.6377 50.688)">
<stop stop-color="#16110D"/>
<stop offset="0.4" stop-color="#16110D"/>
<stop offset="0.55" stop-color="#16110D"/>
<stop offset="0.73" stop-color="#5B5A5E"/>
<stop offset="1" stop-color="#5E5E62"/>
</radialGradient>
<radialGradient id="paint19_radial_480_4035" cx="0" cy="0" r="1" gradientUnits="userSpaceOnUse" gradientTransform="translate(212.287 347.482) rotate(112.079) scale(118.772 90.6838)">
<stop stop-color="white"/>
<stop offset="0.719012" stop-color="white" stop-opacity="0"/>
<stop offset="1" stop-color="white" stop-opacity="0"/>
</radialGradient>
<radialGradient id="paint20_radial_480_4035" cx="0" cy="0" r="1" gradientUnits="userSpaceOnUse" gradientTransform="translate(433.836 233.117) rotate(112.079) scale(118.772 90.6838)">
<stop stop-color="white"/>
<stop offset="0.719012" stop-color="white" stop-opacity="0"/>
<stop offset="1" stop-color="white" stop-opacity="0"/>
</radialGradient>
<radialGradient id="paint21_radial_480_4035" cx="0" cy="0" r="1" gradientUnits="userSpaceOnUse" gradientTransform="translate(436.654 321.366) rotate(152.817) scale(165.607 3.59653)">
<stop stop-color="white"/>
<stop offset="0.719012" stop-color="white" stop-opacity="0"/>
<stop offset="1" stop-color="white" stop-opacity="0"/>
</radialGradient>
<linearGradient id="paint22_linear_480_4035" x1="487.47" y1="303.374" x2="124.247" y2="303.374" gradientUnits="userSpaceOnUse">
<stop stop-color="#0E0F0F"/>
<stop offset="0.15" stop-color="#404343"/>
<stop offset="0.33" stop-color="#131313"/>
<stop offset="0.52"/>
<stop offset="0.72" stop-color="#1F2021"/>
<stop offset="0.93" stop-color="#18191A"/>
<stop offset="1" stop-color="#01031C"/>
</linearGradient>
<radialGradient id="paint23_radial_480_4035" cx="0" cy="0" r="1" gradientUnits="userSpaceOnUse" gradientTransform="translate(507.293 240.804) rotate(180) scale(405.344 376.041)">
<stop stop-color="#727272"/>
<stop offset="0.4" stop-color="#312F2D"/>
<stop offset="0.55" stop-color="#37322E"/>
<stop offset="0.73" stop-color="#2E2E2E"/>
<stop offset="1" stop-color="#5F5F5F"/>
</radialGradient>
<radialGradient id="paint24_radial_480_4035" cx="0" cy="0" r="1" gradientUnits="userSpaceOnUse" gradientTransform="translate(336.889 176.965) rotate(180) scale(313.039 290.41)">
<stop stop-color="#16110D"/>
<stop offset="0.47" stop-color="#16110D"/>
<stop offset="0.59" stop-color="#363534"/>
<stop offset="0.73" stop-color="#333235"/>
<stop offset="0.86" stop-color="#4A494A"/>
<stop offset="1" stop-color="#454547"/>
</radialGradient>
<radialGradient id="paint25_radial_480_4035" cx="0" cy="0" r="1" gradientUnits="userSpaceOnUse" gradientTransform="translate(253.084 143.614) rotate(180) scale(206.354 191.437)">
<stop stop-color="#16110D"/>
<stop offset="0.47" stop-color="#323132"/>
<stop offset="0.59" stop-color="#333334"/>
<stop offset="0.73" stop-color="#302F31"/>
<stop offset="1" stop-color="#353535"/>
</radialGradient>
<radialGradient id="paint26_radial_480_4035" cx="0" cy="0" r="1" gradientUnits="userSpaceOnUse" gradientTransform="translate(437.198 240.426) rotate(180) scale(92.5669 85.8752)">
<stop stop-color="#E39A65"/>
<stop offset="0.15" stop-color="#16110D"/>
<stop offset="0.41" stop-color="#16110D"/>
<stop offset="0.93" stop-color="#F4DB5D"/>
</radialGradient>
<radialGradient id="paint27_radial_480_4035" cx="0" cy="0" r="1" gradientUnits="userSpaceOnUse" gradientTransform="translate(423.553 222.97) rotate(133.255) scale(18.6875 20.4436)">
<stop stop-color="white"/>
<stop offset="0.719012" stop-color="white" stop-opacity="0"/>
<stop offset="1" stop-color="white" stop-opacity="0"/>
</radialGradient>
<linearGradient id="paint28_linear_480_4035" x1="432.454" y1="228.22" x2="405.469" y2="228.22" gradientUnits="userSpaceOnUse">
<stop stop-color="#16110D"/>
<stop offset="1" stop-color="#16110D"/>
</linearGradient>
<linearGradient id="paint29_linear_480_4035" x1="433.094" y1="-344.011" x2="406.11" y2="-344.011" gradientUnits="userSpaceOnUse">
<stop stop-color="#4E3D1A"/>
<stop offset="1" stop-color="#484848"/>
</linearGradient>
<radialGradient id="paint30_radial_480_4035" cx="0" cy="0" r="1" gradientUnits="userSpaceOnUse" gradientTransform="translate(422.727 222.342) rotate(153.522) scale(11.6138 10.1598)">
<stop stop-color="white"/>
<stop offset="0.719012" stop-color="white" stop-opacity="0"/>
<stop offset="1" stop-color="white" stop-opacity="0"/>
</radialGradient>
<radialGradient id="paint31_radial_480_4035" cx="0" cy="0" r="1" gradientUnits="userSpaceOnUse" gradientTransform="translate(423.539 222.404) rotate(137.425) scale(17.1074 18.6826)">
<stop stop-color="white"/>
<stop offset="0.719012" stop-color="white" stop-opacity="0"/>
<stop offset="1" stop-color="white" stop-opacity="0"/>
</radialGradient>
<radialGradient id="paint32_radial_480_4035" cx="0" cy="0" r="1" gradientUnits="userSpaceOnUse" gradientTransform="translate(419.49 234.971) rotate(166.892) scale(1.4173 0.686188)">
<stop stop-color="white"/>
<stop offset="0.719012" stop-color="white" stop-opacity="0"/>
<stop offset="1" stop-color="white" stop-opacity="0"/>
</radialGradient>
<linearGradient id="paint33_linear_480_4035" x1="98.4265" y1="459.597" x2="414.522" y2="459.597" gradientUnits="userSpaceOnUse">
<stop stop-color="#16110D"/>
<stop offset="1" stop-color="#232323"/>
</linearGradient>
<linearGradient id="paint34_linear_480_4035" x1="135.425" y1="420.71" x2="196.321" y2="420.71" gradientUnits="userSpaceOnUse">
<stop stop-color="#16110D"/>
<stop offset="1" stop-color="#262627"/>
</linearGradient>
<linearGradient id="paint35_linear_480_4035" x1="-81.9334" y1="354.9" x2="301.259" y2="354.9" gradientUnits="userSpaceOnUse">
<stop stop-color="#16110D"/>
<stop offset="1" stop-color="#242424"/>
</linearGradient>
<radialGradient id="paint36_radial_480_4035" cx="0" cy="0" r="1" gradientUnits="userSpaceOnUse" gradientTransform="translate(155.48 169.808) scale(252.288 234.05)">
<stop stop-color="#16110D"/>
<stop offset="0.47" stop-color="#272627"/>
<stop offset="0.59" stop-color="#262527"/>
<stop offset="0.73" stop-color="#2C2B2D"/>
<stop offset="1" stop-color="#212123"/>
</radialGradient>
<radialGradient id="paint37_radial_480_4035" cx="0" cy="0" r="1" gradientUnits="userSpaceOnUse" gradientTransform="translate(110.333 135.378) scale(265.125 245.96)">
<stop stop-color="#171616"/>
<stop offset="0.47" stop-color="#2E2D2F"/>
<stop offset="0.59" stop-color="#4C4A4E"/>
<stop offset="0.73" stop-color="#272627"/>
<stop offset="1"/>
</radialGradient>
<radialGradient id="paint38_radial_480_4035" cx="0" cy="0" r="1" gradientUnits="userSpaceOnUse" gradientTransform="translate(78.1074 162.095) rotate(105.845) scale(28.1773 16.2232)">
<stop stop-color="white"/>
<stop offset="0.719012" stop-color="white" stop-opacity="0"/>
<stop offset="1" stop-color="white" stop-opacity="0"/>
</radialGradient>
<radialGradient id="paint39_radial_480_4035" cx="0" cy="0" r="1" gradientUnits="userSpaceOnUse" gradientTransform="translate(-203.696 198.541) scale(428.078 397.132)">
<stop stop-color="#16110D"/>
<stop offset="0.47"/>
<stop offset="0.59" stop-color="#2E2C30"/>
<stop offset="0.73" stop-color="#3D3B40"/>
<stop offset="0.86" stop-color="#302F33"/>
<stop offset="1" stop-color="#313034"/>
</radialGradient>
<radialGradient id="paint40_radial_480_4035" cx="0" cy="0" r="1" gradientUnits="userSpaceOnUse" gradientTransform="translate(195.564 305.86) rotate(180) scale(92.5667 85.8752)">
<stop stop-color="#E39A65"/>
<stop offset="0.15" stop-color="#16110D"/>
<stop offset="0.41" stop-color="#16110D"/>
<stop offset="0.93" stop-color="#F4DB5D"/>
</radialGradient>
<radialGradient id="paint41_radial_480_4035" cx="0" cy="0" r="1" gradientUnits="userSpaceOnUse" gradientTransform="translate(181.919 288.402) rotate(133.255) scale(18.6876 20.4436)">
<stop stop-color="white"/>
<stop offset="0.719012" stop-color="white" stop-opacity="0"/>
<stop offset="1" stop-color="white" stop-opacity="0"/>
</radialGradient>
<linearGradient id="paint42_linear_480_4035" x1="190.819" y1="293.654" x2="163.835" y2="293.654" gradientUnits="userSpaceOnUse">
<stop stop-color="#16110D"/>
<stop offset="1" stop-color="#444444"/>
</linearGradient>
<linearGradient id="paint43_linear_480_4035" x1="191.459" y1="293.654" x2="164.475" y2="293.654" gradientUnits="userSpaceOnUse">
<stop stop-color="#16110D"/>
<stop offset="1" stop-color="#878787"/>
</linearGradient>
<radialGradient id="paint44_radial_480_4035" cx="0" cy="0" r="1" gradientUnits="userSpaceOnUse" gradientTransform="translate(181.092 287.749) rotate(153.522) scale(11.6138 10.1598)">
<stop stop-color="white"/>
<stop offset="0.719012" stop-color="white" stop-opacity="0"/>
<stop offset="1" stop-color="white" stop-opacity="0"/>
</radialGradient>
<radialGradient id="paint45_radial_480_4035" cx="0" cy="0" r="1" gradientUnits="userSpaceOnUse" gradientTransform="translate(181.905 287.81) rotate(137.425) scale(17.1074 18.6826)">
<stop stop-color="white"/>
<stop offset="0.719012" stop-color="white" stop-opacity="0"/>
<stop offset="1" stop-color="white" stop-opacity="0"/>
</radialGradient>
<radialGradient id="paint46_radial_480_4035" cx="0" cy="0" r="1" gradientUnits="userSpaceOnUse" gradientTransform="translate(177.856 300.377) rotate(166.893) scale(1.41734 0.686189)">
<stop stop-color="white"/>
<stop offset="0.719012" stop-color="white" stop-opacity="0"/>
<stop offset="1" stop-color="white" stop-opacity="0"/>
</radialGradient>
</defs>
</svg>
