<svg width="72" height="78" viewBox="0 0 72 78" fill="none" xmlns="http://www.w3.org/2000/svg">
<path opacity="0.15" d="M71.9653 38.9302L54.5885 77.0785H0.502792V2.57329C0.502792 1.97008 0.576088 1.36688 0.624969 0.763672H54.0508L71.9653 38.912V38.9302Z" fill="#4F4F4F"/>
<g clip-path="url(#clip0_480_2497)">
<path d="M49.8901 23.0585C49.8883 22.0919 49.5161 21.1817 48.8421 20.4956C48.1696 19.8111 47.2801 19.4344 46.3366 19.4344C46.3344 19.4344 46.332 19.4344 46.3298 19.4344L39.1323 19.4482C39.124 19.4482 39.116 19.4492 39.1078 19.4495C38.4585 18.5602 37.4201 17.9829 36.2509 17.9829L34.3903 17.9865C33.8926 17.0932 32.9573 16.5205 31.9295 16.5205C30.904 16.5224 29.9693 17.0989 29.4744 17.996L27.6139 17.9995C26.4452 18.0017 25.4077 18.5834 24.7614 19.477C24.7539 19.4767 24.7466 19.4758 24.739 19.4758C24.7385 19.4758 24.7381 19.4758 24.7376 19.4758L17.5402 19.4896C15.5807 19.4934 13.9896 21.1252 13.9932 23.1273L14.0608 59.8964C14.0626 60.863 14.4348 61.7732 15.1089 62.4593C15.7813 63.1438 16.6708 63.5205 17.6143 63.5205C17.6166 63.5205 17.6189 63.5205 17.6212 63.5205L46.4105 63.4651C47.3565 63.4633 48.2474 63.083 48.9189 62.3943C49.5904 61.7057 49.9593 60.7939 49.9575 59.8274L49.8901 23.0585ZM26.059 20.041C26.4746 19.6149 27.0277 19.3795 27.6165 19.3784L29.9079 19.374C30.1935 19.3735 30.4477 19.1893 30.5429 18.9143C30.7524 18.3084 31.3108 17.9006 31.9351 17.8994C32.5552 17.8994 33.114 18.3051 33.3253 18.909C33.4213 19.1833 33.6756 19.3663 33.9607 19.3663C33.9611 19.3663 33.9615 19.3663 33.962 19.3663L36.2577 19.3619C37.4706 19.3619 38.4595 20.3703 38.4618 21.6097L38.4659 23.8619L25.4207 23.8869L25.4166 21.6347C25.4153 21.0332 25.6435 20.4672 26.059 20.041ZM47.9631 61.4214C47.546 61.8492 46.9937 62.0854 46.4081 62.0865L17.6187 62.1418C17.6173 62.1418 17.6159 62.1418 17.6145 62.1418C16.4011 62.1418 15.4126 61.1343 15.4104 59.894L15.3428 23.1248C15.3406 21.883 16.3275 20.8707 17.5428 20.8684L24.1492 20.8557C24.0954 21.1077 24.0664 21.369 24.0669 21.6373L24.0724 24.5788C24.0731 24.9592 24.3751 25.2669 24.7471 25.2669C24.7476 25.2669 24.748 25.2669 24.7485 25.2669L39.1432 25.2393C39.3221 25.2389 39.4936 25.166 39.6199 25.0364C39.7462 24.9069 39.8169 24.7314 39.8166 24.5485L39.8113 21.607C39.8108 21.3388 39.7808 21.0776 39.7259 20.8258L46.3325 20.8131C46.3339 20.8131 46.3353 20.8131 46.3367 20.8131C46.9207 20.8131 47.4722 21.047 47.8898 21.4723C48.3085 21.8984 48.5398 22.4627 48.5409 23.061L48.6085 59.8301C48.6093 60.4284 48.3802 60.9935 47.9631 61.4214Z" fill="#D9D1D1"/>
<path d="M47.0111 23.0641C47.0108 22.8812 46.9394 22.7061 46.8126 22.577C46.6861 22.4483 46.5148 22.376 46.3364 22.376C46.336 22.376 46.3356 22.376 46.3351 22.376L42.0167 22.3842C41.644 22.385 41.3425 22.6942 41.3432 23.0749C41.3439 23.4553 41.6459 23.763 42.0179 23.763C42.0184 23.763 42.0188 23.763 42.0193 23.763L45.6629 23.7561L45.7104 49.5863L38.4681 49.6001C37.3023 49.6023 36.3557 50.5732 36.3579 51.7643L36.366 56.1766C36.3667 56.557 36.6686 56.8647 37.0407 56.8647C37.0411 56.8647 37.0416 56.8647 37.042 56.8647C37.4147 56.8639 37.7162 56.5547 37.7155 56.174L37.7074 51.7618C37.7066 51.331 38.049 50.9798 38.4707 50.9789L44.7588 50.9669L36.7667 59.1635L18.2881 59.199L18.223 23.8088L21.8666 23.8019C22.2393 23.8011 22.5408 23.4919 22.5401 23.1112C22.5393 22.7309 22.2374 22.4231 21.8653 22.4231C21.8649 22.4231 21.8644 22.4231 21.864 22.4231L17.5455 22.4313C17.1729 22.4321 16.8714 22.7413 16.8721 23.122L16.9397 59.891C16.9404 60.2714 17.2424 60.5792 17.6145 60.5792C17.6149 60.5792 17.6154 60.5792 17.6158 60.5792L37.0488 60.5418C37.0538 60.5418 37.0587 60.5412 37.0636 60.541C37.0806 60.5405 37.0976 60.54 37.1145 60.5382C37.1256 60.5371 37.1364 60.535 37.1474 60.5333C37.1582 60.5317 37.169 60.5304 37.1797 60.5283C37.192 60.5258 37.2039 60.5224 37.2162 60.5192C37.2253 60.5168 37.2346 60.5147 37.2436 60.512C37.2557 60.5082 37.2674 60.5037 37.2791 60.4993C37.288 60.496 37.2971 60.493 37.3059 60.4892C37.3171 60.4844 37.328 60.4788 37.339 60.4735C37.3479 60.4691 37.3569 60.4651 37.3657 60.4603C37.3766 60.4543 37.3869 60.4475 37.3975 60.441C37.4058 60.4359 37.4142 60.4311 37.4223 60.4256C37.4345 60.4172 37.4461 60.408 37.4578 60.3989C37.4637 60.3943 37.4697 60.3902 37.4753 60.3855C37.4931 60.3706 37.5102 60.3548 37.5264 60.3381L46.8642 50.7613C46.8657 50.7597 46.8668 50.758 46.8684 50.7564C46.8874 50.7365 46.905 50.7151 46.9215 50.693C46.9265 50.6865 46.9313 50.6799 46.936 50.6732C46.9525 50.6494 46.968 50.6247 46.9816 50.5987C46.9833 50.5957 46.9845 50.5925 46.986 50.5893C46.9982 50.5653 47.0087 50.5402 47.018 50.5147C47.0203 50.5085 47.0226 50.5024 47.0247 50.4962C47.0341 50.4678 47.0422 50.4388 47.048 50.409C47.0484 50.4073 47.0485 50.4056 47.0488 50.4038C47.0538 50.3767 47.0568 50.3489 47.0587 50.3208C47.0593 50.3126 47.0596 50.3044 47.0599 50.2961C47.0602 50.2885 47.061 50.281 47.061 50.2734L47.0111 23.0641Z" fill="#D9D1D1"/>
<path d="M31.9364 20.8417C32.1137 20.8417 32.2882 20.7672 32.4132 20.6395C32.5392 20.5108 32.6112 20.3333 32.6112 20.1514C32.6112 19.9703 32.5392 19.7929 32.4132 19.6642C32.2882 19.5364 32.1136 19.4629 31.9364 19.4629C31.7593 19.4629 31.5847 19.5364 31.4596 19.6642C31.3337 19.7929 31.2617 19.9703 31.2617 20.1514C31.2617 20.3334 31.3337 20.5108 31.4596 20.6395C31.5847 20.7672 31.7584 20.8417 31.9364 20.8417Z" fill="#D9D1D1"/>
<path d="M34.8329 30.3955C34.8334 30.3955 34.8338 30.3955 34.8343 30.3955L42.0317 30.3817C42.4043 30.381 42.7059 30.0717 42.7051 29.691C42.7044 29.3106 42.4025 29.0029 42.0304 29.0029C42.03 29.0029 42.0295 29.0029 42.0291 29.0029L34.8317 29.0167C34.459 29.0174 34.1575 29.3267 34.1582 29.7074C34.1588 30.0877 34.4608 30.3955 34.8329 30.3955Z" fill="#D9D1D1"/>
<path d="M29.0805 33.348C29.0809 33.348 29.0814 33.348 29.0818 33.348L42.0371 33.3231C42.4097 33.3224 42.7113 33.0131 42.7105 32.6324C42.7098 32.252 42.4078 31.9443 42.0358 31.9443C42.0354 31.9443 42.0349 31.9443 42.0345 31.9443L29.0792 31.9692C28.7066 31.9699 28.405 32.2792 28.4058 32.6599C28.4065 33.0401 28.7084 33.348 29.0805 33.348Z" fill="#D9D1D1"/>
<path d="M41.8504 36.1953C41.8499 36.1953 41.8495 36.1953 41.849 36.1953L21.6964 36.2341C21.3237 36.2348 21.0222 36.544 21.023 36.9247C21.0237 37.3051 21.3256 37.6128 21.6977 37.6128C21.6981 37.6128 21.6986 37.6128 21.699 37.6128L41.8516 37.5741C42.2243 37.5734 42.5258 37.2641 42.5251 36.8834C42.5245 36.5031 42.2225 36.1953 41.8504 36.1953Z" fill="#D9D1D1"/>
<path d="M41.8558 39.1367C41.8553 39.1367 41.8549 39.1367 41.8544 39.1367L21.7018 39.1755C21.3291 39.1762 21.0276 39.4855 21.0283 39.8661C21.029 40.2465 21.331 40.5543 21.703 40.5543C21.7035 40.5543 21.7039 40.5543 21.7044 40.5543L41.857 40.5155C42.2297 40.5148 42.5312 40.2055 42.5305 39.8248C42.5299 39.4445 42.2279 39.1367 41.8558 39.1367Z" fill="#D9D1D1"/>
<path d="M41.8611 42.0781C41.8607 42.0781 41.8602 42.0781 41.8598 42.0781L21.7072 42.1169C21.3345 42.1176 21.033 42.4269 21.0337 42.8075C21.0344 43.188 21.3364 43.4957 21.7084 43.4957C21.7089 43.4957 21.7093 43.4957 21.7098 43.4957L41.8624 43.4569C42.2351 43.4562 42.5366 43.1469 42.5359 42.7662C42.5352 42.3859 42.2333 42.0781 41.8611 42.0781Z" fill="#D9D1D1"/>
<path d="M42.5412 45.7076C42.5405 45.3272 42.2385 45.0195 41.8665 45.0195H41.8652L21.7125 45.0583C21.3399 45.059 21.0383 45.3683 21.0391 45.7489C21.0398 46.1294 21.3417 46.4371 21.7138 46.4371H21.7151L41.8678 46.3983C42.2404 46.3976 42.542 46.0884 42.5412 45.7076Z" fill="#D9D1D1"/>
<path d="M28.198 49.3665L33.956 49.3554C34.3286 49.3546 34.6302 49.0454 34.6294 48.6647C34.6287 48.2844 34.3268 47.9766 33.9547 47.9766C33.9543 47.9766 33.9538 47.9766 33.9534 47.9766L28.1954 47.9877C27.8228 47.9884 27.5213 48.2977 27.522 48.6783C27.5227 49.0587 27.8247 49.3665 28.1967 49.3665C28.1972 49.3665 28.1977 49.3665 28.198 49.3665Z" fill="#D9D1D1"/>
<path d="M28.2026 52.3079C28.203 52.3079 28.2035 52.3079 28.2039 52.3079L33.9618 52.2968C34.3345 52.296 34.636 51.9868 34.6353 51.6061C34.6346 51.2258 34.3326 50.918 33.9606 50.918C33.9601 50.918 33.9597 50.918 33.9592 50.918L28.2013 50.9291C27.8286 50.9298 27.5271 51.2391 27.5278 51.6198C27.5285 52.0001 27.8305 52.3079 28.2026 52.3079Z" fill="#D9D1D1"/>
<path d="M21.2026 29.7317C21.2034 30.1122 21.5053 30.4199 21.8774 30.4199C21.8778 30.4199 21.8783 30.4199 21.8787 30.4199L25.4774 30.413C25.8501 30.4122 26.1516 30.103 26.1509 29.7223C26.1502 29.3419 25.8482 29.0342 25.4762 29.0342C25.4757 29.0342 25.4753 29.0342 25.4748 29.0342L21.8761 29.0411C21.5035 29.0416 21.202 29.351 21.2026 29.7317Z" fill="#D9D1D1"/>
</g>
<defs>
<clipPath id="clip0_480_2497">
<rect width="46" height="47" fill="white" transform="translate(8.9751 16.5205)"/>
</clipPath>
</defs>
</svg>
