<svg stroke="white" width="22" height="22" viewBox="0 0 22 22" fill="none" xmlns="http://www.w3.org/2000/svg">
<path d="M12.8327 1.83325H5.49935C5.01312 1.83325 4.5468 2.02641 4.20299 2.37022C3.85917 2.71404 3.66602 3.18036 3.66602 3.66659V18.3333C3.66602 18.8195 3.85917 19.2858 4.20299 19.6296C4.5468 19.9734 5.01312 20.1666 5.49935 20.1666H16.4993C16.9856 20.1666 17.4519 19.9734 17.7957 19.6296C18.1395 19.2858 18.3327 18.8195 18.3327 18.3333V7.33325L12.8327 1.83325Z"  stroke-linecap="round" stroke-linejoin="round"/>
<path d="M12.8327 1.83325H5.49935C5.01312 1.83325 4.5468 2.02641 4.20299 2.37022C3.85917 2.71404 3.66602 3.18036 3.66602 3.66659V18.3333C3.66602 18.8195 3.85917 19.2858 4.20299 19.6296C4.5468 19.9734 5.01312 20.1666 5.49935 20.1666H16.4993C16.9856 20.1666 17.4519 19.9734 17.7957 19.6296C18.1395 19.2858 18.3327 18.8195 18.3327 18.3333V7.33325L12.8327 1.83325Z" stroke="url(#paint0_radial_368_2330)" stroke-opacity="0.7" stroke-linecap="round" stroke-linejoin="round"/>
<path d="M12.834 1.83325V7.33325H18.334"  stroke-linecap="round" stroke-linejoin="round"/>
<path d="M12.834 1.83325V7.33325H18.334" stroke="url(#paint1_radial_368_2330)" stroke-opacity="0.7" stroke-linecap="round" stroke-linejoin="round"/>
<path d="M14.6673 11.9167H7.33398"  stroke-linecap="round" stroke-linejoin="round"/>
<path d="M14.6673 11.9167H7.33398" stroke="url(#paint2_radial_368_2330)" stroke-opacity="0.7" stroke-linecap="round" stroke-linejoin="round"/>
<path d="M14.6673 15.5833H7.33398"  stroke-linecap="round" stroke-linejoin="round"/>
<path d="M14.6673 15.5833H7.33398" stroke="url(#paint3_radial_368_2330)" stroke-opacity="0.7" stroke-linecap="round" stroke-linejoin="round"/>
<path d="M9.16732 8.25H8.25065H7.33398"  stroke-linecap="round" stroke-linejoin="round"/>
<path d="M9.16732 8.25H8.25065H7.33398" stroke="url(#paint4_radial_368_2330)" stroke-opacity="0.7" stroke-linecap="round" stroke-linejoin="round"/>
<defs>
<radialGradient id="paint0_radial_368_2330" cx="0" cy="0" r="1" gradientUnits="userSpaceOnUse" gradientTransform="translate(8.9513 4.88881) rotate(64.9922) scale(13.376 11.2329)">
<stop stop-color="white"/>
<stop offset="0.719012" stop-color="white" stop-opacity="0"/>
<stop offset="1" stop-color="white" stop-opacity="0"/>
</radialGradient>
<radialGradient id="paint1_radial_368_2330" cx="0" cy="0" r="1" gradientUnits="userSpaceOnUse" gradientTransform="translate(14.816 2.74992) rotate(59.7539) scale(4.20968 4.01535)">
<stop stop-color="white"/>
<stop offset="0.719012" stop-color="white" stop-opacity="0"/>
<stop offset="1" stop-color="white" stop-opacity="0"/>
</radialGradient>
<radialGradient id="paint2_radial_368_2330" cx="0" cy="0" r="1" gradientUnits="userSpaceOnUse" gradientTransform="translate(9.97663 12.0834) rotate(13.1628) scale(2.90359 1.41128)">
<stop stop-color="white"/>
<stop offset="0.719012" stop-color="white" stop-opacity="0"/>
<stop offset="1" stop-color="white" stop-opacity="0"/>
</radialGradient>
<radialGradient id="paint3_radial_368_2330" cx="0" cy="0" r="1" gradientUnits="userSpaceOnUse" gradientTransform="translate(9.97663 15.7499) rotate(13.1628) scale(2.90359 1.41128)">
<stop stop-color="white"/>
<stop offset="0.719012" stop-color="white" stop-opacity="0"/>
<stop offset="1" stop-color="white" stop-opacity="0"/>
</radialGradient>
<radialGradient id="paint4_radial_368_2330" cx="0" cy="0" r="1" gradientUnits="userSpaceOnUse" gradientTransform="translate(7.99465 8.41667) rotate(43.0899) scale(0.96788 1.05844)">
<stop stop-color="white"/>
<stop offset="0.719012" stop-color="white" stop-opacity="0"/>
<stop offset="1" stop-color="white" stop-opacity="0"/>
</radialGradient>
</defs>
</svg>
