<svg width="72" height="77" viewBox="0 0 72 77" fill="none" xmlns="http://www.w3.org/2000/svg">
<path opacity="0.15" d="M71.4624 38.6314L54.0856 76.7797H-0.000137329V2.27446C-0.000137329 1.67125 0.0731583 1.06805 0.12204 0.464844H53.5479L71.4624 38.6131V38.6314Z" fill="#4F4F4F"/>
<path d="M19.3271 31.403C19.3271 30.8967 19.7749 30.4863 20.3271 30.4863H34.5308C35.083 30.4863 35.5308 30.8967 35.5308 31.403C35.5308 31.9092 35.083 32.3196 34.5308 32.3196H20.3271C19.7749 32.3196 19.3271 31.9092 19.3271 31.403ZM20.3271 35.3964C19.7749 35.3964 19.3271 35.8068 19.3271 36.313C19.3271 36.8194 19.7749 37.2297 20.3271 37.2297H34.5308C35.083 37.2297 35.5308 36.8194 35.5308 36.313C35.5308 35.8068 35.083 35.3964 34.5308 35.3964H20.3271ZM19.3271 41.2229C19.3271 40.7167 19.7749 40.3062 20.3271 40.3062H34.5308C35.083 40.3062 35.5308 40.7167 35.5308 41.2229C35.5308 41.7293 35.083 42.1395 34.5308 42.1395H20.3271C19.7749 42.1395 19.3271 41.7292 19.3271 41.2229ZM20.3271 45.199C19.7749 45.199 19.3271 45.6095 19.3271 46.1157C19.3271 46.622 19.7749 47.0323 20.3271 47.0323H34.5308C35.083 47.0323 35.5308 46.622 35.5308 46.1157C35.5308 45.6095 35.083 45.199 34.5308 45.199H20.3271Z" fill="#D9D1D1"/>
<path d="M22.2438 18.3743H22.9776C23.0426 18.3622 23.1099 18.3558 23.1789 18.3558C23.2478 18.3558 23.3151 18.3622 23.3801 18.3743H37.6417C39.4171 18.3743 40.8639 19.7029 40.8639 21.3297V49.2261C40.8639 50.8528 39.4171 52.1815 37.6417 52.1815H17.1973C15.422 52.1815 13.9751 50.8528 13.9751 49.2261V25.662C13.9751 25.6223 13.9778 25.5833 13.9832 25.545C14.005 25.0692 14.2102 24.5902 14.6388 24.197L20.3696 18.9396C20.9087 18.4568 21.5991 18.2904 22.2438 18.3743ZM16.0536 25.4929L21.7701 20.2484C21.8143 20.2097 21.8549 20.1952 21.8909 20.1897C21.9329 20.1833 21.9832 20.1876 22.0329 20.2064C22.0823 20.2252 22.1188 20.2537 22.1412 20.2829C22.1584 20.3053 22.1755 20.3378 22.1789 20.3909V23.4009C22.1789 23.4119 22.1791 23.4228 22.1795 23.4337V25.0829C22.1795 25.5117 21.7931 25.8651 21.3276 25.8651H16.2165C16.1543 25.8651 16.1162 25.8496 16.0886 25.8317C16.0565 25.8108 16.0248 25.7765 16.004 25.7306C15.9832 25.6846 15.9792 25.6397 15.986 25.6036C15.9918 25.5725 16.0073 25.5353 16.0535 25.4929L16.0536 25.4929ZM24.1789 20.2077V20.3591C24.1793 20.3763 24.1795 20.3935 24.1795 20.4108V25.0828C24.1795 26.5228 22.8993 27.6984 21.3277 27.6984L15.9752 27.6985V49.2261C15.9752 49.8417 16.5282 50.3481 17.1974 50.3481H37.6418C38.311 50.3481 38.864 49.8417 38.864 49.2261V21.3297C38.864 20.714 38.311 20.2077 37.6418 20.2077H24.1789Z" fill="#D9D1D1"/>
<path d="M43.4198 22.043C42.8674 22.043 42.4198 22.4534 42.4198 22.9597C42.4198 23.4659 42.8674 23.8763 43.4198 23.8763H44.753C45.4222 23.8763 45.9752 24.3826 45.9752 24.9984V55.7319C45.9752 56.3478 45.4222 56.8539 44.753 56.8539H24.3086C23.6395 56.8539 23.0864 56.3475 23.0864 55.7319V54.5256C23.0864 54.0194 22.6387 53.6089 22.0864 53.6089C21.5341 53.6089 21.0864 54.0194 21.0864 54.5256V55.7319C21.0864 57.3588 22.5334 58.6873 24.3087 58.6873H44.753C46.5284 58.6873 47.9752 57.3589 47.9752 55.7319V24.9984C47.9752 23.3715 46.5284 22.043 44.753 22.043H43.4198L43.4198 22.043Z" fill="#D9D1D1"/>
</svg>
