<svg width="115" height="96" viewBox="0 0 115 96" fill="none" xmlns="http://www.w3.org/2000/svg">
<path d="M29.2506 8.56013L38.6674 24.8415M8.567 29.2009L24.8808 38.6005M1 57.3995H19.8337M114 57.3995H95.1663M106.428 29.2009L90.1193 38.6005M85.7494 8.56013L76.3349 24.8368M57.5035 1V19.7967M107.717 76.1986L104.576 66.7991H66.9157L57.5012 94.9976M57.5012 94.9976H114L110.859 85.6005M57.5012 94.9976L1 95L4.14051 85.6005M57.5012 94.9976L48.0843 66.8014H10.4169L7.27635 76.2009M85.7494 66.7991L76.3349 38.6005H38.6674L29.2506 66.7991H85.7494Z" stroke="#E5BB44" stroke-width="1.30903" stroke-linecap="round" stroke-linejoin="round"/>
<path d="M29.2506 8.56013L38.6674 24.8415M8.567 29.2009L24.8808 38.6005M1 57.3995H19.8337M114 57.3995H95.1663M106.428 29.2009L90.1193 38.6005M85.7494 8.56013L76.3349 24.8368M57.5035 1V19.7967M107.717 76.1986L104.576 66.7991H66.9157L57.5012 94.9976M57.5012 94.9976H114L110.859 85.6005M57.5012 94.9976L1 95L4.14051 85.6005M57.5012 94.9976L48.0843 66.8014H10.4169L7.27635 76.2009M85.7494 66.7991L76.3349 38.6005H38.6674L29.2506 66.7991H85.7494Z" stroke="url(#paint0_radial_480_2403)" stroke-opacity="0.7" stroke-width="1.30903" stroke-linecap="round" stroke-linejoin="round"/>
<defs>
<radialGradient id="paint0_radial_480_2403" cx="0" cy="0" r="1" gradientUnits="userSpaceOnUse" gradientTransform="translate(41.7207 16.6667) rotate(54.9715) scale(75.9013 78.1995)">
<stop stop-color="white"/>
<stop offset="0.719012" stop-color="white" stop-opacity="0"/>
<stop offset="1" stop-color="white" stop-opacity="0"/>
</radialGradient>
</defs>
</svg>
