<svg width="72" height="77" viewBox="0 0 72 77" fill="none" xmlns="http://www.w3.org/2000/svg">
<path opacity="0.15" d="M71.9653 38.1666L54.5885 76.3148H0.502792V1.80962C0.502792 1.20641 0.576088 0.603207 0.624969 0H54.0508L71.9653 38.1483V38.1666Z" fill="#4F4F4F"/>
<path d="M17.8857 38.1332V34.3475C17.8857 30.985 19.4394 27.7601 22.205 25.3824C24.9706 23.0047 28.7215 21.6689 32.6326 21.6689C36.5437 21.6689 40.2946 23.0047 43.0602 25.3824C45.8257 27.7601 47.3794 30.985 47.3794 34.3475V38.1332" stroke="#DBD4D4" stroke-width="2" stroke-linecap="round"/>
<path d="M17.2291 38.1328H20.8598V47.0191H17.2291C16.6145 47.0191 16.025 46.8092 15.5904 46.4355C15.1558 46.0619 14.9116 45.5551 14.9116 45.0267V40.1253C14.9116 39.5968 15.1558 39.09 15.5904 38.7164C16.025 38.3427 16.6145 38.1328 17.2291 38.1328Z" stroke="#DBD4D4" stroke-width="2" stroke-linecap="round"/>
<path d="M48.036 47.0195H44.4053V38.1332H48.036C48.6507 38.1332 49.2401 38.3431 49.6747 38.7168C50.1094 39.0905 50.3535 39.5972 50.3535 40.1257V45.0271C50.3535 45.5555 50.1094 46.0623 49.6747 46.436C49.2401 46.8096 48.6507 47.0195 48.036 47.0195Z" stroke="#DBD4D4" stroke-width="2" stroke-linecap="round"/>
<path d="M47.8508 47.2715V50.5922C47.8508 51.2968 47.5252 51.9725 46.9457 52.4707C46.3663 52.9689 45.5803 53.2488 44.7608 53.2488H36.1553" stroke="#DBD4D4" stroke-width="2" stroke-linecap="round"/>
<path d="M34.6023 51.4961H31.4351C30.5818 51.4961 29.8901 52.0908 29.8901 52.8244V53.535C29.8901 54.2686 30.5818 54.8633 31.4351 54.8633H34.6023C35.4556 54.8633 36.1473 54.2686 36.1473 53.535V52.8244C36.1473 52.0908 35.4556 51.4961 34.6023 51.4961Z" stroke="#DBD4D4" stroke-width="2" stroke-linecap="round"/>
</svg>
