<svg width="72" height="77" viewBox="0 0 72 77" fill="none" xmlns="http://www.w3.org/2000/svg">
<path opacity="0.15" d="M71.9653 38.2808L54.5885 76.4291H0.502792V1.92388C0.502792 1.32067 0.576088 0.717465 0.624969 0.114258H54.0508L71.9653 38.2625V38.2808Z" fill="#4F4F4F"/>
<g clip-path="url(#clip0_480_2459)">
<path d="M51.0511 48.6622C50.4399 48.2322 43.7437 43.7809 42.9237 43.2797C42.5662 43.0609 42.1299 42.9534 41.6549 42.9534C41.0436 42.9534 40.3649 43.1309 39.7036 43.4797C39.0599 43.8184 37.1074 44.9297 36.1524 45.4747C35.3111 44.8834 33.3349 43.3709 30.2211 40.2534C27.1261 37.1609 25.5999 35.1684 25.0049 34.3222C25.5486 33.3672 26.6586 31.4159 26.9961 30.7734C27.6349 29.5622 27.7086 28.3522 27.1899 27.5372C26.7036 26.7684 22.2687 20.0447 21.8111 19.4122C21.3799 18.8159 20.6074 18.4922 19.7687 18.4922C19.1074 18.4922 18.4049 18.6922 17.7962 19.1159C17.7374 19.1572 11.8549 23.4234 11.9324 25.8484C12.1486 32.6622 18.7711 40.6697 24.2861 46.1872C29.8011 51.7047 37.8099 58.3284 44.6511 58.5459H44.7074C47.1024 58.5459 51.3124 52.7384 51.3524 52.6809C52.4574 51.1034 52.0549 49.3647 51.0486 48.6597L51.0511 48.6622ZM49.3237 51.2272C47.7386 53.4234 45.4861 55.7172 44.6061 56.0459C39.9174 55.8259 33.3386 51.7047 26.0561 44.4222C18.7736 37.1397 14.6549 30.5659 14.4374 25.8934C14.7536 25.0097 17.0474 22.7447 19.2236 21.1697C19.3849 21.0584 19.5837 20.9934 19.7687 20.9934C19.8099 20.9934 19.8449 20.9972 19.8712 21.0022C20.5749 22.0234 24.3486 27.7384 25.0336 28.8059C25.0361 28.9184 24.9986 29.2034 24.7836 29.6109C24.5561 30.0459 23.8449 31.3122 22.8349 33.0822L22.0486 34.4609L22.9599 35.7597C23.6399 36.7247 25.2574 38.8247 28.4536 42.0209C31.6624 45.2322 33.7549 46.8447 34.7174 47.5197L36.0161 48.4322L37.3936 47.6447C38.7299 46.8809 40.3436 45.9672 40.8674 45.6909C41.2887 45.4697 41.5761 45.4509 41.6549 45.4509C41.6674 45.4509 41.6786 45.4509 41.6874 45.4522C42.6437 46.0522 48.4824 49.9284 49.5124 50.6347C49.5299 50.7347 49.5136 50.9522 49.3237 51.2234V51.2272ZM37.1249 33.2284C37.2861 33.3909 37.5136 33.4909 37.7649 33.4847L38.2224 33.4747C38.2311 33.4747 38.2374 33.4709 38.2474 33.4709L47.2124 33.5097C47.7174 33.4984 48.1349 33.0797 48.1461 32.5747V31.9334C48.0699 31.3384 47.6012 30.9897 47.0961 31.0009L41.1774 30.9859L51.4099 20.7672C51.8974 20.2784 51.8974 19.4872 51.4099 18.9984C50.9224 18.5097 50.1311 18.5109 49.6424 18.9984L39.3811 29.2447L39.4149 23.1972C39.4261 22.6922 39.0261 22.2522 38.5211 22.2634L37.8799 22.2647C37.3736 22.2772 36.9561 22.5784 36.9449 23.0834L36.9199 32.1072C36.9199 32.1159 36.9536 32.1222 36.9536 32.1309L36.9037 32.5884C36.8987 32.8422 36.9587 33.0684 37.1212 33.2309L37.1249 33.2284Z" fill="#D9D1D1"/>
</g>
<defs>
<clipPath id="clip0_480_2459">
<rect width="40" height="40" fill="white" transform="translate(11.9751 18.5205)"/>
</clipPath>
</defs>
</svg>
