<svg width="471" height="435" viewBox="0 0 471 435" fill="none" xmlns="http://www.w3.org/2000/svg">
<path d="M114.765 132.727C129.402 125.315 144.651 122.34 161.292 124.245C181.79 126.585 197.979 129.343 217.593 122.279C234.083 116.345 249.144 107.489 264.872 100.146C297.044 85.0515 328.981 80.3796 353.1 110.151C365.931 125.994 375.677 144.185 382.403 163.378C393.277 194.341 402.214 228.628 397.313 260.965C391.114 301.96 353.1 321.204 307.627 306.353C289.236 300.35 271.485 291.563 251.872 289.049C210.829 283.777 177.002 318.629 127.784 310.155C42.9522 295.574 49.2172 165.918 114.765 132.727Z" fill="#E5BB44"/>
<path d="M114.765 132.727C129.402 125.315 144.651 122.34 161.292 124.245C181.79 126.585 197.979 129.343 217.593 122.279C234.083 116.345 249.144 107.489 264.872 100.146C297.044 85.0515 328.981 80.3796 353.1 110.151C365.931 125.994 375.677 144.185 382.403 163.378C393.277 194.341 402.214 228.628 397.313 260.965C391.114 301.96 353.1 321.204 307.627 306.353C289.236 300.35 271.485 291.563 251.872 289.049C210.829 283.777 177.002 318.629 127.784 310.155C42.9522 295.574 49.2172 165.918 114.765 132.727Z" fill="url(#paint0_radial_480_4196)" fill-opacity="0.7"/>
<path opacity="0.7" d="M114.765 132.727C129.402 125.315 144.651 122.34 161.292 124.245C181.79 126.585 197.979 129.343 217.593 122.279C234.083 116.345 249.144 107.489 264.872 100.146C297.044 85.0515 328.981 80.3796 353.1 110.151C365.931 125.994 375.677 144.185 382.403 163.378C393.277 194.341 402.214 228.628 397.313 260.965C391.114 301.96 353.1 321.204 307.627 306.353C289.236 300.35 271.485 291.563 251.872 289.049C210.829 283.777 177.002 318.629 127.784 310.155C42.9522 295.574 49.2172 165.918 114.765 132.727Z" fill="white"/>
<path d="M101.925 99.3278C107.898 96.3089 110.607 98.8232 112.78 96.3089C114.953 93.7946 106.807 87.2696 123.128 80.7446C123.128 80.7446 124.21 66.6854 146.476 66.1808C168.742 65.6762 162.741 80.24 168.714 83.7548C174.688 87.2696 176.315 81.7799 182.288 85.2599C188.262 88.7399 185.543 95.8043 190.425 96.8048C195.308 97.8053 201.836 92.2895 207.809 95.8043C213.783 99.3191 213.783 102.329 216.492 102.329C219.201 102.329 224.639 100.32 227.893 102.329C231.148 104.339 234.958 106.853 234.958 106.853H97.6161C97.6161 106.853 95.9511 102.338 101.925 99.3278Z" fill="#E5BB44"/>
<path d="M101.925 99.3278C107.898 96.3089 110.607 98.8232 112.78 96.3089C114.953 93.7946 106.807 87.2696 123.128 80.7446C123.128 80.7446 124.21 66.6854 146.476 66.1808C168.742 65.6762 162.741 80.24 168.714 83.7548C174.688 87.2696 176.315 81.7799 182.288 85.2599C188.262 88.7399 185.543 95.8043 190.425 96.8048C195.308 97.8053 201.836 92.2895 207.809 95.8043C213.783 99.3191 213.783 102.329 216.492 102.329C219.201 102.329 224.639 100.32 227.893 102.329C231.148 104.339 234.958 106.853 234.958 106.853H97.6161C97.6161 106.853 95.9511 102.338 101.925 99.3278Z" fill="url(#paint1_radial_480_4196)" fill-opacity="0.7"/>
<path opacity="0.5" d="M101.925 99.3278C107.898 96.3089 110.607 98.8232 112.78 96.3089C114.953 93.7946 106.807 87.2696 123.128 80.7446C123.128 80.7446 124.21 66.6854 146.476 66.1808C168.742 65.6762 162.741 80.24 168.714 83.7548C174.688 87.2696 176.315 81.7799 182.288 85.2599C188.262 88.7399 185.543 95.8043 190.425 96.8048C195.308 97.8053 201.836 92.2895 207.809 95.8043C213.783 99.3191 213.783 102.329 216.492 102.329C219.201 102.329 224.639 100.32 227.893 102.329C231.148 104.339 234.958 106.853 234.958 106.853H97.6161C97.6161 106.853 95.9511 102.338 101.925 99.3278Z" fill="white"/>
<path d="M257.676 212.193C261.871 210.079 263.781 211.836 265.305 210.079C266.829 208.321 261.11 203.728 272.548 199.143C272.548 199.143 273.31 189.268 288.954 188.911C304.598 188.555 300.393 198.786 304.589 201.257C308.784 203.728 309.922 199.847 314.118 202.318C318.313 204.789 316.413 209.722 319.837 210.427C323.261 211.131 327.852 207.251 332.066 209.722C336.281 212.193 336.262 214.307 338.162 214.307C340.062 214.307 343.891 212.897 346.177 214.307C348.463 215.716 351.134 217.482 351.134 217.482H254.628C254.628 217.482 253.48 214.307 257.676 212.193Z" fill="white"/>
<path opacity="0.5" d="M257.676 212.193C261.871 210.079 263.781 211.836 265.305 210.079C266.829 208.321 261.11 203.728 272.548 199.143C272.548 199.143 273.31 189.268 288.954 188.911C304.598 188.555 300.393 198.786 304.589 201.257C308.784 203.728 309.922 199.847 314.118 202.318C318.313 204.789 316.413 209.722 319.837 210.427C323.261 211.131 327.852 207.251 332.066 209.722C336.281 212.193 336.262 214.307 338.162 214.307C340.062 214.307 343.891 212.897 346.177 214.307C348.463 215.716 351.134 217.482 351.134 217.482H254.628C254.628 217.482 253.48 214.307 257.676 212.193Z" fill="white"/>
<path d="M138.405 359.197H78.9528C80.091 352.472 84.7663 353.655 85.3872 343.232C85.6976 338.012 80.4391 331.487 80.9 324.597C81.2763 318.916 87.325 313.096 87.7953 306.597C88.2187 300.733 83.0919 294.225 83.5528 287.909C84.0326 281.941 90.1377 276.208 90.7115 269.996C91.2383 263.906 86.1774 257.372 86.7794 251.247C87.3814 245.122 93.6183 239.494 94.305 233.456C94.9917 227.253 90.0907 220.571 90.8432 214.638C91.6334 208.33 98.0678 202.884 98.9426 197.072C99.8833 190.608 95.3586 183.7 96.4216 178.115C97.7291 171.277 104.615 166.327 106.064 161.281C108.764 151.876 108.425 142.819 111.614 142.228C115.01 141.601 115.791 150.484 118.368 160.411C119.666 165.396 126.392 170.45 127.502 177.297C128.396 182.839 123.636 189.582 124.417 196.02C125.113 201.788 131.387 207.33 131.999 213.602C132.573 219.501 127.483 226 127.982 232.168C128.471 238.162 134.567 243.878 134.971 249.968C135.376 256.058 130.146 262.427 130.503 268.438C130.87 274.598 136.843 280.418 137.154 286.343C137.474 292.616 132.121 298.941 132.384 304.752C132.676 311.199 138.565 317.098 138.781 322.735C139.045 329.573 133.617 335.881 133.786 341.092C134.144 352.402 139.741 350.044 139.938 359.145L138.405 359.197Z" fill="#E5BB44"/>
<path d="M138.405 359.197H78.9528C80.091 352.472 84.7663 353.655 85.3872 343.232C85.6976 338.012 80.4391 331.487 80.9 324.597C81.2763 318.916 87.325 313.096 87.7953 306.597C88.2187 300.733 83.0919 294.225 83.5528 287.909C84.0326 281.941 90.1377 276.208 90.7115 269.996C91.2383 263.906 86.1774 257.372 86.7794 251.247C87.3814 245.122 93.6183 239.494 94.305 233.456C94.9917 227.253 90.0907 220.571 90.8432 214.638C91.6334 208.33 98.0678 202.884 98.9426 197.072C99.8833 190.608 95.3586 183.7 96.4216 178.115C97.7291 171.277 104.615 166.327 106.064 161.281C108.764 151.876 108.425 142.819 111.614 142.228C115.01 141.601 115.791 150.484 118.368 160.411C119.666 165.396 126.392 170.45 127.502 177.297C128.396 182.839 123.636 189.582 124.417 196.02C125.113 201.788 131.387 207.33 131.999 213.602C132.573 219.501 127.483 226 127.982 232.168C128.471 238.162 134.567 243.878 134.971 249.968C135.376 256.058 130.146 262.427 130.503 268.438C130.87 274.598 136.843 280.418 137.154 286.343C137.474 292.616 132.121 298.941 132.384 304.752C132.676 311.199 138.565 317.098 138.781 322.735C139.045 329.573 133.617 335.881 133.786 341.092C134.144 352.402 139.741 350.044 139.938 359.145L138.405 359.197Z" fill="url(#paint2_radial_480_4196)" fill-opacity="0.7"/>
<path d="M112.884 160.298V356.657" stroke="black" stroke-miterlimit="10"/>
<path d="M103.599 180.881L113.279 188.616L121.2 178.846" stroke="black" stroke-miterlimit="10"/>
<path d="M103.599 215.064L113.279 222.79L121.2 213.028" stroke="black" stroke-miterlimit="10"/>
<path d="M103.599 247.202L113.279 254.936L121.2 245.166" stroke="black" stroke-miterlimit="10"/>
<path d="M103.599 285.456L113.279 293.181L121.2 283.42" stroke="black" stroke-miterlimit="10"/>
<path d="M103.599 324.11L113.279 331.836L121.2 322.074" stroke="black" stroke-miterlimit="10"/>
<path d="M178.902 359.196H133.005C133.89 353.976 137.493 354.916 137.972 346.877C138.217 342.823 134.162 337.812 134.51 332.487C134.802 328.137 139.468 323.605 139.835 318.567C140.164 314.043 136.176 308.997 136.561 304.143C136.928 299.532 141.66 295.112 142.083 290.319C142.506 285.525 138.584 280.566 139.045 275.842C139.506 271.118 144.331 266.768 144.839 262.113C145.366 257.319 141.585 252.169 142.168 247.575C142.779 242.712 147.746 238.51 148.414 234.029C149.167 229.036 145.648 223.703 146.476 219.396C147.483 214.115 152.798 210.287 153.908 206.398C155.996 199.142 155.733 192.139 158.197 191.687C160.822 191.199 161.424 198.055 163.409 205.728C164.406 209.574 169.608 213.48 170.464 218.778C171.151 223.059 167.482 228.261 168.084 233.229C168.62 237.683 173.455 241.929 173.935 246.801C174.377 251.351 170.445 256.371 170.831 261.13C171.207 265.758 175.901 270.169 176.23 274.867C176.56 279.565 172.468 284.489 172.778 289.127C173.089 293.764 177.67 298.375 177.905 302.951C178.159 307.788 174.029 312.669 174.227 317.158C174.453 322.134 178.996 326.728 179.165 331.078C179.372 336.35 175.177 341.231 175.309 345.242C175.591 353.942 179.909 352.158 180.059 359.162L178.902 359.196Z" fill="#E5BB44"/>
<path d="M178.902 359.196H133.005C133.89 353.976 137.493 354.916 137.972 346.877C138.217 342.823 134.162 337.812 134.51 332.487C134.802 328.137 139.468 323.605 139.835 318.567C140.164 314.043 136.176 308.997 136.561 304.143C136.928 299.532 141.66 295.112 142.083 290.319C142.506 285.525 138.584 280.566 139.045 275.842C139.506 271.118 144.331 266.768 144.839 262.113C145.366 257.319 141.585 252.169 142.168 247.575C142.779 242.712 147.746 238.51 148.414 234.029C149.167 229.036 145.648 223.703 146.476 219.396C147.483 214.115 152.798 210.287 153.908 206.398C155.996 199.142 155.733 192.139 158.197 191.687C160.822 191.199 161.424 198.055 163.409 205.728C164.406 209.574 169.608 213.48 170.464 218.778C171.151 223.059 167.482 228.261 168.084 233.229C168.62 237.683 173.455 241.929 173.935 246.801C174.377 251.351 170.445 256.371 170.831 261.13C171.207 265.758 175.901 270.169 176.23 274.867C176.56 279.565 172.468 284.489 172.778 289.127C173.089 293.764 177.67 298.375 177.905 302.951C178.159 307.788 174.029 312.669 174.227 317.158C174.453 322.134 178.996 326.728 179.165 331.078C179.372 336.35 175.177 341.231 175.309 345.242C175.591 353.942 179.909 352.158 180.059 359.162L178.902 359.196Z" fill="url(#paint3_radial_480_4196)" fill-opacity="0.7"/>
<path d="M159.194 205.668V357.239" stroke="black" stroke-miterlimit="10"/>
<path d="M152.036 221.554L159.505 227.522L165.619 219.979" stroke="black" stroke-miterlimit="10"/>
<path d="M152.036 247.932L159.505 253.9L165.619 246.366" stroke="black" stroke-miterlimit="10"/>
<path d="M152.036 272.745L159.505 278.713L165.619 271.179" stroke="black" stroke-miterlimit="10"/>
<path d="M152.036 302.273L159.505 308.241L165.619 300.698" stroke="black" stroke-miterlimit="10"/>
<path d="M152.036 332.114L159.505 338.073L165.619 330.539" stroke="black" stroke-miterlimit="10"/>
<path d="M219.813 358.788V182.892H209.775V358.788" fill="#2E353A"/>
<path d="M219.813 358.788V182.892H209.775V358.788" stroke="#2E353A" stroke-linecap="round" stroke-linejoin="round"/>
<path d="M224.827 358.788V182.892H214.789V358.788" fill="#E5BB44"/>
<path d="M224.827 358.788V182.892H214.789V358.788" fill="url(#paint4_radial_480_4196)" fill-opacity="0.7"/>
<path d="M224.827 358.788V182.892H214.789V358.788" stroke="#2E353A" stroke-linecap="round" stroke-linejoin="round"/>
<g style="mix-blend-mode:multiply" opacity="0.3">
<path d="M214.789 182.892H224.827V203.772H214.789V182.892Z" fill="#2E353A"/>
</g>
<path d="M181.997 114.223H256.368L223.952 187.859H149.571V144.203C149.571 140.265 150.41 136.366 152.039 132.728C153.669 129.09 156.058 125.785 159.069 123.001C162.08 120.217 165.654 118.008 169.588 116.502C173.523 114.996 177.739 114.222 181.997 114.223Z" fill="#E5BB44"/>
<path d="M181.997 114.223H256.368L223.952 187.859H149.571V144.203C149.571 140.265 150.41 136.366 152.039 132.728C153.669 129.09 156.058 125.785 159.069 123.001C162.08 120.217 165.654 118.008 169.588 116.502C173.523 114.996 177.739 114.222 181.997 114.223Z" fill="url(#paint5_radial_480_4196)" fill-opacity="0.7"/>
<path d="M181.997 114.223H256.368L223.952 187.859H149.571V144.203C149.571 140.265 150.41 136.366 152.039 132.728C153.669 129.09 156.058 125.785 159.069 123.001C162.08 120.217 165.654 118.008 169.588 116.502C173.523 114.996 177.739 114.222 181.997 114.223Z" stroke="#2E353A" stroke-linecap="round" stroke-linejoin="round"/>
<g style="mix-blend-mode:multiply" opacity="0.3">
<path d="M229.624 174.966L223.98 187.859H149.571V144.202C149.571 143.541 149.571 142.88 149.646 142.228H229.605L229.624 174.966Z" fill="black"/>
</g>
<path d="M182.542 142.228H190.369" stroke="#2E353A" stroke-linecap="round" stroke-linejoin="round"/>
<path d="M149.646 142.228H173.333" stroke="#2E353A" stroke-linecap="round" stroke-linejoin="round"/>
<path d="M256.368 114.223C247.768 114.223 239.521 117.382 233.44 123.006C227.359 128.63 223.942 136.258 223.942 144.212V187.868H288.794V144.203C288.792 136.251 285.374 128.625 279.294 123.003C273.213 117.381 264.967 114.223 256.368 114.223Z" fill="#2E353A" stroke="#2E353A" stroke-linecap="round" stroke-linejoin="round"/>
<path d="M223.952 182.892H279.829V187.859H223.952V182.892Z" fill="#E5BB44"/>
<path d="M223.952 182.892H279.829V187.859H223.952V182.892Z" fill="url(#paint6_radial_480_4196)" fill-opacity="0.7"/>
<path d="M223.952 182.892H279.829V187.859H223.952V182.892Z" stroke="#2E353A" stroke-linecap="round" stroke-linejoin="round"/>
<path d="M223.952 182.892H339.592V187.859H223.952V182.892Z" fill="#E5BB44"/>
<path d="M223.952 182.892H339.592V187.859H223.952V182.892Z" fill="url(#paint7_radial_480_4196)" fill-opacity="0.7"/>
<path d="M223.952 182.892H339.592V187.859H223.952V182.892Z" stroke="#2E353A" stroke-linecap="round" stroke-linejoin="round"/>
<path opacity="0.3" d="M223.952 182.892H279.829V187.859H223.952V182.892Z" fill="black"/>
<path d="M177.162 96.4746H200.369V111.552H177.162V96.4746Z" fill="#2E353A" stroke="#2E353A" stroke-linecap="round" stroke-linejoin="round"/>
<path d="M198.487 96.4746H203.501V143.455H198.487V96.4746Z" fill="white" stroke="#2E353A" stroke-linecap="round" stroke-linejoin="round"/>
<path d="M200.999 149.832C197.882 149.832 195.355 147.495 195.355 144.612C195.355 141.729 197.882 139.392 200.999 139.392C204.116 139.392 206.643 141.729 206.643 144.612C206.643 147.495 204.116 149.832 200.999 149.832Z" fill="#2E353A" stroke="#2E353A" stroke-linecap="round" stroke-linejoin="round"/>
<path d="M283.771 126.28C270.676 132.431 247.911 142.288 226.915 147.247" stroke="white" stroke-linecap="round" stroke-linejoin="round" stroke-dasharray="2 4"/>
<path d="M294.758 120.93C294.758 120.93 290.563 123.122 283.771 126.315" stroke="#2E353A" stroke-linecap="round" stroke-linejoin="round" stroke-dasharray="2 4"/>
<path d="M299.471 120.608L290.055 99.9194L358.34 84.5117L299.471 120.608Z" fill="white" stroke="#2E353A" stroke-width="1.2629" stroke-linecap="round" stroke-linejoin="round"/>
<path d="M294.88 102.425L299.471 120.608L358.34 84.5117L294.88 102.425Z" fill="#E5BB44"/>
<path d="M294.88 102.425L299.471 120.608L358.34 84.5117L294.88 102.425Z" fill="url(#paint8_radial_480_4196)" fill-opacity="0.7"/>
<path d="M294.88 102.425L299.471 120.608L358.34 84.5117L294.88 102.425Z" stroke="#2E353A" stroke-width="1.2629" stroke-linecap="round" stroke-linejoin="round"/>
<path d="M294.88 102.425L305.595 110.916L358.34 84.5117L294.88 102.425Z" fill="white" stroke="#2E353A" stroke-width="1.2629" stroke-linecap="round" stroke-linejoin="round"/>
<path d="M290.055 99.9194L280.516 96.335L358.34 84.5117L290.055 99.9194Z" fill="white" stroke="#2E353A" stroke-width="1.2629" stroke-linecap="round" stroke-linejoin="round"/>
<path d="M312.735 117.389L310.524 118.641" stroke="#2E353A" stroke-linecap="round" stroke-linejoin="round"/>
<path d="M324.795 110.551L317.391 114.744" stroke="#2E353A" stroke-linecap="round" stroke-linejoin="round"/>
<path d="M333.11 160.211V137.773L263.706 148.092L333.11 160.211Z" fill="white" stroke="#2E353A" stroke-width="1.2629" stroke-linecap="round" stroke-linejoin="round"/>
<path d="M329.714 141.81L333.11 160.21L263.706 148.091L329.714 141.81Z" fill="#E5BB44"/>
<path d="M329.714 141.81L333.11 160.21L263.706 148.091L329.714 141.81Z" fill="url(#paint9_radial_480_4196)" fill-opacity="0.7"/>
<path d="M329.714 141.81L333.11 160.21L263.706 148.091L329.714 141.81Z" stroke="#2E353A" stroke-width="1.2629" stroke-linecap="round" stroke-linejoin="round"/>
<path d="M329.715 141.81L323.403 153.476L263.706 148.091L329.715 141.81Z" fill="white" stroke="#2E353A" stroke-width="1.2629" stroke-linecap="round" stroke-linejoin="round"/>
<path d="M333.11 137.773L340.391 131.039L263.706 148.091L333.11 137.773Z" fill="white" stroke="#2E353A" stroke-width="1.2629" stroke-linecap="round" stroke-linejoin="round"/>
<path d="M308.257 159.793L302.237 158.662" stroke="#2E353A" stroke-linecap="round" stroke-linejoin="round"/>
<path d="M329.404 163.769L314.268 160.924" stroke="#2E353A" stroke-linecap="round" stroke-linejoin="round"/>
<path d="M341.473 158.827C341.473 158.827 396.034 167.527 406.381 212.767C416.729 258.007 362.169 260.617 352.762 238.867C343.355 217.117 384.745 208.417 394.152 229.297C403.559 250.177 375.338 285.847 336.77 287.587C304.72 289.031 214.865 254.431 158.978 245.688C158.978 245.688 117.587 235.091 53.6197 237.414" stroke="#2E353A" stroke-linecap="round" stroke-linejoin="round" stroke-dasharray="2 4"/>
<path d="M72.1233 300.638H56.4418" stroke="#2E353A" stroke-linecap="round" stroke-linejoin="round"/>
<path d="M72.1233 322.092H56.4418" stroke="#2E353A" stroke-linecap="round" stroke-linejoin="round"/>
<path d="M402.308 321.518H74.0046V301.212H402.308" fill="white"/>
<path d="M402.308 321.518H74.0046V301.212H402.308" stroke="#2E353A" stroke-linecap="round" stroke-linejoin="round"/>
<path d="M379.487 358.928V256.773C379.487 256.522 379.432 256.274 379.325 256.044C379.218 255.814 379.062 255.606 378.866 255.433L370.287 247.959C369.9 247.625 369.387 247.446 368.858 247.461C368.33 247.475 367.829 247.683 367.465 248.038L359.939 255.441C359.598 255.786 359.407 256.236 359.403 256.703V358.928" fill="#2E353A"/>
<path d="M379.487 358.928V256.773C379.487 256.522 379.432 256.274 379.325 256.044C379.218 255.814 379.062 255.606 378.866 255.433L370.287 247.959C369.9 247.625 369.387 247.446 368.858 247.461C368.33 247.475 367.829 247.683 367.465 248.038L359.939 255.441C359.598 255.786 359.407 256.236 359.403 256.703V358.928" stroke="#2E353A" stroke-linecap="round" stroke-linejoin="round"/>
<path d="M381.923 359.798V256.772C381.923 256.521 381.868 256.272 381.759 256.041C381.651 255.811 381.492 255.604 381.293 255.432L372.714 247.959C372.523 247.793 372.299 247.663 372.053 247.576C371.808 247.49 371.547 247.45 371.285 247.457C371.023 247.464 370.765 247.519 370.526 247.619C370.287 247.718 370.071 247.861 369.892 248.037L362.366 255.441C362.021 255.783 361.829 256.234 361.83 256.703V359.798" fill="white"/>
<path d="M381.923 359.798V256.772C381.923 256.521 381.868 256.272 381.759 256.041C381.651 255.811 381.492 255.604 381.293 255.432L372.714 247.959C372.523 247.793 372.299 247.663 372.053 247.576C371.808 247.49 371.547 247.45 371.285 247.457C371.023 247.464 370.765 247.519 370.526 247.619C370.287 247.718 370.071 247.861 369.892 248.037L362.366 255.441C362.021 255.783 361.829 256.234 361.83 256.703V359.798" stroke="#2E353A" stroke-linecap="round" stroke-linejoin="round"/>
<path d="M307.147 358.928V256.772C307.147 256.522 307.092 256.274 306.985 256.043C306.879 255.813 306.722 255.605 306.526 255.432L297.938 247.959C297.747 247.793 297.523 247.663 297.278 247.576C297.032 247.49 296.771 247.45 296.509 247.457C296.247 247.464 295.989 247.519 295.75 247.619C295.511 247.718 295.295 247.861 295.116 248.037L287.59 255.441C287.245 255.783 287.053 256.234 287.054 256.703V358.928" fill="#2E353A"/>
<path d="M307.147 358.928V256.772C307.147 256.522 307.092 256.274 306.985 256.043C306.879 255.813 306.722 255.605 306.526 255.432L297.938 247.959C297.747 247.793 297.523 247.663 297.278 247.576C297.032 247.49 296.771 247.45 296.509 247.457C296.247 247.464 295.989 247.519 295.75 247.619C295.511 247.718 295.295 247.861 295.116 248.037L287.59 255.441C287.245 255.783 287.053 256.234 287.054 256.703V358.928" stroke="#2E353A" stroke-linecap="round" stroke-linejoin="round"/>
<path d="M309.179 359.798V256.773C309.179 256.521 309.123 256.272 309.015 256.042C308.906 255.811 308.748 255.604 308.549 255.433L299.97 247.959C299.583 247.625 299.07 247.446 298.541 247.461C298.012 247.475 297.511 247.683 297.147 248.038L289.622 255.441C289.274 255.783 289.079 256.234 289.076 256.703V359.798" fill="white"/>
<path d="M309.179 359.798V256.773C309.179 256.521 309.123 256.272 309.015 256.042C308.906 255.811 308.748 255.604 308.549 255.433L299.97 247.959C299.583 247.625 299.07 247.446 298.541 247.461C298.012 247.475 297.511 247.683 297.147 248.038L289.622 255.441C289.274 255.783 289.079 256.234 289.076 256.703V359.798" stroke="#2E353A" stroke-linecap="round" stroke-linejoin="round"/>
<path d="M234.403 358.928V256.773C234.403 256.521 234.348 256.272 234.239 256.042C234.131 255.811 233.972 255.604 233.773 255.433L225.194 247.959C224.807 247.625 224.294 247.446 223.765 247.461C223.237 247.475 222.736 247.683 222.372 248.038L214.846 255.441C214.498 255.783 214.303 256.234 214.3 256.703V359.798" fill="#2E353A"/>
<path d="M234.403 358.928V256.773C234.403 256.521 234.348 256.272 234.239 256.042C234.131 255.811 233.972 255.604 233.773 255.433L225.194 247.959C224.807 247.625 224.294 247.446 223.765 247.461C223.237 247.475 222.736 247.683 222.372 248.038L214.846 255.441C214.498 255.783 214.303 256.234 214.3 256.703V359.798" stroke="#2E353A" stroke-linecap="round" stroke-linejoin="round"/>
<path d="M236.426 359.798V256.772C236.425 256.522 236.37 256.274 236.264 256.043C236.157 255.813 236.001 255.605 235.805 255.432L227.216 247.959C227.025 247.793 226.801 247.663 226.556 247.576C226.311 247.49 226.05 247.45 225.787 247.457C225.525 247.464 225.267 247.519 225.028 247.619C224.789 247.718 224.574 247.861 224.394 248.037L216.868 255.441C216.523 255.783 216.331 256.234 216.332 256.703V359.798" fill="white"/>
<path d="M236.426 359.798V256.772C236.425 256.522 236.37 256.274 236.264 256.043C236.157 255.813 236.001 255.605 235.805 255.432L227.216 247.959C227.025 247.793 226.801 247.663 226.556 247.576C226.311 247.49 226.05 247.45 225.787 247.457C225.525 247.464 225.267 247.519 225.028 247.619C224.789 247.718 224.574 247.861 224.394 248.037L216.868 255.441C216.523 255.783 216.331 256.234 216.332 256.703V359.798" stroke="#2E353A" stroke-linecap="round" stroke-linejoin="round"/>
<path d="M161.649 358.928V256.773C161.649 256.522 161.594 256.274 161.487 256.044C161.381 255.814 161.225 255.606 161.029 255.433L152.449 247.959C152.063 247.625 151.55 247.446 151.021 247.461C150.492 247.475 149.991 247.683 149.627 248.038L142.102 255.441C141.76 255.786 141.569 256.236 141.566 256.703V358.928" fill="#2E353A"/>
<path d="M161.649 358.928V256.773C161.649 256.522 161.594 256.274 161.487 256.044C161.381 255.814 161.225 255.606 161.029 255.433L152.449 247.959C152.063 247.625 151.55 247.446 151.021 247.461C150.492 247.475 149.991 247.683 149.627 248.038L142.102 255.441C141.76 255.786 141.569 256.236 141.566 256.703V358.928" stroke="#2E353A" stroke-linecap="round" stroke-linejoin="round"/>
<path d="M163.681 359.798V256.772C163.682 256.521 163.626 256.272 163.517 256.041C163.409 255.811 163.25 255.604 163.051 255.432L154.472 247.959C154.281 247.793 154.057 247.663 153.812 247.576C153.567 247.49 153.306 247.45 153.043 247.457C152.781 247.464 152.523 247.519 152.284 247.619C152.045 247.718 151.829 247.861 151.65 248.037L144.124 255.441C143.779 255.783 143.587 256.234 143.588 256.703V359.798" fill="white"/>
<path d="M163.681 359.798V256.772C163.682 256.521 163.626 256.272 163.517 256.041C163.409 255.811 163.25 255.604 163.051 255.432L154.472 247.959C154.281 247.793 154.057 247.663 153.812 247.576C153.567 247.49 153.306 247.45 153.043 247.457C152.781 247.464 152.523 247.519 152.284 247.619C152.045 247.718 151.829 247.861 151.65 248.037L144.124 255.441C143.779 255.783 143.587 256.234 143.588 256.703V359.798" stroke="#2E353A" stroke-linecap="round" stroke-linejoin="round"/>
<path d="M88.9053 358.928V256.772C88.9051 256.522 88.85 256.274 88.7432 256.043C88.6365 255.813 88.4805 255.605 88.2844 255.432L79.6958 247.959C79.5051 247.793 79.2808 247.663 79.0356 247.576C78.7905 247.49 78.5294 247.45 78.2672 247.457C78.0051 247.464 77.7471 247.519 77.508 247.619C77.2688 247.718 77.0533 247.861 76.8737 248.037L69.3482 255.441C69.0028 255.783 68.8111 256.234 68.812 256.703V358.928" fill="#2E353A"/>
<path d="M88.9053 358.928V256.772C88.9051 256.522 88.85 256.274 88.7432 256.043C88.6365 255.813 88.4805 255.605 88.2844 255.432L79.6958 247.959C79.5051 247.793 79.2808 247.663 79.0356 247.576C78.7905 247.49 78.5294 247.45 78.2672 247.457C78.0051 247.464 77.7471 247.519 77.508 247.619C77.2688 247.718 77.0533 247.861 76.8737 248.037L69.3482 255.441C69.0028 255.783 68.8111 256.234 68.812 256.703V358.928" stroke="#2E353A" stroke-linecap="round" stroke-linejoin="round"/>
<path d="M90.9373 359.798V256.773C90.9375 256.521 90.8817 256.272 90.7732 256.042C90.6648 255.811 90.5061 255.604 90.307 255.433L81.7278 247.959C81.3415 247.625 80.828 247.446 80.2993 247.461C79.7707 247.475 79.2697 247.683 78.9057 248.038L71.3801 255.441C71.0321 255.783 70.8371 256.234 70.8345 256.703V359.798" fill="white"/>
<path d="M90.9373 359.798V256.773C90.9375 256.521 90.8817 256.272 90.7732 256.042C90.6648 255.811 90.5061 255.604 90.307 255.433L81.7278 247.959C81.3415 247.625 80.828 247.446 80.2993 247.461C79.7707 247.475 79.2697 247.683 78.9057 248.038L71.3801 255.441C71.0321 255.783 70.8371 256.234 70.8345 256.703V359.798" stroke="#2E353A" stroke-linecap="round" stroke-linejoin="round"/>
<path d="M369.901 248.037V255.484" stroke="#2E353A" stroke-linecap="round" stroke-linejoin="round"/>
<path d="M366.675 251.883V269.509" stroke="#2E353A" stroke-linecap="round" stroke-linejoin="round"/>
<path d="M305.219 253.327V275.625" stroke="#2E353A" stroke-linecap="round" stroke-linejoin="round"/>
<path d="M302.105 250.447V260.156" stroke="#2E353A" stroke-linecap="round" stroke-linejoin="round"/>
<path d="M227.216 247.959V269.874" stroke="#2E353A" stroke-linecap="round" stroke-linejoin="round"/>
<path d="M222.748 249.726V282.107" stroke="#2E353A" stroke-linecap="round" stroke-linejoin="round"/>
<path d="M160.125 253.327V277.783" stroke="#2E353A" stroke-linecap="round" stroke-linejoin="round"/>
<path d="M150.013 250.447V256.563" stroke="#2E353A" stroke-linecap="round" stroke-linejoin="round"/>
<path d="M84.2771 250.082V263.036" stroke="#2E353A" stroke-linecap="round" stroke-linejoin="round"/>
<path d="M75.7168 251.526V288.936" stroke="#2E353A" stroke-linecap="round" stroke-linejoin="round"/>
<path d="M91.2758 306.206H99.8362" stroke="#2E353A" stroke-linecap="round" stroke-linejoin="round"/>
<path d="M91.2757 312.321H121.228" stroke="#2E353A" stroke-linecap="round" stroke-linejoin="round"/>
<path d="M202.918 312.321H216.53" stroke="#2E353A" stroke-linecap="round" stroke-linejoin="round"/>
<path d="M274.486 312.321H288.098" stroke="#2E353A" stroke-linecap="round" stroke-linejoin="round"/>
<path d="M382.234 309.085H395.845" stroke="#2E353A" stroke-linecap="round" stroke-linejoin="round"/>
<path d="M382.234 314.836H387.68" stroke="#2E353A" stroke-linecap="round" stroke-linejoin="round"/>
<path d="M209.917 309.085H216.53" stroke="#2E353A" stroke-linecap="round" stroke-linejoin="round"/>
<path d="M282.266 315.915H288.879" stroke="#2E353A" stroke-linecap="round" stroke-linejoin="round"/>
<path d="M309.884 315.915H316.498" stroke="#2E353A" stroke-linecap="round" stroke-linejoin="round"/>
<path d="M64.8327 312.321H70.665" stroke="#2E353A" stroke-linecap="round" stroke-linejoin="round"/>
<path d="M57.0533 312.321H60.5527" stroke="#2E353A" stroke-linecap="round" stroke-linejoin="round"/>
<path d="M362.169 274.92C362.169 274.92 364.52 293.616 367.342 312.748C370.164 331.879 364.991 351.454 363.58 353.194" stroke="#2E353A" stroke-linecap="round" stroke-linejoin="round"/>
<path d="M371.472 312.766C371.02 309.033 370.644 306.676 370.644 306.676" stroke="#2E353A" stroke-linecap="round" stroke-linejoin="round"/>
<path d="M364.53 351.019C364.53 351.019 372.996 349.279 372.996 335.359C372.996 329.643 372.601 323.788 372.13 318.829" stroke="#2E353A" stroke-linecap="round" stroke-linejoin="round"/>
<path d="M293.498 252.735C293.498 252.735 291.616 254.04 294.909 268.83C298.201 283.62 297.731 305.37 293.498 317.55" stroke="#2E353A" stroke-linecap="round" stroke-linejoin="round"/>
<path d="M288.794 280.141C288.794 280.141 293.498 293.191 290.205 311.461" stroke="#2E353A" stroke-linecap="round" stroke-linejoin="round"/>
<path d="M235.174 288.396C235.174 288.396 232.823 301.012 230.471 314.053C228.119 327.094 230.001 345.373 231.882 350.149C233.763 354.925 235.645 358.849 235.645 358.849" stroke="#2E353A" stroke-linecap="round" stroke-linejoin="round"/>
<path d="M226.313 352.455C228.411 358.405 231.016 351.454 231.016 351.454" stroke="#2E353A" stroke-linecap="round" stroke-linejoin="round"/>
<path d="M226.398 307.98C226.398 307.98 221.967 329.13 224.469 345.051" stroke="#2E353A" stroke-linecap="round" stroke-linejoin="round"/>
<path d="M236.115 314.94C236.115 314.94 231.412 324.075 235.645 332.775" stroke="#2E353A" stroke-linecap="round" stroke-linejoin="round"/>
<path d="M148.348 316.228C147.718 318.887 146.892 321.503 145.874 324.058" stroke="#2E353A" stroke-linecap="round" stroke-linejoin="round"/>
<path d="M144.463 271.006C147.448 279.768 149.341 288.817 150.107 297.976C150.388 302.61 150.107 307.259 149.27 311.835" stroke="#2E353A" stroke-linecap="round" stroke-linejoin="round"/>
<path d="M153.399 311.008C153.399 311.008 149.166 325.798 146.815 331.018C144.463 336.238 145.403 348.844 148.226 354.934" stroke="#2E353A" stroke-linecap="round" stroke-linejoin="round"/>
<path d="M89.9211 277.53C89.9211 277.53 80.5142 293.19 89.4508 318.847" stroke="#2E353A" stroke-linecap="round" stroke-linejoin="round"/>
<path d="M81.2761 304.274C81.2197 309.164 81.69 315.358 83.8066 320.578C88.0397 331.018 89.9211 334.498 89.9211 334.498" stroke="#2E353A" stroke-linecap="round" stroke-linejoin="round"/>
<path d="M81.9253 295.801C81.9253 295.801 81.6149 297.671 81.4267 300.551" stroke="#2E353A" stroke-linecap="round" stroke-linejoin="round"/>
<defs>
<radialGradient id="paint0_radial_480_4196" cx="0" cy="0" r="1" gradientUnits="userSpaceOnUse" gradientTransform="translate(278.389 125.468) rotate(131.089) scale(195.833 212.637)">
<stop stop-color="white"/>
<stop offset="0.719012" stop-color="white" stop-opacity="0"/>
<stop offset="1" stop-color="white" stop-opacity="0"/>
</radialGradient>
<radialGradient id="paint1_radial_480_4196" cx="0" cy="0" r="1" gradientUnits="userSpaceOnUse" gradientTransform="translate(185.389 72.9489) rotate(153.103) scale(59.4659 52.5888)">
<stop stop-color="white"/>
<stop offset="0.719012" stop-color="white" stop-opacity="0"/>
<stop offset="1" stop-color="white" stop-opacity="0"/>
</radialGradient>
<radialGradient id="paint2_radial_480_4196" cx="0" cy="0" r="1" gradientUnits="userSpaceOnUse" gradientTransform="translate(117.961 178.363) rotate(99.3064) scale(145.395 50.8609)">
<stop stop-color="white"/>
<stop offset="0.719012" stop-color="white" stop-opacity="0"/>
<stop offset="1" stop-color="white" stop-opacity="0"/>
</radialGradient>
<radialGradient id="paint3_radial_480_4196" cx="0" cy="0" r="1" gradientUnits="userSpaceOnUse" gradientTransform="translate(163.103 219.584) rotate(99.3006) scale(112.25 39.2427)">
<stop stop-color="white"/>
<stop offset="0.719012" stop-color="white" stop-opacity="0"/>
<stop offset="1" stop-color="white" stop-opacity="0"/>
</radialGradient>
<radialGradient id="paint4_radial_480_4196" cx="0" cy="0" r="1" gradientUnits="userSpaceOnUse" gradientTransform="translate(221.21 212.208) rotate(91.9057) scale(116.368 8.47788)">
<stop stop-color="white"/>
<stop offset="0.719012" stop-color="white" stop-opacity="0"/>
<stop offset="1" stop-color="white" stop-opacity="0"/>
</radialGradient>
<radialGradient id="paint5_radial_480_4196" cx="0" cy="0" r="1" gradientUnits="userSpaceOnUse" gradientTransform="translate(217.883 126.495) rotate(130.22) scale(63.7649 68.9161)">
<stop stop-color="white"/>
<stop offset="0.719012" stop-color="white" stop-opacity="0"/>
<stop offset="1" stop-color="white" stop-opacity="0"/>
</radialGradient>
<radialGradient id="paint6_radial_480_4196" cx="0" cy="0" r="1" gradientUnits="userSpaceOnUse" gradientTransform="translate(259.693 183.72) rotate(171.331) scale(21.792 7.11771)">
<stop stop-color="white"/>
<stop offset="0.719012" stop-color="white" stop-opacity="0"/>
<stop offset="1" stop-color="white" stop-opacity="0"/>
</radialGradient>
<radialGradient id="paint7_radial_480_4196" cx="0" cy="0" r="1" gradientUnits="userSpaceOnUse" gradientTransform="translate(297.92 183.72) rotate(175.786) scale(44.7048 7.18051)">
<stop stop-color="white"/>
<stop offset="0.719012" stop-color="white" stop-opacity="0"/>
<stop offset="1" stop-color="white" stop-opacity="0"/>
</radialGradient>
<radialGradient id="paint8_radial_480_4196" cx="0" cy="0" r="1" gradientUnits="userSpaceOnUse" gradientTransform="translate(335.472 90.5278) rotate(135.71) scale(34.1794 37.4491)">
<stop stop-color="white"/>
<stop offset="0.719012" stop-color="white" stop-opacity="0"/>
<stop offset="1" stop-color="white" stop-opacity="0"/>
</radialGradient>
<radialGradient id="paint9_radial_480_4196" cx="0" cy="0" r="1" gradientUnits="userSpaceOnUse" gradientTransform="translate(308.1 144.876) rotate(155.55) scale(29.3944 24.2773)">
<stop stop-color="white"/>
<stop offset="0.719012" stop-color="white" stop-opacity="0"/>
<stop offset="1" stop-color="white" stop-opacity="0"/>
</radialGradient>
</defs>
</svg>
