<svg width="72" height="77" viewBox="0 0 72 77" fill="none" xmlns="http://www.w3.org/2000/svg">
<path opacity="0.15" d="M71.4624 38.1666L54.0856 76.3148H-0.000137329V1.80962C-0.000137329 1.20641 0.0731583 0.603207 0.12204 0H53.5479L71.4624 38.1483V38.1666Z" fill="#4F4F4F"/>
<path d="M49.2651 24.958H30.4626C27.6576 24.958 25.3776 26.8721 25.3776 29.2225V31.0524H16.2726C13.6926 31.0524 11.6001 32.8133 11.6001 34.98V47.0922C11.6001 49.2589 13.6926 51.0199 16.2726 51.0199H18.0876L24.2451 56.8769C24.3825 57.0107 24.5653 57.0848 24.7551 57.0836C24.8583 57.0856 24.9606 57.0647 25.0551 57.0224C25.1886 56.9617 25.3021 56.863 25.382 56.738C25.4618 56.6131 25.5046 56.4672 25.5051 56.318V51.0199H33.2376C35.8176 51.0199 37.9101 49.2589 37.9101 47.0922V46.9161H39.1101V52.8574C39.1102 53.0077 39.1537 53.1546 39.235 53.2798C39.3164 53.4051 39.432 53.5031 39.5676 53.5618C39.6592 53.6047 39.7593 53.6256 39.8601 53.623C40.0506 53.6235 40.2347 53.5527 40.3776 53.4239L47.2251 46.9161H49.2651C52.0701 46.9161 54.3501 45.0021 54.3501 42.6439V29.2225C54.3501 26.8721 52.0701 24.958 49.2651 24.958ZM36.4101 47.0922C36.4101 48.3938 34.9551 49.4886 33.2376 49.4886H24.7551C24.5562 49.4886 24.3654 49.5693 24.2248 49.7129C24.0841 49.8565 24.0051 50.0512 24.0051 50.2543V54.5571L18.8901 49.6954C18.7518 49.5632 18.5696 49.4893 18.3801 49.4886H16.2726C14.5251 49.4886 13.1001 48.4168 13.1001 47.0922V34.98C13.1001 33.6632 14.5251 32.5836 16.2726 32.5836H25.3776V42.6439C25.3776 45.0021 27.6576 46.9161 30.4626 46.9161H36.4101V47.0922ZM52.8501 42.6439C52.8501 44.1522 51.2376 45.3849 49.2651 45.3849H46.9251C46.7368 45.3845 46.5551 45.4554 46.4151 45.5839L40.6101 51.1041V46.1505C40.6111 46.0497 40.5924 45.9497 40.555 45.8563C40.5177 45.763 40.4625 45.6781 40.3927 45.6068C40.3228 45.5355 40.2397 45.4792 40.1483 45.4411C40.0568 45.403 39.9589 45.3839 39.8601 45.3849H30.4626C28.4901 45.3849 26.8776 44.1522 26.8776 42.6439V29.2225C26.8776 27.7143 28.4901 26.4893 30.4626 26.4893H49.2651C51.2376 26.4893 52.8501 27.7143 52.8501 29.2225V42.6439Z" fill="#D9D1D1"/>
<path d="M32.3074 32.9355C31.7522 32.9363 31.2097 33.105 30.7484 33.4204C30.2871 33.7357 29.9277 34.1836 29.7155 34.7073C29.5034 35.2311 29.4481 35.8073 29.5566 36.3631C29.6651 36.919 29.9325 37.4295 30.3251 37.8303C30.7177 38.231 31.2178 38.504 31.7623 38.6148C32.3068 38.7256 32.8712 38.6691 33.3843 38.4525C33.8974 38.236 34.3361 37.8691 34.645 37.3982C34.9539 36.9272 35.1192 36.3734 35.1199 35.8066C35.1197 35.0452 34.8234 34.3151 34.296 33.7767C33.7686 33.2383 33.0533 32.9357 32.3074 32.9355ZM32.3074 37.1388C32.0486 37.1381 31.7958 37.059 31.581 36.9115C31.3662 36.7641 31.199 36.555 31.1006 36.3105C31.0023 36.0661 30.9771 35.7974 31.0283 35.5384C31.0796 35.2794 31.2049 35.0417 31.3884 34.8554C31.572 34.6691 31.8055 34.5425 32.0595 34.4917C32.3136 34.4409 32.5766 34.4682 32.8155 34.57C33.0543 34.6718 33.2583 34.8436 33.4015 35.0637C33.5446 35.2839 33.6207 35.5424 33.6199 35.8066C33.618 36.1607 33.4788 36.4995 33.2329 36.7491C32.9869 36.9987 32.6542 37.1388 32.3074 37.1388Z" fill="#D9D1D1"/>
<path d="M39.8602 32.9355C39.305 32.9363 38.7625 33.105 38.3011 33.4204C37.8398 33.7357 37.4804 34.1836 37.2683 34.7073C37.0561 35.2311 37.0008 35.8073 37.1093 36.3631C37.2178 36.919 37.4853 37.4295 37.8778 37.8303C38.2704 38.231 38.7706 38.504 39.315 38.6148C39.8595 38.7256 40.424 38.6691 40.9371 38.4525C41.4501 38.236 41.8888 37.8691 42.1978 37.3982C42.5067 36.9272 42.6719 36.3734 42.6727 35.8066C42.6728 35.4296 42.6001 35.0562 42.4588 34.7078C42.3175 34.3594 42.1103 34.0429 41.8491 33.7762C41.5879 33.5096 41.2779 33.2981 40.9366 33.1539C40.5953 33.0096 40.2295 32.9354 39.8602 32.9355ZM39.8602 37.1388C39.6013 37.1381 39.3485 37.059 39.1337 36.9115C38.9189 36.7641 38.7517 36.555 38.6534 36.3105C38.555 36.0661 38.5298 35.7974 38.5811 35.5384C38.6323 35.2794 38.7576 35.0417 38.9412 34.8554C39.1247 34.6691 39.3583 34.5425 39.6123 34.4917C39.8663 34.4409 40.1294 34.4682 40.3682 34.57C40.6071 34.6718 40.811 34.8436 40.9542 35.0638C41.0974 35.2839 41.1734 35.5424 41.1727 35.8066C41.1726 35.9822 41.1385 36.156 41.0724 36.3181C41.0063 36.4802 40.9095 36.6273 40.7876 36.7511C40.6656 36.8749 40.5209 36.9729 40.3618 37.0394C40.2026 37.106 40.0322 37.1397 39.8602 37.1388Z" fill="#D9D1D1"/>
<path d="M47.4202 32.9355C46.865 32.9363 46.3225 33.105 45.8612 33.4204C45.3999 33.7357 45.0404 34.1836 44.8283 34.7073C44.6162 35.2311 44.5609 35.8073 44.6694 36.3631C44.7779 36.919 45.0453 37.4295 45.4379 37.8303C45.8305 38.231 46.3306 38.504 46.8751 38.6148C47.4196 38.7256 47.984 38.6691 48.4971 38.4525C49.0102 38.236 49.4489 37.8691 49.7578 37.3982C50.0667 36.9272 50.232 36.3734 50.2327 35.8066C50.2325 35.0452 49.9362 34.3151 49.4088 33.7767C48.8813 33.2383 48.1661 32.9357 47.4202 32.9355ZM47.4202 37.1388C47.1614 37.1381 46.9086 37.059 46.6938 36.9115C46.479 36.7641 46.3118 36.555 46.2134 36.3105C46.1151 36.0661 46.0899 35.7974 46.1411 35.5384C46.1923 35.2794 46.3177 35.0417 46.5012 34.8554C46.6848 34.6691 46.9183 34.5425 47.1723 34.4917C47.4264 34.4409 47.6894 34.4682 47.9283 34.57C48.1671 34.6718 48.3711 34.8436 48.5143 35.0637C48.6574 35.2839 48.7335 35.5424 48.7327 35.8066C48.7324 35.9821 48.6982 36.1559 48.6321 36.3179C48.5659 36.4799 48.4691 36.6269 48.3472 36.7507C48.2253 36.8744 48.0807 36.9724 47.9216 37.039C47.7625 37.1056 47.5922 37.1395 47.4202 37.1388Z" fill="#D9D1D1"/>
</svg>
