<svg width="72" height="78" viewBox="0 0 72 78" fill="none" xmlns="http://www.w3.org/2000/svg">
<path opacity="0.15" d="M71.4624 38.9302L54.0856 77.0785H-0.000137329V2.57329C-0.000137329 1.97008 0.0731583 1.36688 0.12204 0.763672H53.5479L71.4624 38.912V38.9302Z" fill="#4F4F4F"/>
<g clip-path="url(#clip0_480_2486)">
<mask id="mask0_480_2486" style="mask-type:luminance" maskUnits="userSpaceOnUse" x="10" y="20" width="41" height="41">
<path d="M50.9751 20.5205H10.9751V60.5205H50.9751V20.5205Z" fill="white"/>
</mask>
<g mask="url(#mask0_480_2486)">
<path d="M26.8084 52.1869C25.801 52.1869 22.6623 52.1869 20.3369 52.1869C19.098 52.1869 18.2936 50.883 18.8477 49.7749L20.2712 46.9279C20.7341 46.0022 20.975 44.9825 20.975 43.9475C20.975 42.6647 20.975 40.7592 20.975 38.8535C20.975 35.5202 22.6417 28.8535 30.975 28.8535C39.3084 28.8535 40.975 35.5202 40.975 38.8535C40.975 40.7592 40.975 42.6647 40.975 43.9475C40.975 44.9825 41.216 46.0022 41.6789 46.9279L43.1024 49.7749C43.6564 50.883 42.8505 52.1869 41.6117 52.1869H35.1417M26.8084 52.1869C26.8084 55.5202 28.475 57.1869 30.975 57.1869C33.475 57.1869 35.1417 55.5202 35.1417 52.1869M26.8084 52.1869C29.4119 52.1869 35.1417 52.1869 35.1417 52.1869" stroke="#D9D1D1" stroke-width="2.66667" stroke-linejoin="round"/>
<path d="M30.9751 28.8538V25.5205" stroke="#D9D1D1" stroke-width="2.66667" stroke-linecap="round" stroke-linejoin="round"/>
</g>
</g>
<defs>
<clipPath id="clip0_480_2486">
<rect width="40" height="40" fill="white" transform="translate(10.9751 20.5205)"/>
</clipPath>
</defs>
</svg>
