<svg width="72" height="77" viewBox="0 0 72 77" fill="none" xmlns="http://www.w3.org/2000/svg">
<path opacity="0.15" d="M71.4624 38.2808L54.0856 76.4291H-0.000137329V1.92388C-0.000137329 1.32067 0.0731583 0.717465 0.12204 0.114258H53.5479L71.4624 38.2625V38.2808Z" fill="#4F4F4F"/>
<path d="M30.4753 41.2357C35.8815 41.2357 40.264 36.7462 40.264 31.2082C40.264 25.6701 35.8815 21.1807 30.4753 21.1807C25.0691 21.1807 20.6865 25.6701 20.6865 31.2082C20.6865 36.7462 25.0691 41.2357 30.4753 41.2357Z" stroke="#D9D1D1" stroke-width="2.5" stroke-miterlimit="10"/>
<path d="M12.5376 59.6105L13.1697 56.023C13.9164 51.8798 16.0563 48.1355 19.2177 45.4405C22.3791 42.7455 26.3622 41.27 30.4751 41.2705C34.5929 41.2715 38.5799 42.7519 41.742 45.4539C44.9041 48.1559 47.0409 51.9084 47.7805 56.058L48.4126 59.6455" stroke="#D9D1D1" stroke-width="2.5" stroke-miterlimit="10"/>
</svg>
