<svg width="72" height="77" viewBox="0 0 72 77" fill="none" xmlns="http://www.w3.org/2000/svg">
<path opacity="0.15" d="M71.9653 38.816L54.5885 76.9643H0.502792V2.45903C0.502792 1.85582 0.576088 1.25262 0.624969 0.649414H54.0508L71.9653 38.7977V38.816Z" fill="#4F4F4F"/>
<path d="M53.6725 45.1301C53.0821 44.6816 52.3019 44.4955 51.5497 44.6134L35.746 47.0923L31.2572 43.0436C31.1082 42.9085 30.9058 42.833 30.6938 42.833H22.7251C22.7251 42.4363 22.3689 42.1143 21.9282 42.1143H18.7407H13.1626V43.5518H17.9438V53.6143H13.1626V55.0518H18.7407H21.9282C22.3689 55.0518 22.7251 54.7298 22.7251 54.333H24.9277L33.4471 58.1754C33.816 58.3415 34.2144 58.4249 34.6129 58.4241C35.0655 58.4241 35.5189 58.317 35.9245 58.1036L53.3092 48.9568C54.1052 48.537 54.6001 47.7593 54.6001 46.9277C54.6001 46.2327 54.2614 45.5772 53.6725 45.1301ZM21.1313 53.6143H19.5376V43.5518H21.1313V53.6143ZM52.5051 47.7155L35.1213 56.8616C34.8264 57.0168 34.4671 57.0276 34.1603 56.8896L25.4727 52.9717C25.362 52.9214 25.2392 52.8955 25.1157 52.8955H22.7251V44.2705H30.3639L36.6425 49.9328C36.9174 50.1815 37.0688 50.5114 37.0688 50.8622C37.0688 51.5874 36.4154 52.1768 35.6122 52.1768C35.2289 52.1768 34.8535 52.0366 34.5818 51.7915L30.4604 48.0749L29.3336 49.0912L33.455 52.8078C34.0312 53.3282 34.7962 53.6143 35.6122 53.6143C37.2936 53.6143 38.6626 52.3802 38.6626 50.8622C38.6626 50.1276 38.3454 49.4369 37.7693 48.9165L37.1246 48.335L51.8222 46.0293C52.1186 45.9826 52.4175 46.0566 52.6462 46.2298C52.8749 46.4038 53.0063 46.6582 53.0063 46.9277C53.0063 47.2504 52.8143 47.5523 52.5051 47.7155Z" fill="#D9D1D1"/>
<path d="M39.5133 24.94L30.5264 34.4727L31.8569 35.6392L40.8438 26.1066L39.5133 24.94Z" fill="#D9D1D1"/>
<path d="M32.4751 30.5205C33.8534 30.5205 34.9751 29.1745 34.9751 27.5205C34.9751 25.8665 33.8534 24.5205 32.4751 24.5205C31.0968 24.5205 29.9751 25.8665 29.9751 27.5205C29.9751 29.1745 31.0968 30.5205 32.4751 30.5205ZM32.4751 26.5205C32.9351 26.5205 33.3084 26.9695 33.3084 27.5205C33.3084 28.0715 32.9351 28.5205 32.4751 28.5205C32.0151 28.5205 31.6418 28.0715 31.6418 27.5205C31.6418 26.9695 32.0151 26.5205 32.4751 26.5205Z" fill="#D9D1D1"/>
<path d="M36.9751 33.0205C36.9751 34.3988 38.0968 35.5205 39.4751 35.5205C40.8534 35.5205 41.9751 34.3988 41.9751 33.0205C41.9751 31.6422 40.8534 30.5205 39.4751 30.5205C38.0968 30.5205 36.9751 31.6422 36.9751 33.0205ZM40.3084 33.0205C40.3084 33.4797 39.9351 33.8538 39.4751 33.8538C39.0151 33.8538 38.6418 33.4797 38.6418 33.0205C38.6418 32.5613 39.0151 32.1872 39.4751 32.1872C39.9351 32.1872 40.3084 32.5613 40.3084 33.0205Z" fill="#D9D1D1"/>
<path d="M33.9751 37.5205H30.9751V38.5205H33.9751V37.5205Z" fill="#D9D1D1"/>
<path d="M36.9751 37.5205H34.9751V38.5205H36.9751V37.5205Z" fill="#D9D1D1"/>
<path d="M40.9751 37.5205H37.9751V38.5205H40.9751V37.5205Z" fill="#D9D1D1"/>
</svg>
