<svg width="72" height="77" viewBox="0 0 72 77" fill="none" xmlns="http://www.w3.org/2000/svg">
<path opacity="0.15" d="M71.4624 38.1666L54.0856 76.3148H-0.000137329V1.80962C-0.000137329 1.20641 0.0731583 0.603207 0.12204 0H53.5479L71.4624 38.1483V38.1666Z" fill="#4F4F4F"/>
<path d="M32.9716 47.4168V49.397C32.9716 49.7168 32.85 50.0234 32.634 50.2495C32.4178 50.4757 32.1247 50.6028 31.819 50.6028C31.5134 50.6028 31.2203 50.4757 31.0043 50.2495C30.7881 50.0234 30.6668 49.7168 30.6668 49.397V47.3626C29.904 47.231 29.1744 46.94 28.5213 46.5071C27.8683 46.0742 27.3051 45.5083 26.8655 44.8428C26.6892 44.6412 26.5911 44.3779 26.5903 44.1046C26.5902 43.9487 26.6202 43.7945 26.6787 43.651C26.7372 43.5077 26.823 43.3781 26.9308 43.2705C27.0385 43.1629 27.166 43.079 27.3056 43.0244C27.4451 42.9697 27.5938 42.9454 27.7427 42.9528C27.8904 42.9519 28.0364 42.9854 28.1702 43.0507C28.3042 43.1161 28.4225 43.2116 28.5168 43.3308C29.0669 44.0828 29.8137 44.6516 30.6668 44.9686V40.397C28.3792 39.443 27.2267 38.0568 27.2267 36.2388C27.2612 35.2655 27.6267 34.3372 28.2574 33.621C28.8881 32.9048 29.7426 32.4481 30.6668 32.333V30.3348C30.6668 30.0149 30.7881 29.7079 31.0043 29.4818C31.2203 29.2556 31.5134 29.1289 31.819 29.1289C32.1247 29.1289 32.4178 29.2556 32.634 29.4818C32.85 29.7079 32.9716 30.0149 32.9716 30.3348V32.3149C33.6144 32.4186 34.2305 32.6567 34.7831 33.0154C35.3357 33.3742 35.8137 33.8462 36.188 34.4028C36.3397 34.611 36.4293 34.8613 36.4458 35.1226C36.4505 35.2769 36.4255 35.4308 36.3722 35.5748C36.3189 35.7188 36.2386 35.8498 36.1359 35.9607C36.0332 36.0714 35.9102 36.1598 35.7745 36.2199C35.6386 36.28 35.4926 36.311 35.345 36.3108C35.1913 36.3088 35.0396 36.2725 34.9002 36.2041C34.7607 36.1358 34.6369 36.0372 34.5368 35.915C34.1266 35.3788 33.586 34.968 32.9716 34.7267V38.7766L33.4016 38.9568C35.586 39.8388 36.9448 41.1346 36.9448 43.2046C36.9152 44.3026 36.4885 45.3482 35.7511 46.13C35.0138 46.9117 34.0203 47.3716 32.9716 47.4168ZM30.6668 37.733V34.8167C30.3892 34.9221 30.1501 35.1161 29.9834 35.3714C29.817 35.6264 29.7311 35.9299 29.738 36.2388C29.7521 36.5448 29.846 36.8409 30.0099 37.0949C30.1737 37.3489 30.4009 37.5508 30.6668 37.679V37.733ZM34.4508 43.2586C34.4508 42.3766 33.866 41.8546 32.9716 41.4586V45.0586C33.3939 44.9965 33.779 44.7724 34.0523 44.4297C34.3256 44.0872 34.4677 43.6505 34.4508 43.2046V43.2586Z" fill="#D9D1D1"/>
<path d="M32.4725 24.0166H21.1549C19.3302 24.0166 17.5804 24.7753 16.2901 26.1255C14.9999 27.4758 14.2749 29.307 14.2749 31.2166V49.2167C14.2749 51.1261 14.9999 52.9574 16.2901 54.3076C17.5804 55.658 19.3302 56.4167 21.1549 56.4167H41.7949C43.6196 56.4167 45.3696 55.658 46.6597 54.3076C47.9501 52.9574 48.6749 51.1261 48.6749 49.2167V38.2905" stroke="#D9D1D1" stroke-width="1.5" stroke-linecap="round" stroke-linejoin="round"/>
<path d="M38.9395 32.315L48.6747 22.127" stroke="#D9D1D1" stroke-width="1.5" stroke-linecap="round" stroke-linejoin="round"/>
<path d="M40.9014 22.127H48.6758V30.281" stroke="#D9D1D1" stroke-width="1.5" stroke-linecap="round" stroke-linejoin="round"/>
</svg>
