<svg width="28" height="28" viewBox="0 0 28 28" fill="none" xmlns="http://www.w3.org/2000/svg">
<path fill-rule="evenodd" clip-rule="evenodd" d="M12.8537 22.1666C12.4368 22.1666 12.0811 21.8571 12.0132 21.4351C11.9506 21.0937 11.711 20.8148 11.3887 20.7083C11.126 20.6157 10.8692 20.5067 10.6197 20.3816C10.3228 20.2258 9.9667 20.2492 9.69151 20.4423C9.35849 20.6878 8.901 20.6498 8.61089 20.3524L7.48249 19.1951C7.1788 18.8836 7.13935 18.3925 7.38921 18.0343C7.58191 17.7455 7.60966 17.3732 7.46201 17.0578C7.36472 16.8387 7.2789 16.6143 7.20494 16.3858C7.09899 16.0256 6.80657 15.7559 6.44622 15.6858C6.01168 15.6146 5.69088 15.2318 5.68751 14.7804V13.3326C5.6852 12.8124 6.05156 12.3674 6.55201 12.2826C6.93167 12.2085 7.24869 11.9418 7.39376 11.5744C7.43699 11.471 7.48249 11.3683 7.53026 11.2664C7.7232 10.8854 7.69656 10.4265 7.46087 10.0718C7.16613 9.65161 7.21139 9.07436 7.56779 8.70792L8.39704 7.85742C8.80602 7.43779 9.45105 7.38348 9.92129 7.72909L9.94744 7.74775C10.2986 7.99014 10.7454 8.03404 11.135 7.86442C11.5518 7.71055 11.8591 7.3432 11.9438 6.89725L11.9552 6.85759C12.0488 6.26722 12.5459 5.8335 13.1291 5.83325H14.1301C14.7289 5.83297 15.24 6.27725 15.338 6.88325L15.3562 6.96492C15.4366 7.39212 15.7279 7.74568 16.1252 7.89825C16.5081 8.0668 16.9484 8.02278 17.2923 7.78159L17.3491 7.73959C17.8316 7.38298 18.4949 7.43783 18.9155 7.86909L19.6788 8.65309C20.0613 9.04761 20.1094 9.668 19.7925 10.1196C19.5442 10.497 19.5126 10.982 19.7094 11.3901L19.7584 11.5068C19.9178 11.9052 20.2628 12.1939 20.6752 12.2744C21.2143 12.3646 21.6107 12.8413 21.6125 13.4014V14.6999C21.6124 15.1939 21.264 15.6153 20.7889 15.6963C20.3982 15.7731 20.08 16.0633 19.9597 16.4523C19.9066 16.6078 19.8474 16.7634 19.7822 16.9189C19.6304 17.2608 19.6642 17.6591 19.871 17.9689C20.1439 18.3584 20.1016 18.8933 19.7709 19.2324L18.7119 20.3198C18.4091 20.6303 17.9314 20.6703 17.5835 20.4143C17.293 20.2107 16.9168 20.1883 16.6053 20.3559C16.3833 20.4687 16.1554 20.5688 15.9228 20.6558C15.5974 20.7709 15.3575 21.0565 15.2949 21.4036C15.2285 21.8403 14.8635 22.1633 14.4326 22.1666H12.8537Z" stroke="white" stroke-linecap="round" stroke-linejoin="round"/>
<path fill-rule="evenodd" clip-rule="evenodd" d="M16.3037 13.9999C16.3037 15.5032 15.1156 16.7218 13.6499 16.7218C12.1842 16.7218 10.9961 15.5032 10.9961 13.9999C10.9961 12.4967 12.1842 11.2781 13.6499 11.2781C15.1156 11.2781 16.3037 12.4967 16.3037 13.9999Z" stroke="white" stroke-linecap="round" stroke-linejoin="round"/>
</svg>
