<svg width="80" height="80" viewBox="0 0 80 80" fill="none" xmlns="http://www.w3.org/2000/svg">
<circle cx="40" cy="40" r="39.5" fill="#131718"/>
<circle cx="40" cy="40" r="39.5" stroke="#E5BB44"/>
<circle cx="40" cy="40" r="39.5" stroke="url(#paint0_radial_480_2395)" stroke-opacity="0.7"/>
<path d="M39.9943 18.7748L44.9661 33.4104L45.1452 33.9378L45.6618 34.146L59.4108 39.6878L45.6618 45.2296L45.1452 45.4379L44.9661 45.9652L39.9943 60.6008L35.0225 45.9652L34.8434 45.4379L34.3268 45.2296L20.5778 39.6878L34.3268 34.146L34.8434 33.9378L35.0225 33.4104L39.9943 18.7748Z" stroke="#E5BB44" stroke-width="2.42831"/>
<path d="M39.9943 18.7748L44.9661 33.4104L45.1452 33.9378L45.6618 34.146L59.4108 39.6878L45.6618 45.2296L45.1452 45.4379L44.9661 45.9652L39.9943 60.6008L35.0225 45.9652L34.8434 45.4379L34.3268 45.2296L20.5778 39.6878L34.3268 34.146L34.8434 33.9378L35.0225 33.4104L39.9943 18.7748Z" stroke="url(#paint1_radial_480_2395)" stroke-opacity="0.7" stroke-width="2.42831"/>
<defs>
<radialGradient id="paint0_radial_480_2395" cx="0" cy="0" r="1" gradientUnits="userSpaceOnUse" gradientTransform="translate(28.8288 13.3333) rotate(59.7539) scale(61.2316 58.4051)">
<stop stop-color="white"/>
<stop offset="0.719012" stop-color="white" stop-opacity="0"/>
<stop offset="1" stop-color="white" stop-opacity="0"/>
</radialGradient>
<radialGradient id="paint1_radial_480_2395" cx="0" cy="0" r="1" gradientUnits="userSpaceOnUse" gradientTransform="translate(33.6646 23.2293) rotate(61.84) scale(37.0304 33.7731)">
<stop stop-color="white"/>
<stop offset="0.719012" stop-color="white" stop-opacity="0"/>
<stop offset="1" stop-color="white" stop-opacity="0"/>
</radialGradient>
</defs>
</svg>
