<svg width="72" height="77" viewBox="0 0 72 77" fill="none" xmlns="http://www.w3.org/2000/svg">
<path opacity="0.15" d="M71.9653 38.6314L54.5885 76.7797H0.502792V2.27446C0.502792 1.67125 0.576088 1.06805 0.624969 0.464844H54.0508L71.9653 38.6131V38.6314Z" fill="#4F4F4F"/>
<path d="M44.1693 55.5363C44.1838 55.5251 44.2016 55.519 44.22 55.519C44.2383 55.519 44.2562 55.5251 44.2707 55.5363L47.4051 58.5877C47.4051 58.5877 47.5157 58.5877 47.5157 58.5232V17.4629H15.4344V58.4495C15.433 58.4639 15.4359 58.4785 15.4427 58.4914C15.4496 58.5042 15.4601 58.5147 15.4729 58.5216C15.4857 58.5285 15.5002 58.5315 15.5147 58.5301C15.5292 58.5288 15.543 58.5231 15.5543 58.514L19.5921 55.481C19.6052 55.4705 19.6214 55.4648 19.6382 55.4648C19.6549 55.4648 19.6712 55.4705 19.6843 55.481L23.8604 58.5509C23.8741 58.5638 23.8922 58.5711 23.9111 58.5711C23.9299 58.5711 23.9481 58.5638 23.9618 58.5509L27.6493 55.481C27.6493 55.481 27.7138 55.481 27.7507 55.481L31.9176 58.5416C31.9313 58.5546 31.9494 58.5618 31.9683 58.5618C31.9871 58.5618 32.0053 58.5546 32.019 58.5416L35.8908 55.5363C35.9061 55.5227 35.9257 55.5152 35.9462 55.5152C35.9666 55.5152 35.9863 55.5227 36.0015 55.5363L40.1591 58.5877C40.1743 58.6013 40.194 58.6089 40.2144 58.6089C40.2348 58.6089 40.2545 58.6013 40.2698 58.5877L43.9573 55.5455" stroke="#D9D1D1" stroke-width="2" stroke-linecap="round"/>
<path d="M19.2324 37.2002H31.4934" stroke="#D9D1D1" stroke-width="2" stroke-linecap="round"/>
<path d="M19.2324 32.2773H33.9548" stroke="#D9D1D1" stroke-width="2" stroke-linecap="round"/>
<path d="M19.2324 22.3486H35.2085" stroke="#D9D1D1" stroke-width="2" stroke-linecap="round"/>
<path d="M19.2324 27.0596H32.5351" stroke="#D9D1D1" stroke-width="2" stroke-linecap="round"/>
<path d="M39.7812 37.0527H43.7177" stroke="#D9D1D1" stroke-width="2" stroke-linecap="round"/>
<path d="M19.2324 42.4551H33.9548" stroke="#D9D1D1" stroke-width="2" stroke-linecap="round"/>
<path d="M40.5649 42.3164H43.7178" stroke="#D9D1D1" stroke-width="2" stroke-linecap="round"/>
<path d="M39.7812 47.7559H43.7177" stroke="#D9D1D1" stroke-width="2" stroke-linecap="round"/>
<path d="M39.7812 32.1299H43.7177" stroke="#D9D1D1" stroke-width="2" stroke-linecap="round"/>
<path d="M40.5649 27.0596H43.7178" stroke="#D9D1D1" stroke-width="2" stroke-linecap="round"/>
<path d="M39.7812 22.3486H43.7177" stroke="#D9D1D1" stroke-width="2" stroke-linecap="round"/>
</svg>
