<svg width="89" height="89" viewBox="0 0 89 89" fill="none" xmlns="http://www.w3.org/2000/svg">
<path d="M58.8752 30.125L46.896 42.1042M58.8752 30.125V15.75L73.2502 1.375V15.75H87.6252L73.2502 30.125H58.8752Z" stroke="#E54444" stroke-width="2" stroke-linecap="round" stroke-linejoin="round"/>
<path d="M58.8752 30.125L46.896 42.1042M58.8752 30.125V15.75L73.2502 1.375V15.75H87.6252L73.2502 30.125H58.8752Z" stroke="url(#paint0_radial_480_2399)" stroke-opacity="0.7" stroke-width="2" stroke-linecap="round" stroke-linejoin="round"/>
<path d="M46.0813 1.375H44.5C35.9707 1.375 27.6329 3.90424 20.5411 8.64287C13.4492 13.3815 7.92174 20.1167 4.65771 27.9968C1.39369 35.8768 0.539667 44.5478 2.20365 52.9133C3.86764 61.2787 7.9749 68.9628 14.006 74.994C20.0372 81.0251 27.7213 85.1324 36.0868 86.7964C44.4522 88.4604 53.1232 87.6063 61.0032 84.3423C68.8833 81.0783 75.6185 75.5508 80.3572 68.459C85.0958 61.3671 87.625 53.0293 87.625 44.5C87.625 43.9729 87.625 43.4458 87.625 42.9187" stroke="#E5BB44" stroke-width="2" stroke-linecap="round" stroke-linejoin="round"/>
<path d="M46.0813 1.375H44.5C35.9707 1.375 27.6329 3.90424 20.5411 8.64287C13.4492 13.3815 7.92174 20.1167 4.65771 27.9968C1.39369 35.8768 0.539667 44.5478 2.20365 52.9133C3.86764 61.2787 7.9749 68.9628 14.006 74.994C20.0372 81.0251 27.7213 85.1324 36.0868 86.7964C44.4522 88.4604 53.1232 87.6063 61.0032 84.3423C68.8833 81.0783 75.6185 75.5508 80.3572 68.459C85.0958 61.3671 87.625 53.0293 87.625 44.5C87.625 43.9729 87.625 43.4458 87.625 42.9187" stroke="url(#paint1_radial_480_2399)" stroke-opacity="0.7" stroke-width="2" stroke-linecap="round" stroke-linejoin="round"/>
<path d="M67.9792 49.2913C67.1125 53.5315 65.1135 57.4578 62.1944 60.653C59.2753 63.8482 55.5453 66.1931 51.4005 67.4385C47.2557 68.6839 42.8509 68.7833 38.6542 67.7262C34.4574 66.6691 30.6253 64.4949 27.5651 61.4346C24.5048 58.3744 22.3307 54.5423 21.2735 50.3455C20.2164 46.1488 20.3158 41.744 21.5612 37.5992C22.8066 33.4544 25.1515 29.7244 28.3467 26.8053C31.5419 23.8862 35.4682 21.8872 39.7084 21.0205" stroke="#E5BB44" stroke-width="2" stroke-linecap="round" stroke-linejoin="round"/>
<path d="M67.9792 49.2913C67.1125 53.5315 65.1135 57.4578 62.1944 60.653C59.2753 63.8482 55.5453 66.1931 51.4005 67.4385C47.2557 68.6839 42.8509 68.7833 38.6542 67.7262C34.4574 66.6691 30.6253 64.4949 27.5651 61.4346C24.5048 58.3744 22.3307 54.5423 21.2735 50.3455C20.2164 46.1488 20.3158 41.744 21.5612 37.5992C22.8066 33.4544 25.1515 29.7244 28.3467 26.8053C31.5419 23.8862 35.4682 21.8872 39.7084 21.0205" stroke="url(#paint2_radial_480_2399)" stroke-opacity="0.7" stroke-width="2" stroke-linecap="round" stroke-linejoin="round"/>
<defs>
<radialGradient id="paint0_radial_480_2399" cx="0" cy="0" r="1" gradientUnits="userSpaceOnUse" gradientTransform="translate(61.5732 8.16319) rotate(59.7539) scale(31.1739 29.7349)">
<stop stop-color="white"/>
<stop offset="0.719012" stop-color="white" stop-opacity="0"/>
<stop offset="1" stop-color="white" stop-opacity="0"/>
</radialGradient>
<radialGradient id="paint1_radial_480_2399" cx="0" cy="0" r="1" gradientUnits="userSpaceOnUse" gradientTransform="translate(32.4561 15.75) rotate(59.7539) scale(66.0154 62.968)">
<stop stop-color="white"/>
<stop offset="0.719012" stop-color="white" stop-opacity="0"/>
<stop offset="1" stop-color="white" stop-opacity="0"/>
</radialGradient>
<radialGradient id="paint2_radial_480_2399" cx="0" cy="0" r="1" gradientUnits="userSpaceOnUse" gradientTransform="translate(37.6402 28.9257) rotate(59.7539) scale(36.3038 34.6279)">
<stop stop-color="white"/>
<stop offset="0.719012" stop-color="white" stop-opacity="0"/>
<stop offset="1" stop-color="white" stop-opacity="0"/>
</radialGradient>
</defs>
</svg>
