<svg width="130" height="131" viewBox="0 0 130 131" fill="none" xmlns="http://www.w3.org/2000/svg">
<path d="M65 0.0175781C82.2189 0.0175781 97.8616 6.72476 109.49 17.6549L111.719 15.4266V10.1738C111.719 9.83258 111.822 9.52789 111.971 9.24555C111.999 9.11758 112.07 8.97945 112.233 8.81695L120.437 0.612734H120.439C120.807 0.243047 121.314 0.0175781 121.875 0.0175781C122.998 0.0175781 123.906 0.925547 123.906 2.04883V6.11133H127.969C129.092 6.11133 130 7.0193 130 8.14258C130 8.7032 129.772 9.21101 129.405 9.57867V9.5807L121.282 17.7016L121.278 17.7057L121.197 17.787C121.034 17.9495 120.898 18.0205 120.77 18.049C120.49 18.1952 120.183 18.2988 119.844 18.2988H114.591L112.363 20.5271C123.293 32.156 130 47.7987 130 65.0176C130 100.916 100.898 130.018 65 130.018C29.1017 130.018 0 100.916 0 65.0176C0 29.1193 29.1017 0.0175781 65 0.0175781ZM115.781 14.2363H119.001L123.057 10.182L119.844 10.1738L119.819 6.97664L115.781 11.0148V14.2363ZM65 125.955C98.6538 125.955 125.938 98.6713 125.938 65.0176C125.938 48.922 119.685 34.2909 109.49 23.3993L103.746 29.1437C112.472 38.5646 117.812 51.1645 117.812 65.0176C117.812 94.1843 94.1667 117.83 65 117.83C35.8333 117.83 12.1875 94.1843 12.1875 65.0176C12.1875 35.8509 35.8333 12.2051 65 12.2051C78.8531 12.2051 91.453 17.5452 100.874 26.2715L106.618 20.5271C95.7247 10.3323 81.0977 4.08008 65 4.08008C31.3462 4.08008 4.0625 31.3638 4.0625 65.0176C4.0625 98.6713 31.3462 125.955 65 125.955ZM95.093 37.7968C101.617 45.0016 105.625 54.5302 105.625 65.0176C105.625 87.4548 87.4372 105.643 65 105.643C42.5628 105.643 24.375 87.4548 24.375 65.0176C24.375 42.5804 42.5628 24.3926 65 24.3926C75.4873 24.3926 85.0159 28.4002 92.2208 34.9246L98.0017 29.1457C89.3181 21.1507 77.7319 16.2676 65 16.2676C38.0758 16.2676 16.25 38.0934 16.25 65.0176C16.25 91.9418 38.0758 113.768 65 113.768C91.9242 113.768 113.75 91.9418 113.75 65.0176C113.75 52.2857 108.865 40.6974 100.874 32.0179L95.093 37.7968ZM86.4764 46.4134C90.8009 51.4021 93.4375 57.896 93.4375 65.0176C93.4375 80.7232 80.7056 93.4551 65 93.4551C49.2944 93.4551 36.5625 80.7232 36.5625 65.0176C36.5625 49.312 49.2944 36.5801 65 36.5801C72.1216 36.5801 78.6155 39.2166 83.6042 43.5412L89.3486 37.7968C82.8811 32.0057 74.3641 28.4551 65 28.4551C44.8073 28.4551 28.4375 44.8249 28.4375 65.0176C28.4375 85.2102 44.8073 101.58 65 101.58C85.1927 101.58 101.562 85.2102 101.562 65.0176C101.562 55.6535 98.0119 47.1365 92.2208 40.669L86.4764 46.4134ZM77.8253 55.0645C79.9642 57.8168 81.25 61.2618 81.25 65.0176C81.25 73.9916 73.9741 81.2676 65 81.2676C56.0259 81.2676 48.75 73.9916 48.75 65.0176C48.75 56.0435 56.0259 48.7676 65 48.7676C68.7558 48.7676 72.2008 50.0534 74.9531 52.1923L80.73 46.4154C76.4827 42.8201 70.9983 40.6426 65 40.6426C51.5389 40.6426 40.625 51.5565 40.625 65.0176C40.625 78.4787 51.5389 89.3926 65 89.3926C78.4611 89.3926 89.375 78.4787 89.375 65.0176C89.375 59.0193 87.1975 53.5349 83.6022 49.2876L77.8253 55.0645ZM66.4361 66.4537C65.6419 67.2479 64.3581 67.2479 63.5639 66.4537C62.7697 65.6595 62.7697 64.3757 63.5639 63.5815L72.0545 55.0909C70.0619 53.673 67.6325 52.8301 65 52.8301C58.2705 52.8301 52.8125 58.288 52.8125 65.0176C52.8125 71.7471 58.2705 77.2051 65 77.2051C71.7295 77.2051 77.1875 71.7471 77.1875 65.0176C77.1875 62.3871 76.3445 59.9557 74.9267 57.963L66.4361 66.4537Z" fill="#E5BB44"/>
<path d="M65 0.0175781C82.2189 0.0175781 97.8616 6.72476 109.49 17.6549L111.719 15.4266V10.1738C111.719 9.83258 111.822 9.52789 111.971 9.24555C111.999 9.11758 112.07 8.97945 112.233 8.81695L120.437 0.612734H120.439C120.807 0.243047 121.314 0.0175781 121.875 0.0175781C122.998 0.0175781 123.906 0.925547 123.906 2.04883V6.11133H127.969C129.092 6.11133 130 7.0193 130 8.14258C130 8.7032 129.772 9.21101 129.405 9.57867V9.5807L121.282 17.7016L121.278 17.7057L121.197 17.787C121.034 17.9495 120.898 18.0205 120.77 18.049C120.49 18.1952 120.183 18.2988 119.844 18.2988H114.591L112.363 20.5271C123.293 32.156 130 47.7987 130 65.0176C130 100.916 100.898 130.018 65 130.018C29.1017 130.018 0 100.916 0 65.0176C0 29.1193 29.1017 0.0175781 65 0.0175781ZM115.781 14.2363H119.001L123.057 10.182L119.844 10.1738L119.819 6.97664L115.781 11.0148V14.2363ZM65 125.955C98.6538 125.955 125.938 98.6713 125.938 65.0176C125.938 48.922 119.685 34.2909 109.49 23.3993L103.746 29.1437C112.472 38.5646 117.812 51.1645 117.812 65.0176C117.812 94.1843 94.1667 117.83 65 117.83C35.8333 117.83 12.1875 94.1843 12.1875 65.0176C12.1875 35.8509 35.8333 12.2051 65 12.2051C78.8531 12.2051 91.453 17.5452 100.874 26.2715L106.618 20.5271C95.7247 10.3323 81.0977 4.08008 65 4.08008C31.3462 4.08008 4.0625 31.3638 4.0625 65.0176C4.0625 98.6713 31.3462 125.955 65 125.955ZM95.093 37.7968C101.617 45.0016 105.625 54.5302 105.625 65.0176C105.625 87.4548 87.4372 105.643 65 105.643C42.5628 105.643 24.375 87.4548 24.375 65.0176C24.375 42.5804 42.5628 24.3926 65 24.3926C75.4873 24.3926 85.0159 28.4002 92.2208 34.9246L98.0017 29.1457C89.3181 21.1507 77.7319 16.2676 65 16.2676C38.0758 16.2676 16.25 38.0934 16.25 65.0176C16.25 91.9418 38.0758 113.768 65 113.768C91.9242 113.768 113.75 91.9418 113.75 65.0176C113.75 52.2857 108.865 40.6974 100.874 32.0179L95.093 37.7968ZM86.4764 46.4134C90.8009 51.4021 93.4375 57.896 93.4375 65.0176C93.4375 80.7232 80.7056 93.4551 65 93.4551C49.2944 93.4551 36.5625 80.7232 36.5625 65.0176C36.5625 49.312 49.2944 36.5801 65 36.5801C72.1216 36.5801 78.6155 39.2166 83.6042 43.5412L89.3486 37.7968C82.8811 32.0057 74.3641 28.4551 65 28.4551C44.8073 28.4551 28.4375 44.8249 28.4375 65.0176C28.4375 85.2102 44.8073 101.58 65 101.58C85.1927 101.58 101.562 85.2102 101.562 65.0176C101.562 55.6535 98.0119 47.1365 92.2208 40.669L86.4764 46.4134ZM77.8253 55.0645C79.9642 57.8168 81.25 61.2618 81.25 65.0176C81.25 73.9916 73.9741 81.2676 65 81.2676C56.0259 81.2676 48.75 73.9916 48.75 65.0176C48.75 56.0435 56.0259 48.7676 65 48.7676C68.7558 48.7676 72.2008 50.0534 74.9531 52.1923L80.73 46.4154C76.4827 42.8201 70.9983 40.6426 65 40.6426C51.5389 40.6426 40.625 51.5565 40.625 65.0176C40.625 78.4787 51.5389 89.3926 65 89.3926C78.4611 89.3926 89.375 78.4787 89.375 65.0176C89.375 59.0193 87.1975 53.5349 83.6022 49.2876L77.8253 55.0645ZM66.4361 66.4537C65.6419 67.2479 64.3581 67.2479 63.5639 66.4537C62.7697 65.6595 62.7697 64.3757 63.5639 63.5815L72.0545 55.0909C70.0619 53.673 67.6325 52.8301 65 52.8301C58.2705 52.8301 52.8125 58.288 52.8125 65.0176C52.8125 71.7471 58.2705 77.2051 65 77.2051C71.7295 77.2051 77.1875 71.7471 77.1875 65.0176C77.1875 62.3871 76.3445 59.9557 74.9267 57.963L66.4361 66.4537Z" fill="url(#paint0_radial_480_2609)" fill-opacity="0.7"/>
<defs>
<radialGradient id="paint0_radial_480_2609" cx="0" cy="0" r="1" gradientUnits="userSpaceOnUse" gradientTransform="translate(83.1532 21.6842) rotate(120.246) scale(99.5014 94.9083)">
<stop stop-color="white"/>
<stop offset="0.719012" stop-color="white" stop-opacity="0"/>
<stop offset="1" stop-color="white" stop-opacity="0"/>
</radialGradient>
</defs>
</svg>
