<svg width="29" height="24" viewBox="0 0 29 24" fill="none" xmlns="http://www.w3.org/2000/svg">
<path d="M9.28874 23.5C6.05374 23.5 3.03817 22.5591 0.5 20.9356C2.65499 21.0751 6.45807 20.7411 8.82358 18.4848C5.26508 18.3215 3.66026 15.5923 3.45094 14.426C3.75329 14.5426 5.1953 14.6826 6.00934 14.356C1.9159 13.3296 1.28793 9.73732 1.42748 8.64097C2.195 9.17749 3.49745 9.3641 4.00913 9.31744C0.194793 6.58823 1.56703 2.48276 2.24151 1.59635C4.97882 5.38867 9.0812 7.51857 14.1564 7.63704C14.0607 7.21736 14.0102 6.78042 14.0102 6.33164C14.0102 3.11092 16.6134 0.5 19.8247 0.5C21.5025 0.5 23.0144 1.21275 24.0757 2.35284C25.1969 2.09011 26.8843 1.47507 27.7092 0.943205C27.2934 2.43611 25.9989 3.68149 25.2159 4.14308C25.2224 4.15878 25.2095 4.12731 25.2159 4.14308C25.9037 4.03904 27.7648 3.68137 28.5 3.18256C28.1364 4.02125 26.764 5.41573 25.6377 6.19642C25.8473 15.4381 18.7765 23.5 9.28874 23.5Z" fill="#47ACDF"/>
</svg>
