<svg width="80" height="80" viewBox="0 0 80 80" fill="none" xmlns="http://www.w3.org/2000/svg">
<circle cx="40" cy="40" r="39.5" fill="#23221A"/>
<circle cx="40" cy="40" r="39.5" stroke="#E5BB44"/>
<circle cx="40" cy="40" r="39.5" stroke="url(#paint0_radial_809_1928)" stroke-opacity="0.7"/>
<path d="M50 28.75C50.3315 28.75 50.6495 28.6183 50.8839 28.3839C51.1183 28.1495 51.25 27.8315 51.25 27.5C51.25 27.1685 51.1183 26.8505 50.8839 26.6161C50.6495 26.3817 50.3315 26.25 50 26.25H30C29.6685 26.25 29.3505 26.3817 29.1161 26.6161C28.8817 26.8505 28.75 27.1685 28.75 27.5C28.75 27.8315 28.8817 28.1495 29.1161 28.3839C29.3505 28.6183 29.6685 28.75 30 28.75H31.3112C31.4937 31.045 32.24 35.9375 35.3038 38.75C32.0725 41.8888 31.415 48.4175 31.2838 51.25H30C29.6685 51.25 29.3505 51.3817 29.1161 51.6161C28.8817 51.8505 28.75 52.1685 28.75 52.5C28.75 52.8315 28.8817 53.1495 29.1161 53.3839C29.3505 53.6183 29.6685 53.75 30 53.75H50C50.3315 53.75 50.6495 53.6183 50.8839 53.3839C51.1183 53.1495 51.25 52.8315 51.25 52.5C51.25 52.1685 51.1183 51.8505 50.8839 51.6161C50.6495 51.3817 50.3315 51.25 50 51.25H48.7162C48.585 48.42 47.9275 41.8913 44.6962 38.75C47.76 35.935 48.5063 31.0425 48.6888 28.75H50ZM41.975 37.6575C41.7764 37.7678 41.6116 37.9301 41.4984 38.127C41.3851 38.3239 41.3276 38.5479 41.3321 38.775C41.3366 39.0021 41.4029 39.2237 41.5239 39.416C41.6449 39.6083 41.816 39.7639 42.0187 39.8662C45.065 41.4012 46.0187 47.755 46.2125 51.25H33.7875C33.9763 47.75 34.935 41.4012 37.9813 39.8662C38.184 39.7639 38.3551 39.6083 38.4761 39.416C38.5971 39.2237 38.6634 39.0021 38.6679 38.775C38.6724 38.5479 38.6149 38.3239 38.5016 38.127C38.3884 37.9301 38.2236 37.7678 38.025 37.6575C34.8512 35.8962 34.0338 31.055 33.8225 28.75H46.1775C45.9662 31.055 45.1488 35.8962 41.975 37.6575ZM40 41.25C40 41.25 43.75 44.25 43.75 45.75V50H36.25V45.75C36.25 44.25 40 41.25 40 41.25Z" fill="#E5BB44"/>
<path d="M50 28.75C50.3315 28.75 50.6495 28.6183 50.8839 28.3839C51.1183 28.1495 51.25 27.8315 51.25 27.5C51.25 27.1685 51.1183 26.8505 50.8839 26.6161C50.6495 26.3817 50.3315 26.25 50 26.25H30C29.6685 26.25 29.3505 26.3817 29.1161 26.6161C28.8817 26.8505 28.75 27.1685 28.75 27.5C28.75 27.8315 28.8817 28.1495 29.1161 28.3839C29.3505 28.6183 29.6685 28.75 30 28.75H31.3112C31.4937 31.045 32.24 35.9375 35.3038 38.75C32.0725 41.8888 31.415 48.4175 31.2838 51.25H30C29.6685 51.25 29.3505 51.3817 29.1161 51.6161C28.8817 51.8505 28.75 52.1685 28.75 52.5C28.75 52.8315 28.8817 53.1495 29.1161 53.3839C29.3505 53.6183 29.6685 53.75 30 53.75H50C50.3315 53.75 50.6495 53.6183 50.8839 53.3839C51.1183 53.1495 51.25 52.8315 51.25 52.5C51.25 52.1685 51.1183 51.8505 50.8839 51.6161C50.6495 51.3817 50.3315 51.25 50 51.25H48.7162C48.585 48.42 47.9275 41.8913 44.6962 38.75C47.76 35.935 48.5063 31.0425 48.6888 28.75H50ZM41.975 37.6575C41.7764 37.7678 41.6116 37.9301 41.4984 38.127C41.3851 38.3239 41.3276 38.5479 41.3321 38.775C41.3366 39.0021 41.4029 39.2237 41.5239 39.416C41.6449 39.6083 41.816 39.7639 42.0187 39.8662C45.065 41.4012 46.0187 47.755 46.2125 51.25H33.7875C33.9763 47.75 34.935 41.4012 37.9813 39.8662C38.184 39.7639 38.3551 39.6083 38.4761 39.416C38.5971 39.2237 38.6634 39.0021 38.6679 38.775C38.6724 38.5479 38.6149 38.3239 38.5016 38.127C38.3884 37.9301 38.2236 37.7678 38.025 37.6575C34.8512 35.8962 34.0338 31.055 33.8225 28.75H46.1775C45.9662 31.055 45.1488 35.8962 41.975 37.6575ZM40 41.25C40 41.25 43.75 44.25 43.75 45.75V50H36.25V45.75C36.25 44.25 40 41.25 40 41.25Z" fill="url(#paint1_radial_809_1928)" fill-opacity="0.7"/>
<defs>
<radialGradient id="paint0_radial_809_1928" cx="0" cy="0" r="1" gradientUnits="userSpaceOnUse" gradientTransform="translate(28.8288 13.3333) rotate(59.7539) scale(61.2316 58.4051)">
<stop stop-color="white"/>
<stop offset="0.719012" stop-color="white" stop-opacity="0"/>
<stop offset="1" stop-color="white" stop-opacity="0"/>
</radialGradient>
<radialGradient id="paint1_radial_809_1928" cx="0" cy="0" r="1" gradientUnits="userSpaceOnUse" gradientTransform="translate(36.8581 30.8333) rotate(64.4954) scale(20.1463 17.1619)">
<stop stop-color="white"/>
<stop offset="0.719012" stop-color="white" stop-opacity="0"/>
<stop offset="1" stop-color="white" stop-opacity="0"/>
</radialGradient>
</defs>
</svg>
