<svg width="1920" height="1879" viewBox="0 0 1920 1879" fill="none" xmlns="http://www.w3.org/2000/svg">
 <path fill-rule="evenodd" clip-rule="evenodd" d="M-44 298.702C-44 298.702 91.9997 199.359 221.218 186.795C273.777 181.684 314.019 191.258 354.613 200.916C393.617 210.195 432.947 219.552 483.841 216.037C553.534 211.222 594.065 186.643 634.451 162.152C675.37 137.337 716.141 112.612 786.947 108.628C852.237 104.955 899.981 124.325 946.695 143.278C996.821 163.615 1045.76 183.471 1113.93 173.861C1169.78 165.986 1195.39 142.279 1220.97 118.588C1246.62 94.8454 1272.24 71.1187 1328.28 63.3595C1356.49 59.454 1379.73 61.4513 1402.92 63.4444C1426.39 65.4615 1449.81 67.4744 1478.28 63.3595C1514.99 58.0535 1536.55 44.9477 1557.83 32.012C1580.39 18.2972 1602.63 4.77345 1642.29 0.938982C1676.76 -2.39402 1703.09 3.74524 1729.72 9.95367C1754.99 15.8472 1780.54 21.803 1813.56 19.7776C1857.38 17.0903 1921 0.938982 1921 0.938982L1921 789.097L1921 820.156L1921 1589.83H1914.06C1900.19 1635.95 1859.16 1734.16 1761.35 1734.16C1707.33 1734.16 1657.15 1720.72 1606.69 1707.21C1555.65 1693.54 1504.33 1679.8 1448.46 1679.8C1379.24 1679.8 1343.93 1699.51 1308.6 1719.24C1273.23 1738.98 1237.84 1758.74 1168.42 1758.74C1100.81 1758.74 1064.09 1746.06 1027.61 1733.47C991.608 1721.04 955.839 1708.7 890.852 1708.7C827.825 1708.7 788.313 1735.23 749.794 1761.09C713.165 1785.68 677.434 1809.67 623.236 1809.67C575.353 1809.67 544.666 1798.21 516.354 1787.64C492.108 1778.58 469.604 1770.18 439.534 1770.18C402.059 1770.18 377.034 1787.8 351.936 1805.48C326.692 1823.25 301.375 1841.08 263.24 1841.08C224.577 1841.08 208.251 1832.96 192.198 1824.98C176.676 1817.26 161.409 1809.67 126.451 1809.67C55.3404 1809.67 -15.7699 1879 -15.7699 1879L-15.7699 1447.83L-14.7841 1447.83V830.685L-44 830.844V298.702Z" fill="#101518"/>
</svg>
